<?xml version="1.0" encoding="utf-8"?>
<!-- Generator: Adobe Illustrator 26.3.1, SVG Export Plug-In . SVG Version: 6.00 Build 0)  -->
<svg version="1.1" id="Ebene_1" xmlns="http://www.w3.org/2000/svg" xmlns:xlink="http://www.w3.org/1999/xlink" x="0px" y="0px"
	 viewBox="0 0 110.4 31.13" style="enable-background:new 0 0 110.4 31.13;" xml:space="preserve">
<style type="text/css">
	.st0{clip-path:url(#SVGID_00000145738829529588887360000012981430639461518495_);fill:#0000FF;}
</style>
<g>
	<defs>
		<rect id="SVGID_1_" width="110.4" height="31.13"/>
	</defs>
	<clipPath id="SVGID_00000034086719411328514730000003655990120216730760_">
		<use xlink:href="#SVGID_1_"  style="overflow:visible;"/>
	</clipPath>
	<path style="clip-path:url(#SVGID_00000034086719411328514730000003655990120216730760_);fill:#0000FF;" d="M87.02,1.94h1.32
		c0.74,0,1.57,0.14,1.57,1.07c0,1-0.96,1.03-1.7,1.03h-1.19V1.94z M85,9.42h2.02V5.75h1l1.92,3.67h2.43l-2.33-3.88
		c1.3-0.23,1.98-1.23,1.98-2.52c0-2.14-1.58-2.79-3.46-2.79H85V9.42z M76.31,9.42h6.48V7.55h-4.45V5.67h3.99V3.8h-3.99V2.1h4.22
		V0.23h-6.24V9.42z M73.81,0.23h-2.02V5.8c0,1.13-0.78,1.99-1.84,1.99c-1.08,0-1.86-0.86-1.86-1.99V0.23h-2.03v5.65
		c0,2.17,1.32,3.77,3.88,3.77c2.54,0,3.87-1.61,3.87-3.77V0.23z M61.27,5.76h-2.24l1.12-2.86L61.27,5.76z M55.39,9.42h2.23
		l0.76-1.95h3.57l0.79,1.95h2.28l-4-9.19h-1.67L55.39,9.42z M54.24,3.97h-3.6v1.87h1.65v1.49c-0.38,0.21-1.03,0.45-1.91,0.45
		c-1.73,0-2.86-1.25-2.86-2.96c0-1.71,1.13-2.96,2.86-2.96c1.02,0,1.69,0.3,2.23,0.87l1.43-1.56C53.12,0.32,51.84,0,50.38,0
		c-2.87,0-4.96,1.88-4.96,4.83s2.09,4.83,4.96,4.83c1.35,0,2.66-0.26,3.85-0.88V3.97z M38.76,1.94h1.33c0.74,0,1.57,0.14,1.57,1.07
		c0,1-0.96,1.03-1.7,1.03h-1.19V1.94z M36.74,9.42h2.02V5.75h1l1.92,3.67h2.43l-2.34-3.88c1.3-0.23,1.99-1.23,1.99-2.52
		c0-2.14-1.58-2.79-3.47-2.79h-3.56V9.42z M31.43,5.76h-2.25l1.12-2.86L31.43,5.76z M25.55,9.42h2.23l0.77-1.95h3.57l0.79,1.95h2.28
		l-4-9.19h-1.67L25.55,9.42z M20.71,5.76h-2.25l1.12-2.86L20.71,5.76z M14.83,9.42h2.23l0.77-1.95h3.57l0.79,1.95h2.28l-4-9.19
		h-1.67L14.83,9.42z M96.96,30.89h2.03v-7.05h0.03l2.32,7.05h1.55l2.42-7.05h0.03v7.05h2.02V21.7h-3.05l-2.13,6h-0.03l-2.12-6h-3.06
		V30.89z M94.5,21.7h-2.02v5.57c0,1.13-0.78,1.99-1.84,1.99c-1.08,0-1.86-0.86-1.86-1.99V21.7h-2.02v5.65
		c0,2.17,1.32,3.78,3.88,3.78c2.54,0,3.87-1.61,3.87-3.78V21.7z M82.09,30.89h2.02V21.7h-2.02V30.89z M74.81,23.42h1.33
		c0.74,0,1.57,0.14,1.57,1.07c0,1-0.96,1.03-1.7,1.03h-1.2V23.42z M72.79,30.89h2.02v-3.68h1l1.92,3.68h2.43l-2.34-3.88
		c1.3-0.23,1.99-1.23,1.99-2.52c0-2.14-1.58-2.79-3.47-2.79h-3.56V30.89z M62.97,26.3c0-1.71,1.13-2.96,2.86-2.96
		c1.73,0,2.85,1.25,2.85,2.96s-1.13,2.96-2.85,2.96C64.1,29.26,62.97,28.01,62.97,26.3 M60.87,26.3c0,2.95,2.09,4.83,4.96,4.83
		c2.87,0,4.96-1.88,4.96-4.83s-2.09-4.83-4.96-4.83C62.95,21.47,60.87,23.35,60.87,26.3 M55.03,30.89h2.02v-7.4h2.62V21.7H52.4v1.79
		h2.62V30.89z M49.18,27.23h-2.24l1.12-2.86L49.18,27.23z M43.3,30.89h2.23l0.77-1.95h3.57l0.79,1.95h2.28l-4-9.19h-1.68L43.3,30.89
		z M36.87,23.42h1.33c0.74,0,1.57,0.14,1.57,1.07c0,1-0.96,1.03-1.7,1.03h-1.19V23.42z M34.84,30.89h2.02v-3.68h1l1.92,3.68h2.43
		l-2.33-3.88c1.3-0.23,1.98-1.23,1.98-2.52c0-2.14-1.58-2.79-3.47-2.79h-3.56V30.89z M32.65,21.7h-2.02v5.57
		c0,1.13-0.78,1.99-1.84,1.99c-1.08,0-1.86-0.86-1.86-1.99V21.7H24.9v5.65c0,2.17,1.32,3.78,3.88,3.78c2.55,0,3.87-1.61,3.87-3.78
		V21.7z M15.31,30.89h2.02v-4.36l3.74,4.36h2.83l-4.44-4.92l4.09-4.27h-2.65l-3.57,3.82V21.7h-2.02V30.89z M15.26,18.62
		c1.69,0,3.07-1.37,3.07-3.07c0-1.69-1.37-3.07-3.07-3.07c-1.69,0-3.07,1.38-3.07,3.07C12.19,17.25,13.57,18.62,15.26,18.62
		 M33.56,18.62c1.69,0,3.07-1.37,3.07-3.07c0-1.69-1.37-3.07-3.07-3.07c-1.69,0-3.07,1.38-3.07,3.07
		C30.49,17.25,31.86,18.62,33.56,18.62 M76.68,18.62c1.69,0,3.07-1.37,3.07-3.07c0-1.69-1.37-3.07-3.07-3.07
		c-1.69,0-3.07,1.38-3.07,3.07C73.61,17.25,74.99,18.62,76.68,18.62 M107.34,18.62c1.69,0,3.07-1.37,3.07-3.07
		c0-1.69-1.37-3.07-3.07-3.07s-3.07,1.38-3.07,3.07C104.27,17.25,105.64,18.62,107.34,18.62 M3.07,18.62c1.69,0,3.07-1.37,3.07-3.07
		c0-1.69-1.37-3.07-3.07-3.07S0,13.86,0,15.56C0,17.25,1.37,18.62,3.07,18.62"/>
</g>
</svg>
