<?xml version="1.0" encoding="utf-8"?>
<!-- Generator: Adobe Illustrator 26.3.1, SVG Export Plug-In . SVG Version: 6.00 Build 0)  -->
<svg version="1.1" id="Ebene_1" xmlns="http://www.w3.org/2000/svg" xmlns:xlink="http://www.w3.org/1999/xlink" x="0px" y="0px"
	 viewBox="0 0 376.8 99.3" style="enable-background:new 0 0 376.8 99.3;" xml:space="preserve">
<style type="text/css">
	.st0{fill:#0000FF;}
</style>
<g>
	<path class="st0" d="M229.4,0.1c0,7,0,13.9,0,20.9c-0.3,0.1-0.5,0.1-0.8,0.2c-0.3,0-0.6,0-1,0c-20.6,0-41.2,0-61.8,0
		c-0.5,0-0.9,0-1.6,0c0.2-0.6,0.3-1,0.5-1.3c1.3-2.6,3.1-4.6,5.3-6.4c3.2-2.6,6.8-4.4,10.5-5.9c5.7-2.3,11.5-3.8,17.5-4.8
		c4.4-0.8,8.9-1.4,13.4-1.9c5.6-0.6,11.3-0.9,17-0.8C228.8,0,229,0,229.4,0.1z"/>
	<path class="st0" d="M23,59.5c0-0.9,0.1-1.7,0.1-2.5c2.8,0,5.6,0,8.5,0c0,0.4,0.1,0.8,0.1,1.2c0,8.6,0,17.2,0,25.8
		c0,1.7-0.2,3.5-0.5,5.2c-0.4,2.5-1.7,4.4-3.6,6c-2.3,1.9-4.9,3.1-7.8,3.6c-3.5,0.7-7,0.7-10.4-0.4c-3.8-1.2-6.6-3.4-8.2-7.2
		c-0.3-0.6-0.4-1.3-0.6-2c0.4-0.1,0.6-0.2,0.9-0.2c2.8,0,5.5,0,8.3,0c0.5,0,0.9,0.1,1.2,0.6c1.2,1.9,3.1,2.4,5.1,2.3
		c3.9-0.1,6.4-2.4,6.9-6.3c0.1-0.6,0.1-1.3,0.2-1.9c0-0.2,0-0.4-0.1-0.7c-0.2,0.1-0.4,0.2-0.4,0.3c-1.9,2.7-4.6,3.7-7.7,3.7
		C10,87.2,6,85.3,3,81.3c-1.8-2.4-2.7-5.1-2.9-8.1c-0.2-2.8,0.1-5.6,1.2-8.2c2.2-5.1,6-8,11.5-8.9c1.8-0.3,3.6-0.2,5.3,0.3
		c1.7,0.4,3.2,1.3,4.3,2.6c0.1,0.1,0.2,0.2,0.3,0.3C22.8,59.4,22.8,59.4,23,59.5z M23.1,71.8c0-0.2,0-0.5,0-0.7
		c-0.4-6.1-6-8.2-10-6.5c-3.3,1.4-5,4.8-4.3,8.6c0.7,3.5,3.6,6.1,7.3,5.9C19.6,78.9,23.2,76.2,23.1,71.8z"/>
	<path class="st0" d="M229.4,25.2c0,2.8,0,5.6,0,8.5c-28,0-56,0-84,0c-0.1-2.8,0-5.6,0-8.4C146.3,25,228.1,24.9,229.4,25.2z"/>
	<path class="st0" d="M222.6,86.1c-2.8,0-5.6,0-8.5,0c0-1,0-1.9,0-3c-0.4,0.3-0.6,0.4-0.7,0.5c-1.4,2-3.5,2.9-5.8,3.3
		c-8.2,1.4-15.4-3.7-16.8-12c-0.7-3.9-0.4-7.6,1.4-11.2c3.3-6.6,10.7-9,16.5-7.4c1.9,0.5,3.4,1.5,4.6,3c0.1,0.2,0.3,0.3,0.6,0.7
		c0.1-1.2,0.1-2.1,0.2-3.1c2.8,0,5.6,0,8.5,0C222.6,66.7,222.6,76.4,222.6,86.1z M206.6,64c-4.6-0.1-7.3,3.6-7.4,7.6
		c0,4.2,3.3,7.6,7.4,7.5c5.2,0,7.5-4,7.5-7.7C214,67,210.7,63.9,206.6,64z"/>
	<path class="st0" d="M145.4,47.1c2.5,0,5,0,7.5,0c0.3,0,0.5,0,0.9,0c0.2,2.1,0.1,4.1,0.1,6.1c0,2,0,4,0,6.3
		c0.3-0.2,0.5-0.3,0.5-0.4c1.4-2.1,3.6-2.9,5.9-3.2c1.6-0.2,3.3,0,4.9,0.5c3.8,1.1,6,3.7,6.7,7.5c0.3,1.8,0.4,3.7,0.4,5.5
		c0.1,5.2,0,10.3,0,15.5c0,0.4,0,0.8-0.1,1.3c-2.9,0.2-5.6,0-8.5,0.1c0-0.6-0.1-1-0.1-1.4c0-4.9,0-9.8,0-14.7c0-1-0.2-2.1-0.5-3.1
		c-0.5-1.6-1.6-2.6-3.3-2.9c-3.2-0.6-5.7,1.2-5.9,4.4c-0.1,0.8-0.1,1.7-0.1,2.5c0,4.5,0,9,0,13.5c0,0.5,0,0.9,0,1.4
		c-1,0.3-7.1,0.4-8.5,0.1C145.2,85.3,145.1,48.9,145.4,47.1z"/>
	<path class="st0" d="M273.9,74.2c-7.3,0-14.5,0-22,0c0.2,0.7,0.2,1.2,0.4,1.6c1.7,4.2,7.8,5.6,11,2.3c0.8-0.8,1.5-1,2.5-1
		c2,0.1,3.9,0,5.9,0c0.4,0,0.8,0,1.4,0.1c-1.5,3.3-3.5,5.8-6.4,7.7c-3.5,2.2-7.3,2.7-11.3,1.9c-8.3-1.8-13.6-10.3-11.6-18.7
		c2-8.5,10-13.8,18.4-11.8C270,58.1,275.7,66.8,273.9,74.2z M252.2,68.3c1.8,0.2,12.3,0.1,13.2-0.1c-0.3-2.8-3.1-5-6.6-5
		C255.3,63.2,252.5,65.4,252.2,68.3z"/>
	<path class="st0" d="M64.2,86.1c-2.7,0-5.3,0-8,0c-0.1-0.9-0.1-1.8-0.2-2.9c-0.3,0.4-0.5,0.6-0.7,0.8c-1,1.4-2.3,2.4-3.9,2.7
		c-3.1,0.7-6.1,0.5-9-1c-2.9-1.6-4.5-4.1-5.1-7.3c-0.2-0.9-0.2-1.8-0.2-2.7c0-6,0-11.9,0-17.9c0-0.3,0-0.5,0.1-0.9
		c2.8,0,5.6,0,8.5,0c0,0.5,0.1,1,0.1,1.4c0,4.7,0,9.4,0,14.1c0,0.8,0.1,1.6,0.1,2.4c0.3,3,2.2,4.4,5.2,4.1c2.6-0.2,4.2-1.8,4.5-4.5
		c0.1-0.6,0.1-1.3,0.1-1.9c0-4.8,0-9.5,0-14.3c0-0.5,0-0.9,0.1-1.5c2.9,0,5.7,0,8.5,0C64.2,66.7,64.2,76.4,64.2,86.1z"/>
	<path class="st0" d="M305.3,86.1c-2.9,0-5.6,0-8.6,0c0-0.5,0-0.9,0-1.3c0-5,0-10,0-15c0-0.8-0.1-1.7-0.3-2.5
		c-0.4-1.8-1.5-2.9-3.3-3.2c-1.1-0.2-2.2-0.1-3.3,0.3c-1.7,0.6-2.5,2-2.8,3.7c-0.1,0.8-0.2,1.7-0.2,2.5c0,4.7,0,9.4,0,14
		c0,0.5,0,0.9,0,1.6c-2.9,0-5.7,0-8.5,0c0-9.8,0-19.5,0-29.2c2.6,0,5.2,0,7.9,0c0,0.9,0,1.8,0,2.8c0.1,0,0.2,0.1,0.2,0.1
		c0.2-0.2,0.4-0.3,0.5-0.5c1.5-2.1,3.6-3.1,6.1-3.3c2.4-0.2,4.7,0.2,6.9,1.2c2.9,1.3,4.4,3.7,5,6.8c0.2,1.3,0.3,2.6,0.3,3.9
		c0,5.7,0,11.4,0,17.1C305.3,85.4,305.3,85.7,305.3,86.1z"/>
	<path class="st0" d="M142.2,75.1c-0.8,6.6-8.5,12.4-15.7,12c-9.7-0.5-15-8.1-15.2-15.2c-0.2-7.7,5.1-15.2,14-16
		c9.7-0.9,15.8,5.9,16.9,11.9c-0.9,0.2-5.8,0.3-8.6,0.1c-0.1-0.2-0.3-0.5-0.5-0.7c-1.8-3-4.5-3.6-7.4-3.2c-2.7,0.4-4.8,2.6-5.4,5.5
		c-0.3,1.6-0.3,3.2,0.2,4.7c0.9,2.6,2.7,4.2,5.4,4.6c2.8,0.4,5.3-0.3,6.9-2.8c0.6-0.9,1.3-1.1,2.3-1.1c2,0.1,3.9,0,5.9,0
		C141.4,75.1,141.8,75.1,142.2,75.1z"/>
	<path class="st0" d="M85.6,77.7c2.7-0.1,5.5,0,8.3,0c0.1,0.3,0.3,0.5,0.3,0.7c0.6,2.1,3.8,2.7,5.7,1.2c1.1-0.9,1-2.4-0.1-3.3
		c-0.6-0.5-1.3-0.8-2-1.1c-1.7-0.7-3.5-1.3-5.3-2c-1.2-0.5-2.4-1-3.5-1.8c-2.8-2-3.8-4.9-2.8-8.2c0.8-2.8,2.7-4.7,5.3-5.9
		c3.8-1.8,7.7-1.7,11.5-0.1c2.9,1.2,4.6,3.5,5.3,6.6c0.1,0.4,0.1,0.8,0.1,1.2c-2.8,0-5.5,0-8.3,0c-0.4-1.7-1.6-2.2-3.2-2.1
		c-0.4,0-0.9,0.2-1.2,0.4c-1.1,0.6-1.4,2-0.5,2.9c0.6,0.5,1.3,1,2,1.3c1.2,0.5,2.5,0.8,3.8,1.2c1.1,0.4,2.3,0.7,3.4,1.2
		c5.3,2.4,6.8,8.4,3.2,13.1c-1.3,1.6-2.9,2.7-4.8,3.4c-3.9,1.4-7.7,1.3-11.4-0.5c-3-1.4-4.8-3.9-5.5-7.1c0-0.2-0.1-0.4-0.1-0.6
		C85.5,78,85.6,77.9,85.6,77.7z"/>
	<path class="st0" d="M238.3,86.1c-2.9,0-5.7,0-8.6,0c-0.2-2.5-0.1-5-0.1-7.5c0-2.5,0-5,0-7.4c0-2.5,0-5,0-7.7c-1.2,0-2.2,0-3.2,0
		c0-2.3,0-4.4,0-6.6c1,0,2,0,3.1,0c0-0.5,0.1-1,0.1-1.4c0.1-1,0.1-1.9,0.3-2.8c0.5-2.6,2.1-4.4,4.6-5.4c2.3-0.9,4.7-1,7.3-0.9
		c0.3,2.1,0.1,4.2,0.1,6.2c-3.4,0.8-4,1.5-3.6,4.3c1.1,0,2.2,0,3.5,0c0.1,2.2,0.1,4.3,0,6.6c-1.2,0-2.4,0-3.6,0
		C238.3,71.1,238.3,78.6,238.3,86.1z"/>
	<path class="st0" d="M80.1,56.9c1.5,0,2.8,0,4.2,0c0,2.2,0,4.3,0,6.6c-1.4,0-2.7,0-4.1,0c0,7.6,0,15.1,0,22.5
		c-0.9,0.3-7.3,0.4-8.7,0.1c0-7.4,0-14.9,0-22.6c-1.5,0-2.8,0-4.1,0c-0.3-1.2-0.3-5.4,0-6.6c1.3,0,2.6,0,4.1,0c0-3.3,0-6.5,0-9.7
		c2.9,0,5.7,0,8.6,0C80.1,50.3,80.1,53.5,80.1,56.9z"/>
	<path class="st0" d="M186.4,86.1c-2.8,0-5.6,0-8.4,0c-0.3-1-0.3-37.8,0-39c2.8,0,5.5,0,8.4,0C186.4,60.1,186.4,73.1,186.4,86.1z"/>
	<path class="st0" d="M376.7,86.1c-1.1,0-2.2,0-3.5,0c0-0.5,0-0.9,0-1.4c0-4.9,0-9.7,0-14.6c0-1.7-0.3-3.3-0.9-4.9
		c-1.4-3.6-4.7-5.5-8.4-5.5c-3.8,0-7,2.2-8.3,5.7c-0.6,1.5-0.8,3.1-0.8,4.7c0,4.9,0,9.7,0,14.6c0,0.4,0,0.9,0,1.4
		c-1.2,0-2.3,0-3.5,0c0-13,0-26,0-39c1.1,0,2.2,0,3.4,0c0.1,1.5,0,3,0,4.5c0,1.6,0,3.1,0,4.7c0,1.5,0,3,0,4.5
		c0.1,0.1,0.2,0.1,0.4,0.2c0.2-0.3,0.3-0.5,0.5-0.8c2-2.3,4.6-3.4,7.6-3.6c1.5-0.1,3,0,4.4,0.4c5,1.4,7.8,4.8,8.7,9.8
		c0.2,1,0.3,2,0.3,3c0,5.1,0,10.2,0,15.3C376.8,85.4,376.7,85.8,376.7,86.1z"/>
	<path class="st0" d="M346.7,78c-2.2,4.1-5.2,7.2-9.9,8.3c-5.6,1.3-10.9,0.4-15.2-3.7c-4.2-4-5.6-9-4.2-14.6
		c1.4-5.7,5.2-9.3,10.9-10.9c6.7-1.9,13.8,0.8,17.3,6.4c0.4,0.7,0.8,1.4,1.2,2.3c-1.3,0-2.5,0.1-3.6,0c-0.3,0-0.6-0.4-0.8-0.8
		c-1.3-2-3-3.4-5.1-4.4c-6.7-2.9-15.5,1.1-16.6,9c-1.1,7.5,4.1,13,10,13.8c5,0.7,9.1-0.8,11.9-5.1c0.3-0.5,0.6-0.7,1.2-0.6
		c0.9,0,1.8,0,2.6,0C346.5,77.8,346.5,77.9,346.7,78z"/>
	<path class="st0" d="M164,14.4c-1.8,2-3,4.2-3.8,6.5c-1,0.3-13.5,0.3-14.8,0c0-4,0-7.9,0-12C152.2,8.6,158.6,9.5,164,14.4z"/>
	<path class="st0" d="M314.5,86.2c-1.2,0-2.4,0-3.6,0c0-2.1,0-4.2,0-6.4c1.2,0,2.4,0,3.6,0C314.5,81.9,314.5,83.9,314.5,86.2z"/>
</g>
</svg>
