<?xml version="1.0" encoding="utf-8"?>
<!-- Generator: Adobe Illustrator 26.3.1, SVG Export Plug-In . SVG Version: 6.00 Build 0)  -->
<svg version="1.1" id="Ebene_1" xmlns="http://www.w3.org/2000/svg" xmlns:xlink="http://www.w3.org/1999/xlink" x="0px" y="0px"
	 viewBox="0 0 2104.5 545.2" style="enable-background:new 0 0 2104.5 545.2;" xml:space="preserve">
<style type="text/css">
	.st0{fill:#0000FF;}
</style>
<path class="st0" d="M1040.9,59.4c0-8.2,1.5-15.9,4.6-23.1c3.1-7.2,7.4-13.5,12.8-18.9c5.4-5.4,11.7-9.7,19-12.8
	c7.3-3.1,15.1-4.6,23.5-4.6c8.4,0,16.3,1.5,23.7,4.6c7.4,3.1,13.8,7.3,19.2,12.8c5.4,5.4,9.7,11.7,13,18.9
	c3.2,7.2,4.8,14.9,4.8,23.1c0,8.2-1.6,15.9-4.8,23.1c-3.3,7.2-7.6,13.5-13,18.9c-5.4,5.4-11.8,9.7-19.2,12.8
	c-7.4,3.1-15.3,4.6-23.7,4.6c-8.4,0-16.2-1.5-23.5-4.6c-7.3-3.1-13.6-7.3-19-12.8c-5.4-5.4-9.7-11.7-12.8-18.9
	C1042.5,75.3,1040.9,67.6,1040.9,59.4z"/>
<path class="st0" d="M0,380.2V274.9h27.9c2.5,0,5,0.1,7.5,0.2c2.5,0.2,5,0.4,7.4,0.7c2.4,0.3,4.7,0.7,7,1.1c2.3,0.4,4.3,1,6.2,1.6
	c5.6,1.8,10.6,4.2,14.9,7.2c4.3,3.1,7.9,6.6,10.8,10.8c2.9,4.1,5.1,8.8,6.6,13.9c1.5,5.1,2.2,10.7,2.2,16.6c0,5.7-0.6,11-1.9,15.9
	c-1.3,5-3.2,9.5-5.7,13.6c-2.6,4.1-5.8,7.7-9.7,10.8c-3.9,3.1-8.5,5.7-13.9,7.7c-4.5,1.7-9.5,2.9-15.2,3.8c-5.7,0.8-12,1.3-19.1,1.3
	H0z M27.2,364c11.3,0,20.1-1.5,26.4-4.6c5.6-2.8,9.9-6.8,12.7-12.1c2.9-5.3,4.3-12.1,4.3-20.3c0-4.3-0.5-8.2-1.4-11.6
	c-0.9-3.5-2.3-6.6-4.1-9.3c-1.8-2.7-3.9-5-6.5-7c-2.5-1.9-5.4-3.5-8.6-4.8c-3-1.1-6.3-2-10-2.5c-3.7-0.5-7.8-0.8-12.4-0.8h-8.5v73
	H27.2z"/>
<path class="st0" d="M148,367.1c3.6,0,7.4-0.4,11.3-1.1c3.9-0.7,7.9-1.8,12-3.1v14.9c-2.4,1.1-6.1,2-11.1,3
	c-5,0.9-10.2,1.4-15.5,1.4c-5.4,0-10.5-0.7-15.4-2.1c-4.9-1.4-9.1-3.6-12.7-6.7c-3.6-3.1-6.5-7.1-8.6-12c-2.1-4.9-3.2-10.9-3.2-18
	c0-6.9,1-13,3-18.2c2-5.2,4.7-9.5,8-12.9c3.4-3.4,7.2-6,11.5-7.7c4.3-1.7,8.8-2.6,13.4-2.6c4.8,0,9.3,0.7,13.3,2.2
	c4.1,1.5,7.6,3.8,10.5,6.9c3,3.2,5.3,7.2,6.9,12.2c1.7,5,2.5,10.8,2.5,17.6c-0.1,2.6-0.1,4.8-0.2,6.7h-50c0.3,3.5,1,6.5,2.4,9
	c1.3,2.5,3,4.5,5.2,6.1c2.1,1.5,4.6,2.7,7.4,3.4C141.6,366.8,144.7,367.1,148,367.1z M140.5,316.6c-2.4,0-4.5,0.4-6.3,1.3
	c-1.8,0.9-3.4,2-4.8,3.5c-1.3,1.5-2.4,3.2-3.2,5.2c-0.8,2-1.3,4.1-1.6,6.4h30c0-2.2-0.3-4.4-0.9-6.4c-0.6-2-1.5-3.7-2.7-5.2
	c-1.2-1.5-2.7-2.7-4.4-3.5C144.9,317,142.9,316.6,140.5,316.6z"/>
<path class="st0" d="M236.7,318.7h-1.6c-5.7,0-10.7,0.9-15.1,2.6c-4.3,1.7-7.7,4.3-10,7.8v51.1h-18.7v-76.3h15.4l1.7,10.6h0.3
	c2.2-3.9,5.2-6.9,9.1-9.2c3.9-2.2,8.5-3.3,13.9-3.3c1.9,0,3.5,0.1,4.9,0.3V318.7z"/>
<path class="st0" d="M336.5,353.3h-39.7l-10.3,26.8H266l41.8-105.3h17.6l41.8,105.3h-20.4L336.5,353.3z M316.5,300.2
	c-3.7,11-7,20.2-9.9,27.6l-3.6,9.4h27.2l-3.6-9.4c-2.8-7.5-6.1-16.7-9.8-27.6H316.5z"/>
<path class="st0" d="M396.9,314.5h0.3c1.1-1.6,2.5-3.1,4.2-4.6c1.7-1.5,3.6-2.9,5.7-4c2.1-1.2,4.5-2.1,7.1-2.8
	c2.6-0.7,5.4-1.1,8.3-1.1c2.8,0,5.5,0.3,8.1,0.9c2.6,0.6,5,1.6,7.1,3c2.2,1.3,4.1,3.1,5.7,5.2c1.6,2.1,2.9,4.7,3.9,7.6
	c0.5,1.6,0.9,3.4,1.1,5.3c0.2,1.9,0.3,4.1,0.3,6.6v49.5h-18.7v-46.6c0-2-0.1-3.8-0.2-5.3c-0.2-1.5-0.5-2.8-0.9-3.9
	c-1-2.4-2.4-4.1-4.3-5.2c-1.9-1-4.2-1.6-7-1.6c-3.6,0-7.1,0.9-10.4,2.6c-3.3,1.7-6.3,4.2-8.9,7.4v52.5h-18.7v-76.3h15.4L396.9,314.5
	z"/>
<path class="st0" d="M502.9,358.1c0-1.6-0.5-3-1.4-4c-0.9-1-2.1-1.9-3.7-2.6c-1.5-0.7-3.3-1.3-5.2-1.8c-2-0.5-4-1.1-6.2-1.6
	c-2.7-0.7-5.4-1.6-7.9-2.6c-2.5-1-4.7-2.2-6.6-3.8c-1.9-1.6-3.4-3.5-4.6-5.9c-1.1-2.4-1.7-5.3-1.7-8.8c0-4.2,0.8-7.9,2.3-11.1
	c1.5-3.1,3.6-5.7,6.2-7.8c2.6-2,5.6-3.6,9.1-4.6c3.4-1,7.1-1.5,10.9-1.5c4.7,0,9,0.4,13.1,1.1c4.1,0.8,7.8,1.7,11.1,2.9v15.2
	c-1.7-0.6-3.6-1.1-5.5-1.6c-1.9-0.5-3.8-0.9-5.8-1.3c-2-0.4-3.9-0.7-5.9-0.9c-1.9-0.2-3.8-0.4-5.5-0.4c-2.2,0-4.1,0.2-5.6,0.6
	c-1.5,0.4-2.8,1-3.7,1.7c-0.9,0.7-1.6,1.5-2,2.4c-0.4,0.9-0.6,1.9-0.6,2.9c0,1.7,0.5,3.1,1.4,4.2c0.9,1.1,2.2,2,3.8,2.7
	c1.6,0.7,3.3,1.2,5.1,1.7c1.8,0.4,3.5,0.9,5.2,1.3c2.6,0.6,5.2,1.4,7.9,2.3c2.6,0.9,5,2.1,7.1,3.7c2.1,1.6,3.8,3.7,5.2,6.2
	c1.3,2.5,2,5.8,2,9.7c0,4.3-0.8,8-2.4,11.3c-1.6,3.2-3.9,5.9-6.8,8c-2.9,2.1-6.4,3.7-10.5,4.7c-4.1,1-8.5,1.5-13.4,1.5
	c-4.8,0-9.2-0.4-13-1.1c-3.9-0.8-7-1.7-9.6-2.9v-15c4.1,1.5,7.9,2.6,11.3,3.1c3.5,0.6,6.7,0.8,9.7,0.8c2.3,0,4.5-0.2,6.4-0.5
	c2-0.3,3.7-0.9,5.2-1.6c1.4-0.7,2.6-1.7,3.4-2.8C502.5,361,502.9,359.6,502.9,358.1z"/>
<path class="st0" d="M592.4,378.5c-2.4,1-5.3,1.8-8.7,2.6c-3.4,0.7-7,1.1-10.8,1.1c-5.5,0-10.6-0.8-15.4-2.4c-4.8-1.6-9-4-12.5-7.2
	c-3.6-3.2-6.4-7.2-8.4-12.2c-2-4.9-3.1-10.6-3.1-17.2c0-7.3,1.2-13.6,3.6-18.9c2.4-5.2,5.4-9.5,9.2-12.8c3.7-3.3,8-5.7,12.7-7.2
	c4.7-1.5,9.3-2.3,13.9-2.3c3.4,0,6.7,0.3,9.8,0.9c3.2,0.6,6,1.4,8.6,2.5v15.2c-2.3-1-4.8-1.8-7.3-2.4c-2.6-0.6-5.4-0.9-8.4-0.9
	c-3,0-5.9,0.5-8.6,1.4c-2.7,0.9-5.1,2.4-7.2,4.4c-2.1,2-3.8,4.6-5,7.9c-1.2,3.3-1.8,7.2-1.8,11.9c0,3.4,0.5,6.5,1.4,9.5
	c0.9,3,2.3,5.5,4.1,7.6c1.8,2.1,4.1,3.8,6.9,5.1c2.8,1.3,6.1,1.9,10,1.9c3.4,0,6.5-0.3,9.3-1c2.8-0.7,5.4-1.5,7.9-2.5V378.5z"/>
<path class="st0" d="M628,297.3c0,3.9-0.1,7.2-0.2,9.7c-0.1,2.6-0.3,4.9-0.7,6.9h0.3c1.1-1.5,2.5-2.9,4.1-4.4
	c1.6-1.5,3.4-2.7,5.3-3.8c1.9-1.1,4.1-2,6.5-2.6c2.4-0.7,5.1-1,8.1-1c2.5,0,5,0.2,7.4,0.8c2.4,0.5,4.6,1.3,6.7,2.3
	c2.1,1.1,4,2.4,5.7,4.1c1.7,1.7,3.1,3.7,4.3,6c1,2,1.7,4.3,2.2,6.8c0.5,2.5,0.7,5.6,0.7,9.2v49h-18.6v-46.5c0-2.4-0.1-4.3-0.3-5.8
	c-0.2-1.5-0.6-2.8-1.1-3.9c-1.1-2.3-2.7-3.9-4.7-4.9c-2-0.9-4.4-1.4-7-1.4c-3.6,0.1-7,0.9-10,2.6c-3.1,1.7-5.9,4.2-8.5,7.4v52.5
	h-18.7v-114H628V297.3z"/>
<path class="st0" d="M699.6,380.2v-114h18.7v114H699.6z"/>
<path class="st0" d="M773.1,382.1c-7.7,0-14-1.3-19-3.9c-5-2.6-8.8-6.1-11.4-10.5c-1.4-2.4-2.4-5-3-7.8c-0.7-2.8-1-6-1-9.4v-46.6
	h18.7v44.6c0,2.6,0.2,4.8,0.6,6.6c0.4,1.9,0.9,3.5,1.6,4.8c1.3,2.3,3.1,4,5.4,5.2c2.3,1.1,5.1,1.7,8.3,1.7c3.4,0,6.2-0.6,8.6-1.9
	c2.4-1.2,4.2-3.2,5.4-5.7c1.2-2.5,1.8-5.9,1.8-10.3v-45h18.7v46.6c0,6.2-1.1,11.4-3.2,15.7c-1.2,2.4-2.8,4.6-4.7,6.6
	c-1.9,2-4.2,3.6-6.8,5c-2.6,1.4-5.5,2.5-8.8,3.2C780.8,381.8,777.2,382.1,773.1,382.1z"/>
<path class="st0" d="M861.1,358.1c0-1.6-0.5-3-1.4-4c-0.9-1-2.1-1.9-3.7-2.6c-1.5-0.7-3.3-1.3-5.2-1.8c-2-0.5-4-1.1-6.2-1.6
	c-2.7-0.7-5.4-1.6-7.9-2.6c-2.5-1-4.7-2.2-6.6-3.8c-1.9-1.6-3.4-3.5-4.6-5.9c-1.1-2.4-1.7-5.3-1.7-8.8c0-4.2,0.8-7.9,2.3-11.1
	c1.5-3.1,3.6-5.7,6.2-7.8c2.6-2,5.6-3.6,9.1-4.6c3.4-1,7.1-1.5,10.9-1.5c4.7,0,9,0.4,13.1,1.1c4.1,0.8,7.8,1.7,11.1,2.9v15.2
	c-1.7-0.6-3.6-1.1-5.5-1.6c-1.9-0.5-3.8-0.9-5.8-1.3c-2-0.4-3.9-0.7-5.9-0.9c-1.9-0.2-3.8-0.4-5.5-0.4c-2.2,0-4.1,0.2-5.6,0.6
	c-1.5,0.4-2.8,1-3.7,1.7c-0.9,0.7-1.6,1.5-2,2.4c-0.4,0.9-0.6,1.9-0.6,2.9c0,1.7,0.5,3.1,1.4,4.2c0.9,1.1,2.2,2,3.8,2.7
	c1.6,0.7,3.3,1.2,5.1,1.7c1.8,0.4,3.5,0.9,5.2,1.3c2.6,0.6,5.2,1.4,7.9,2.3c2.6,0.9,5,2.1,7.1,3.7c2.1,1.6,3.8,3.7,5.2,6.2
	c1.3,2.5,2,5.8,2,9.7c0,4.3-0.8,8-2.4,11.3c-1.6,3.2-3.9,5.9-6.8,8c-2.9,2.1-6.4,3.7-10.5,4.7c-4.1,1-8.5,1.5-13.4,1.5
	c-4.8,0-9.2-0.4-13-1.1c-3.9-0.8-7-1.7-9.6-2.9v-15c4.1,1.5,7.9,2.6,11.3,3.1c3.5,0.6,6.7,0.8,9.7,0.8c2.3,0,4.5-0.2,6.4-0.5
	c2-0.3,3.7-0.9,5.2-1.6c1.4-0.7,2.6-1.7,3.4-2.8C860.6,361,861.1,359.6,861.1,358.1z"/>
<path class="st0" d="M929.4,358.1c0-1.6-0.5-3-1.4-4c-0.9-1-2.1-1.9-3.7-2.6c-1.5-0.7-3.3-1.3-5.2-1.8c-2-0.5-4-1.1-6.2-1.6
	c-2.7-0.7-5.4-1.6-7.9-2.6c-2.5-1-4.7-2.2-6.7-3.8c-1.9-1.6-3.4-3.5-4.6-5.9c-1.1-2.4-1.7-5.3-1.7-8.8c0-4.2,0.8-7.9,2.3-11.1
	c1.5-3.1,3.6-5.7,6.2-7.8c2.6-2,5.6-3.6,9-4.6c3.4-1,7.1-1.5,10.9-1.5c4.7,0,9.1,0.4,13.2,1.1c4.1,0.8,7.8,1.7,11.1,2.9v15.2
	c-1.7-0.6-3.6-1.1-5.5-1.6c-1.9-0.5-3.9-0.9-5.8-1.3c-2-0.4-3.9-0.7-5.9-0.9c-1.9-0.2-3.8-0.4-5.5-0.4c-2.2,0-4.1,0.2-5.6,0.6
	c-1.5,0.4-2.8,1-3.7,1.7c-1,0.7-1.6,1.5-2,2.4c-0.4,0.9-0.6,1.9-0.6,2.9c0,1.7,0.5,3.1,1.4,4.2c0.9,1.1,2.2,2,3.8,2.7
	c1.6,0.7,3.3,1.2,5.1,1.7c1.8,0.4,3.5,0.9,5.2,1.3c2.6,0.6,5.3,1.4,7.9,2.3c2.6,0.9,5,2.1,7.1,3.7c2.1,1.6,3.8,3.7,5.2,6.2
	c1.3,2.5,2,5.8,2,9.7c0,4.3-0.8,8-2.4,11.3c-1.6,3.2-3.9,5.9-6.8,8c-2.9,2.1-6.4,3.7-10.5,4.7c-4.1,1-8.5,1.5-13.4,1.5
	c-4.8,0-9.2-0.4-13-1.1c-3.9-0.8-7-1.7-9.6-2.9v-15c4.1,1.5,7.9,2.6,11.3,3.1c3.5,0.6,6.7,0.8,9.7,0.8c2.3,0,4.5-0.2,6.5-0.5
	c2-0.3,3.7-0.9,5.2-1.6c1.4-0.7,2.6-1.7,3.4-2.8C929,361,929.4,359.6,929.4,358.1z"/>
<path class="st0" d="M306.2,535.2h-0.3c-1,1.1-2.3,2.2-3.8,3.4c-1.5,1.1-3.1,2.2-5,3.3c-1.9,1-4,1.9-6.3,2.5c-2.3,0.6-4.8,1-7.5,1
	c-3.6,0-7-0.6-10.2-1.7c-3.2-1.1-5.9-2.8-8.1-4.9c-2.2-2.1-4-4.7-5.3-7.7c-1.3-3-1.9-6.4-1.9-10.1c0-4.1,0.7-7.8,2.2-11
	c1.5-3.3,3.6-6,6.3-8.3c2.7-2.3,5.9-4,9.6-5.1c3.7-1.2,7.8-1.8,12.4-1.8c3.3,0,6.3,0.2,9.1,0.6c2.8,0.4,5.2,0.9,7.3,1.5v-3.1
	c0-1.8-0.3-3.5-0.9-5.2c-0.6-1.6-1.6-3.1-2.9-4.4c-1.3-1.3-3.1-2.3-5.2-3.1c-2.2-0.8-4.8-1.1-7.9-1.1c-3.8,0-7.6,0.4-11.3,1.3
	c-3.8,0.8-7.9,2.1-12.3,3.8v-14.6c3.8-1.7,7.9-3,12.2-3.9c4.3-0.9,8.8-1.4,13.5-1.4c5.6,0,10.4,0.7,14.6,2c4.2,1.4,7.7,3.2,10.5,5.6
	c2.8,2.4,4.9,5.2,6.3,8.5c1.4,3.3,2.1,6.8,2.1,10.6v28.7c0,5,0,9.4,0.1,13c0.1,3.6,0.2,6.8,0.3,9.7H307L306.2,535.2z M304.7,510.8
	c-1.8-0.4-3.8-0.8-6.1-1.1c-2.3-0.3-4.6-0.5-7-0.5c-4.6,0-8.2,0.9-10.8,2.7c-2.7,1.8-4,4.6-4,8.3c0,1.7,0.3,3.2,0.9,4.5
	c0.6,1.3,1.4,2.4,2.4,3.2c1,0.8,2.2,1.5,3.6,1.9c1.4,0.4,2.8,0.6,4.3,0.6c1.9,0,3.7-0.2,5.4-0.8c1.7-0.5,3.2-1.1,4.6-1.9
	c1.4-0.8,2.7-1.6,3.8-2.6c1.1-0.9,2.1-1.9,2.9-2.8V510.8z"/>
<path class="st0" d="M361.4,477.6h0.3c1.1-1.6,2.5-3.1,4.2-4.6c1.7-1.5,3.6-2.9,5.8-4c2.2-1.2,4.5-2.1,7.1-2.8
	c2.6-0.7,5.4-1.1,8.3-1.1c2.8,0,5.5,0.3,8.1,0.9c2.6,0.6,5,1.6,7.1,3c2.2,1.3,4.1,3.1,5.7,5.2c1.7,2.1,3,4.7,3.9,7.6
	c0.5,1.6,0.9,3.4,1.1,5.3c0.2,1.9,0.3,4.1,0.3,6.7v49.5h-18.6v-46.6c0-2-0.1-3.8-0.2-5.3c-0.2-1.5-0.4-2.8-0.9-3.9
	c-0.9-2.4-2.4-4.1-4.3-5.2c-1.9-1-4.2-1.6-7-1.6c-3.6,0-7.1,0.9-10.4,2.5c-3.3,1.7-6.3,4.2-8.9,7.5v52.5h-18.7V467h15.4L361.4,477.6
	z"/>
<path class="st0" d="M467.5,521.1c0-1.6-0.5-3-1.4-4c-0.9-1-2.1-1.9-3.7-2.6c-1.5-0.7-3.3-1.3-5.2-1.8c-2-0.5-4-1.1-6.2-1.6
	c-2.7-0.7-5.4-1.6-7.9-2.6c-2.5-1-4.7-2.2-6.7-3.8c-1.9-1.6-3.4-3.5-4.6-5.9c-1.1-2.4-1.7-5.3-1.7-8.8c0-4.2,0.8-7.9,2.3-11.1
	c1.5-3.1,3.6-5.7,6.2-7.8c2.6-2.1,5.6-3.6,9-4.6c3.4-1,7.1-1.5,10.9-1.5c4.7,0,9.1,0.4,13.2,1.1c4.1,0.8,7.8,1.7,11.1,2.9v15.2
	c-1.7-0.6-3.6-1.1-5.5-1.6c-1.9-0.5-3.9-0.9-5.8-1.3c-2-0.4-3.9-0.7-5.9-0.9c-1.9-0.2-3.8-0.4-5.5-0.4c-2.2,0-4.1,0.2-5.6,0.6
	c-1.5,0.4-2.8,1-3.7,1.7c-1,0.7-1.6,1.5-2,2.4c-0.4,0.9-0.6,1.9-0.6,2.9c0,1.7,0.5,3.1,1.4,4.2c0.9,1.1,2.2,2,3.8,2.7
	c1.6,0.7,3.3,1.2,5.1,1.7c1.8,0.4,3.5,0.9,5.2,1.3c2.6,0.6,5.2,1.4,7.9,2.3c2.6,0.9,5,2.1,7.1,3.7c2.1,1.6,3.8,3.7,5.2,6.2
	c1.3,2.5,2,5.8,2,9.7c0,4.3-0.8,8-2.4,11.3c-1.6,3.2-3.9,5.9-6.8,8c-2.9,2.1-6.4,3.7-10.5,4.7c-4.1,1-8.5,1.5-13.4,1.5
	c-4.8,0-9.2-0.4-13-1.1c-3.9-0.8-7-1.7-9.6-2.9v-15c4.1,1.5,7.9,2.6,11.3,3.1c3.5,0.6,6.7,0.8,9.7,0.8c2.3,0,4.5-0.2,6.5-0.5
	c2-0.3,3.7-0.9,5.2-1.6c1.4-0.7,2.6-1.7,3.4-2.8C467,524.1,467.5,522.7,467.5,521.1z"/>
<path class="st0" d="M556.9,437.9v89.2h49.3v16.1h-68.6V437.9H556.9z"/>
<path class="st0" d="M661.2,530.2c3.6,0,7.4-0.4,11.3-1.1c3.9-0.7,7.9-1.8,12-3.1v14.9c-2.4,1.1-6.1,2.1-11.1,3
	c-5,0.9-10.2,1.4-15.5,1.4c-5.4,0-10.5-0.7-15.4-2.1c-4.9-1.4-9.1-3.6-12.7-6.7c-3.6-3.1-6.5-7.1-8.6-12c-2.1-4.9-3.2-10.9-3.2-18
	c0-6.9,1-13,3-18.2c2-5.2,4.7-9.5,8-12.9c3.4-3.4,7.2-6,11.5-7.7c4.3-1.7,8.8-2.6,13.4-2.6c4.8,0,9.3,0.7,13.3,2.2
	c4.1,1.5,7.6,3.8,10.6,6.9c3,3.2,5.3,7.2,6.9,12.2c1.7,5,2.5,10.8,2.5,17.6c0,2.6-0.1,4.8-0.2,6.7h-50c0.3,3.5,1,6.5,2.4,9
	c1.3,2.5,3,4.5,5.2,6.1c2.1,1.5,4.6,2.7,7.4,3.4C654.8,529.8,657.9,530.2,661.2,530.2z M653.7,479.7c-2.4,0-4.5,0.4-6.3,1.3
	c-1.8,0.9-3.4,2-4.8,3.5c-1.3,1.5-2.4,3.2-3.2,5.2c-0.8,2-1.3,4.1-1.6,6.4h30c0-2.3-0.3-4.4-0.9-6.4c-0.6-2-1.5-3.7-2.7-5.2
	c-1.2-1.5-2.6-2.7-4.4-3.5C658.1,480.1,656,479.7,653.7,479.7z"/>
<path class="st0" d="M777.8,503.8c0,6.9-1,13-3,18.3c-2,5.3-4.6,9.7-7.8,13.1c-3.2,3.4-6.9,5.9-10.9,7.6c-4.1,1.6-8.1,2.5-12.2,2.5
	c-2.9,0-5.5-0.4-7.8-1.1c-2.3-0.7-4.3-1.6-6.1-2.6c-1.7-1-3.2-2.2-4.4-3.3c-1.2-1.2-2.1-2.2-2.8-3.1h-0.3l-1.8,8.1h-15.4
	c0.1-2.3,0.2-5,0.3-8.4c0.1-3.3,0.1-6.5,0.1-9.5v-96.1h18.6V461c0,2.3,0,4.3,0,6.3c0,1.9-0.1,3.4-0.1,4.4h0.2
	c1.2-0.8,2.5-1.6,3.9-2.4c1.4-0.8,3-1.5,4.6-2.1c1.7-0.6,3.5-1.1,5.4-1.5c1.9-0.4,4-0.6,6.1-0.6c4.2,0,8.4,0.8,12.4,2.3
	c4,1.5,7.6,3.9,10.7,7.1c3.1,3.2,5.6,7.2,7.4,12.2C776.9,491.7,777.8,497.4,777.8,503.8z M758.5,504.8c0-4.8-0.6-8.9-1.7-12.3
	c-1.1-3.4-2.7-6.1-4.5-7.9c-1.9-1.8-3.8-3-5.8-3.7c-2-0.6-4-0.9-6-0.9c-2.7,0-5.5,0.6-8.3,1.7c-2.8,1.1-5.4,2.6-7.7,4.4v36.5
	c0.7,0.8,1.6,1.7,2.7,2.6c1.1,0.9,2.3,1.8,3.6,2.5c1.3,0.8,2.8,1.4,4.4,1.9c1.6,0.5,3.3,0.8,5,0.8c3.1,0,5.7-0.6,8-1.9
	c2.3-1.2,4.2-3,5.7-5.2c1.6-2.3,2.7-5,3.5-8.1C758.1,512.1,758.5,508.6,758.5,504.8z"/>
<path class="st0" d="M833.6,530.2c3.6,0,7.4-0.4,11.3-1.1c3.9-0.7,7.9-1.8,12-3.1v14.9c-2.4,1.1-6.1,2.1-11.1,3
	c-5,0.9-10.2,1.4-15.5,1.4c-5.4,0-10.5-0.7-15.4-2.1c-4.9-1.4-9.1-3.6-12.7-6.7c-3.6-3.1-6.5-7.1-8.6-12c-2.1-4.9-3.2-10.9-3.2-18
	c0-6.9,1-13,3-18.2c2-5.2,4.7-9.5,8-12.9c3.4-3.4,7.2-6,11.5-7.7c4.3-1.7,8.8-2.6,13.4-2.6c4.8,0,9.3,0.7,13.3,2.2
	c4.1,1.5,7.6,3.8,10.6,6.9c3,3.2,5.3,7.2,6.9,12.2c1.7,5,2.5,10.8,2.5,17.6c-0.1,2.6-0.1,4.8-0.2,6.7h-50c0.3,3.5,1,6.5,2.4,9
	c1.3,2.5,3,4.5,5.2,6.1c2.1,1.5,4.6,2.7,7.4,3.4C827.2,529.8,830.3,530.2,833.6,530.2z M826.1,479.7c-2.4,0-4.5,0.4-6.3,1.3
	c-1.8,0.9-3.4,2-4.8,3.5c-1.3,1.5-2.4,3.2-3.2,5.2c-0.8,2-1.3,4.1-1.6,6.4h30c0-2.3-0.3-4.4-0.9-6.4c-0.6-2-1.5-3.7-2.7-5.2
	c-1.2-1.5-2.6-2.7-4.4-3.5C830.5,480.1,828.5,479.7,826.1,479.7z"/>
<path class="st0" d="M894.1,477.6h0.3c1.1-1.6,2.5-3.1,4.2-4.6c1.7-1.5,3.6-2.9,5.7-4c2.1-1.2,4.5-2.1,7.1-2.8
	c2.6-0.7,5.4-1.1,8.3-1.1c2.8,0,5.5,0.3,8.1,0.9c2.6,0.6,5,1.6,7.1,3c2.2,1.3,4.1,3.1,5.7,5.2c1.6,2.1,2.9,4.7,3.9,7.6
	c0.5,1.6,0.9,3.4,1.1,5.3c0.2,1.9,0.3,4.1,0.3,6.7v49.5h-18.7v-46.6c0-2-0.1-3.8-0.2-5.3c-0.2-1.5-0.5-2.8-0.9-3.9
	c-1-2.4-2.4-4.1-4.3-5.2c-1.9-1-4.2-1.6-7-1.6c-3.6,0-7.1,0.9-10.4,2.5c-3.3,1.7-6.3,4.2-8.9,7.5v52.5H877V467h15.4L894.1,477.6z"/>
<path class="st0" d="M1049,164.6h54.6c14.1,0,26.3,4.8,36.4,14.2c10.1,9.5,15.2,20.9,15.2,34.2v330.2H1049V164.6z"/>
<path class="st0" d="M1244.7,543.2V104.9c0-14.2,5-26.3,14.9-36.3c10-10,22.1-14.9,36.3-14.9h179.3c50.3,0,88.7,10.4,115.3,31.3
	c26.6,22.8,39.8,53.6,39.8,92.5c0,24.7-5.2,45.5-15.7,62.6c-10.4,16.1-25.1,29-44.1,38.4c24.7,10.5,43.6,25.1,56.9,44.1
	c12.3,18,18.5,41.8,18.5,71.2c0,47.5-15.2,84.4-45.5,111c-31.3,25.6-75.4,38.4-132.3,38.4H1244.7z M1341.5,242.9h115.3
	c24.7,0,42.7-4.3,54.1-12.8c11.4-8.5,17.1-21.8,17.1-39.8c0-18-5.7-31.3-17.1-39.9c-9.5-7.6-28-11.4-55.5-11.4h-113.9V242.9z
	 M1341.5,455H1461c26.5,0,47-5.2,61.2-15.6c13.3-9.5,19.9-25.6,19.9-48.4c0-22.8-6.6-39.3-19.9-49.8c-12.3-9.5-33.2-14.2-62.6-14.2
	h-118.1V455z"/>
<path class="st0" d="M1703.2,543.2V104.9c0-14.2,5-26.3,14.9-36.3c10-10,22.1-14.9,36.3-14.9h179.3c50.3,0,88.7,10.4,115.3,31.3
	c26.5,22.8,39.8,53.6,39.8,92.5c0,24.7-5.2,45.5-15.7,62.6c-10.4,16.1-25.1,29-44.1,38.4c24.7,10.5,43.6,25.1,56.9,44.1
	c12.3,18,18.5,41.8,18.5,71.2c0,47.5-15.2,84.4-45.5,111c-31.3,25.6-75.4,38.4-132.4,38.4H1703.2z M1800,242.9h115.3
	c24.7,0,42.7-4.3,54.1-12.8c11.4-8.5,17.1-21.8,17.1-39.8c0-18-5.7-31.3-17.1-39.9c-9.5-7.6-28-11.4-55.5-11.4H1800V242.9z
	 M1800,455h119.5c26.5,0,47-5.2,61.2-15.6c13.3-9.5,19.9-25.6,19.9-48.4c0-22.8-6.6-39.3-19.9-49.8c-12.3-9.5-33.2-14.2-62.6-14.2
	H1800V455z"/>
</svg>
