<?xml version="1.0" encoding="utf-8"?>
<!-- Generator: Adobe Illustrator 26.3.1, SVG Export Plug-In . SVG Version: 6.00 Build 0)  -->
<svg version="1.1" id="Ebene_1" xmlns="http://www.w3.org/2000/svg" xmlns:xlink="http://www.w3.org/1999/xlink" x="0px" y="0px"
	 viewBox="0 0 91.25 20.92" style="enable-background:new 0 0 91.25 20.92;" xml:space="preserve">
<style type="text/css">
	.st0{fill:#0000FF;}
	.st1{clip-path:url(#SVGID_00000039117925005931994480000008557008098355684750_);fill:#0000FF;}
</style>
<polygon class="st0" points="0,2.62 0,20.62 4,20.62 4,17.07 5.36,15.61 8.32,20.62 12.76,20.62 8.12,13.15 12.64,8.21 8.02,8.21 
	4,13.08 4,2.62 "/>
<g>
	<defs>
		<rect id="SVGID_1_" y="0" width="91.25" height="20.92"/>
	</defs>
	<clipPath id="SVGID_00000123414377734412113520000016066000161544964498_">
		<use xlink:href="#SVGID_1_"  style="overflow:visible;"/>
	</clipPath>
	<path style="clip-path:url(#SVGID_00000123414377734412113520000016066000161544964498_);fill:#0000FF;" d="M21.03,15.88v-0.99
		l-2.14,0.35c-1.46,0.27-2.14,0.79-2.14,1.71c0,0.87,0.7,1.44,1.74,1.44C20.01,18.39,21.03,17.37,21.03,15.88 M12.74,17.25
		c0-1.17,0.42-2.09,1.27-2.68c0.82-0.57,2.01-0.97,3.9-1.22l3.01-0.42v-0.42c0-1.42-0.6-2.04-1.84-2.04c-1.22,0-1.91,0.64-1.99,1.84
		h-3.95c0.2-2.76,2.43-4.4,5.96-4.4c4,0,5.78,1.57,5.78,5.14v4.12c0,1.47,0.12,2.68,0.35,3.45h-3.87c-0.12-0.6-0.17-1.27-0.2-1.96
		c-0.62,1.39-2.21,2.26-4.15,2.26C14.45,20.92,12.74,19.46,12.74,17.25"/>
	<path style="clip-path:url(#SVGID_00000123414377734412113520000016066000161544964498_);fill:#0000FF;" d="M26.84,8.21h3.82v2.38
		c0.87-1.81,2.23-2.71,4.12-2.71c2.68,0,4.05,1.71,4.05,5.04v7.7h-3.97v-7.15c0-1.71-0.6-2.53-1.86-2.53
		c-1.39,0-2.16,1.07-2.16,2.98v6.7h-4V8.21z"/>
	<path style="clip-path:url(#SVGID_00000123414377734412113520000016066000161544964498_);fill:#0000FF;" d="M48.49,15.88v-0.99
		l-2.14,0.35c-1.46,0.27-2.13,0.79-2.13,1.71c0,0.87,0.69,1.44,1.74,1.44C47.48,18.39,48.49,17.37,48.49,15.88 M40.2,17.25
		c0-1.17,0.42-2.09,1.27-2.68c0.82-0.57,2.01-0.97,3.9-1.22l3.01-0.42v-0.42c0-1.42-0.6-2.04-1.84-2.04c-1.22,0-1.91,0.64-1.99,1.84
		H40.6c0.2-2.76,2.43-4.4,5.96-4.4c4,0,5.78,1.57,5.78,5.14v4.12c0,1.47,0.12,2.68,0.35,3.45h-3.87c-0.12-0.6-0.17-1.27-0.2-1.96
		c-0.62,1.39-2.21,2.26-4.15,2.26C41.91,20.92,40.2,19.46,40.2,17.25"/>
</g>
<polygon class="st0" points="54.21,3.43 54.21,20.62 58.21,20.62 58.21,2.7 "/>
<polygon class="st0" points="65.98,9.75 65.76,10 65.69,10.07 65.69,9.98 65.69,9.64 65.69,1.25 61.75,1.98 61.76,20.66 
	65.69,20.66 65.69,15.42 65.69,15.37 65.69,15.35 65.7,15.34 65.73,15.3 68.55,12.35 68.67,12.23 68.71,12.19 68.73,12.23 
	68.82,12.38 73.71,20.66 78.52,20.66 71.62,9.31 71.57,9.23 71.55,9.2 71.57,9.18 71.64,9.11 74.78,5.81 74.84,0 "/>
<polygon class="st0" points="75.47,8.47 75.47,10.06 91.25,8.27 91.25,6.68 "/>
<polygon class="st0" points="77.69,14.92 86.68,16.95 86.68,15.36 77.69,13.34 "/>
<polygon class="st0" points="86.68,16.95 77.69,14.92 77.69,13.34 86.68,15.36 "/>
<polygon class="st0" points="81.1,12.28 90,13.16 90,11.57 81.1,10.69 "/>
<polygon class="st0" points="90,13.16 81.1,12.28 81.1,10.69 90,11.57 "/>
<polygon class="st0" points="84.59,2.38 79.61,4.18 79.61,5.77 84.59,3.97 "/>
</svg>
