<?xml version="1.0" encoding="utf-8"?>
<!-- Generator: Adobe Illustrator 26.3.1, SVG Export Plug-In . SVG Version: 6.00 Build 0)  -->
<svg version="1.1" id="Ebene_1" xmlns="http://www.w3.org/2000/svg" xmlns:xlink="http://www.w3.org/1999/xlink" x="0px" y="0px"
	 viewBox="0 0 1181 397.7" style="enable-background:new 0 0 1181 397.7;" xml:space="preserve">
<style type="text/css">
	.st0{fill:#0000FF;}
</style>
<g id="TM7Web.tif">
	<g>
		<path class="st0" d="M189.6,1.4c1.1,0.5,1.8,0.8,2.7,1.1c0.1-0.9,0.3-1.7,0.4-2.6c28,0,56,0,84.1,0c0.2,0.8,0.4,1.5,0.5,1.9
			c2.5,0.3,4.8,0.9,7.1,0.9c52.1,0,104.2,0,156.2,0c34.3,0,68.7-0.1,103-0.1c34.8,0,69.7,0.1,104.5,0.1c37.4,0,74.8,0,112.2-0.1
			c41.4,0,82.8,0,124.2,0c32.7,0,65.3-0.1,98-0.2c2,0,3.2,0.5,4.3,2.4c10.5,17.2,21.1,34.3,31.6,51.5c9.4,15.3,18.9,30.6,28.3,45.9
			c0.2,0.3,0.3,0.7,0.7,1.6c-236.3,0-472.2,0-708.8,0c2.1,3.9,3.8,7.2,5.7,10.4c0.3,0.5,1.7,0.5,2.5,0.5c18.9,0,37.8,0,56.7,0
			c18.9,0,37.8-0.1,56.7-0.1c38.2,0,76.5,0,114.7,0c71.5,0,143,0,214.5,0c35.2,0,70.3,0,105.5,0c50.7,0,101.3,0,152-0.1
			c2.8,0,4.4,0.7,5.9,3.2c18.3,29.8,36.7,59.5,55.1,89.2c1.9,3.1,3.9,6.1,6.2,9.8c-237.1,0-473.6,0-710.9,0c2.2,3.9,3.9,7.3,6,10.4
			c0.6,0.9,2.3,1.4,3.4,1.4c20.7,0.1,41.5,0.1,62.2,0c30,0,59.9,0,89.9-0.1c20.9,0,41.8-0.1,62.7-0.1c24.5,0,48.9,0,73.4,0
			c39.6,0,79.1,0,118.7,0c20.2,0,40.3,0.1,60.5,0.1c15.3,0,30.6,0,46,0c18.2,0,36.5,0,54.7,0c25.9,0,51.8-0.1,77.7-0.1
			c19.1,0,38.2,0,57.2,0c1.8,0,2.8,0.6,3.8,2.1c17,27.5,34,55.1,51.1,82.6c3.3,5.4,6.7,10.7,10.4,16.6c-3.5,0-6.6,0-9.7,0
			c-41.1,0-82.1-0.1-123.2-0.1c-29.9,0-59.8,0-89.7,0c-52,0-104.1,0.1-156.1,0.1c-78.9,0-157.8,0.1-236.7,0.1c-31.3,0-62.7,0-94-0.1
			c-2.3,0-3.8,1-4.8,2.8c-6.9,13.1-13.8,26.3-20.7,39.4c-2.8,5.3-5.5,10.6-8.4,15.8c-1.6,3-3.6,5.7-5,7.8c-1.3,0.6-2,1.1-2.8,1.3
			c-0.8,0.2-1.6,0.3-2.4,0.3c-33.2,0-66.3,0-99.5,0c-32.7,0-65.3,0-98,0c-30.3,0-60.7-0.2-91-0.2c-30.7,0-61.3,0.2-92,0.2
			c-1.5,0-3.4,0.7-3.9-1.9c-3.2,1.7-3.6-0.8-4.7-2.6c-3.5-5.7-7.3-11.3-11-16.9c-8.6-13.2-17.2-26.3-25.7-39.5
			c-0.7-1-0.7-2.4-1.7-3.8C63.2,222.1,126.4,111.8,189.6,1.4z M198.5,18.4c-0.6-0.8-1.3-1.6-1.9-2.5c-1.3-2.2-2.6-4.4-4.1-7.1
			c-1.9,3.2-3.5,6-5.1,8.8c-9.7,16.8-19.4,33.6-29,50.4c-0.4,0.8-0.8,2-0.5,2.7c0.7,1.7,1.8,3.3,2.9,5.4c0.7-1.2,1.2-1.9,1.7-2.6
			c9.8-17.5,19.6-35,29.4-52.5c0.6-1.2,1.2-2.7,2.2-3.2c0.9-0.4,2.4,0.4,3.6,0.7C198,18.5,198.3,18.4,198.5,18.4
			c-2.9,5.1-6,10.1-8.8,15.3c-8.4,15-16.8,30-25.1,45.1c-0.4,0.7-0.7,1.9-0.4,2.5c1.2,2.3,2.7,4.5,4.2,6.9c0.6-0.7,0.9-1.1,1.2-1.5
			c10.3-18.4,20.7-36.8,31-55.2c1-1.8,1.8-3.2,4.2-1.3c-0.7-1.6-1.4-2.7-2-3.9C201.3,23.6,199.9,21,198.5,18.4z M348.3,132.9
			c-4.8-8.4-9.4-16.4-13.9-24.3c-12.8-22.4-25.6-44.8-38.6-67.1c-6.6-11.4-13.5-22.8-20.3-34.1c-0.4-0.7-1.5-1.4-2.3-1.4
			c-5.5-0.1-11-0.1-16.5-0.1c-18.1,0-36.2,0-54.2,0c-1.4,0-2.7,0-4.5,0c0.5,1.2,0.8,1.9,1.2,2.6c7,12,14.1,24,21.1,35.9
			c6.7,11.4,13.4,22.8,20.2,34.2c5.1,8.6,10.4,17.2,15.5,25.9c5.2,8.9,10.3,17.9,15.5,26.8c0.4,0.8,1.6,1.5,2.4,1.5
			c9.7,0.2,19.4,0.3,29.1,0.4c9.6,0,19.1-0.2,28.7-0.2C337.1,132.9,342.5,132.9,348.3,132.9z M276.4,265.6c0.7,1.5,1.2,2.5,1.8,3.5
			c6.4,10.6,12.9,21.2,19.3,31.8c5.4,8.8,10.7,17.6,16.2,26.4c0.5,0.8,1.7,1.7,2.6,1.7c5.1,0.2,10.2,0.2,15.3,0.1
			c7.6,0,15.1-0.2,22.7-0.2c8.1,0,16.3,0.3,24.4,0.3c11.7,0,23.4-0.2,35.2-0.2c14.9,0,29.8,0,44.7,0.1c0.7,0,1.4-0.1,2.4-0.2
			c-2.1-3.7-4.1-7.1-6-10.4c-9.8-16.9-19.5-33.9-29.3-50.8c-0.8-1.4-1.7-2-3.4-2c-5.2,0.1-10.3,0-15.5,0c-39.3,0-78.7,0-118,0
			C284.9,265.6,280.9,265.6,276.4,265.6z M421,259.7c-2.5-4.5-4.7-8.3-6.9-12.1c-9.3-16.2-18.6-32.5-28-48.7
			c-11-19.2-22-38.4-33-57.6c-0.9-1.7-2-2.3-3.9-2.3c-11.7,0.1-23.5,0.1-35.2,0.1c-9.2,0-18.4-0.1-27.7-0.2c-3.2,0-6.4,0-10.2,0
			c1.6,2.9,2.7,5.1,3.9,7.2c8.1,13.6,16.2,27.3,24.3,40.9c13.7,23.1,27.5,46.1,41.1,69.3c1.6,2.7,3.3,3.4,6.3,3.4
			c18.2-0.1,36.3,0,54.5,0C411,259.7,415.7,259.7,421,259.7z M79,206.7c-0.6,1-1.1,1.7-1.5,2.4c-5.9,10.3-11.8,20.6-17.7,31
			C42.5,270.3,25.3,300.4,8,330.5c-1.1,2-1,3.4,0.2,5.2c10,15.2,19.8,30.4,29.8,45.6c1.4,2.2,2.9,4.3,4.5,6.7
			c0.7-1.1,1.1-1.7,1.5-2.5c11.6-20.2,23.2-40.4,34.8-60.6c11.7-20.3,23.2-40.8,35-61c1.4-2.5,1.1-4.1-0.3-6.2
			c-7.8-11.3-15.4-22.7-23.1-34.1C86.6,218,82.9,212.5,79,206.7z M118.8,254.9c1.2-2,2.1-3.6,3-5.2c11-19.2,22-38.4,33-57.5
			c11-19,21.9-38,33-57c0.8-1.4,0.6-2.4-0.2-3.6c-9-14.8-18-29.7-27-44.6c-2.1-3.5-4.4-7-6.7-10.8c-0.6,1-1.1,1.5-1.5,2.2
			c-5.4,9.3-10.8,18.6-16.1,27.9c-10.4,18.2-20.8,36.4-31.2,54.6c-7.3,12.7-14.5,25.4-21.7,38.2c-0.5,0.9-0.4,2.5,0,3.4
			c0.8,1.8,2,3.4,3.1,5.1c6.3,9.3,12.7,18.5,19,27.8C109.9,241.7,114.2,248.1,118.8,254.9z M162.3,328.9c24.7-0.9,48.6,0.2,72.4,0.1
			c24-0.1,48,0.3,72.5-0.2c-0.7-1.3-1-1.9-1.3-2.6c-12-19.7-24-39.5-36.1-59.2c-0.5-0.8-1.8-1.4-2.8-1.4
			c-22.2-0.1-44.3-0.1-66.5-0.1c-0.9,0-2.3,0.7-2.7,1.5c-6,10.2-11.9,20.4-17.8,30.6c-0.3,0.5-0.4,1.1-0.7,1.8
			c0.8,0.1,1.3,0.1,1.8,0.2c4,0.7,8.1,0.8,11.5,3.4c2.3,1.8,2.6,4.3,0.3,6.1c-1.9,1.5-4.2,2.8-6.6,3.3c-4.4,0.8-8.9,0.9-13.4,1.2
			c-1.3,0.1-2.6-0.1-3.4,1.5c-1.6,3.1-3.5,6-5.2,9.1C163.8,325.5,163.2,326.9,162.3,328.9z M659.2,249.6c-5.7,0-11.1,0.1-16.5-0.1
			c-2.3-0.1-3.2,0.8-3.8,2.8c-2,6.9-4.3,13.8-6.4,20.7c-2.2,7-4.4,14.1-6.5,21.1c-0.2,0-0.3,0-0.5,0.1c-4.7-14.8-9.5-29.6-14.2-44.4
			c-6.4,0-12.7,0-19,0c0,20,0,39.9,0,59.7c4,0,7.6,0,11.4,0c0-16.2,0-32.2,0-48.7c0.4,0.7,0.7,1.1,0.8,1.4c5,15.1,10,30.3,15,45.4
			c0.5,1.4,1,2.1,2.6,2c2.7-0.1,5.3,0.1,8-0.1c0.7,0,1.8-0.8,2.1-1.5c4.1-12.6,8.1-25.3,12.2-37.9c1-3,2-6,3-9.1
			c0.2,0,0.5,0.1,0.7,0.1c0,16.1,0,32.2,0,48.3c4.1,0,7.7,0,11.3,0C659.2,289.5,659.2,269.7,659.2,249.6z M269.5,260.7
			c-11.6-19.7-23.1-39-34.8-58.9c-12.3,19.9-24.1,39.2-36.3,58.9C222.5,260.7,245.7,260.7,269.5,260.7z M843.1,293.7
			c-7.4-14.3-14.6-28.3-21.7-42.2c-0.7-1.4-1.5-2.2-3.2-2.1c-3.4,0.1-6.8,0.1-10.2,0c-1.8,0-2.5,0.5-2.4,2.4
			c0.1,5.8,0.1,11.7,0.1,17.5c0.1,12.6,0.1,25.1,0.3,37.7c0,0.8,0.9,2.2,1.4,2.2c3.3,0.2,6.6,0.1,10,0.1c0-14.8,0-29.4,0-44.5
			c0.7,1.2,1.1,2,1.5,2.7c6.8,13.3,13.6,26.6,20.5,39.9c0.4,0.8,1.3,1.7,2,1.8c4.5,0.2,8.9,0.1,13.3,0.1c0-20.1,0-40,0-60.1
			c-2.9,0-5.5,0-8.1,0c-3.5,0-3.5,0-3.5,3.6C843.1,266.4,843.1,279.8,843.1,293.7z M395.5,54.2c0,0,0-0.1,0-0.1
			c0.6-0.2,1.2-0.5,1.8-0.7c4.3-1.8,7.4-4.7,8.3-9.5c1.7-9.3-3.3-16.8-12.8-17.7c-8-0.8-16.1-0.3-24.2-0.6c-2.3-0.1-3,0.8-3,3
			c0.1,17.4,0.2,34.9,0.2,52.3c0,1.5,0.1,2.9,0.2,4.4c8.2,0,16.2,0.2,24-0.1c3.1-0.1,6.4-1.1,9.3-2.5c5.8-2.7,8.2-7.8,8.4-13.9
			c0.2-5.2-2-9.4-6.6-12.1C399.5,55.6,397.5,55,395.5,54.2z M746.3,275.1c-8.4,0-16.2,0-24.5,0c0,2.5,0.1,4.8,0,7.1
			c-0.1,1.9,0.6,2.4,2.5,2.4c3.4-0.1,6.7,0,10.3,0c0,5.4,0,10.3,0,15.5c-5.8,1.2-11.5,1.5-16.8-1.1c-8.3-4-11.2-11.2-11.1-19.8
			c0.1-8.5,3.5-15.3,11.6-19.1c5-2.3,10.3-2.4,15.7-1.6c3.2,0.5,6.4,1.5,9.7,2.3c0.2-2.6,0.3-5.1,0.6-7.5c0.3-1.9-0.5-2.6-2.3-3
			c-7.7-1.9-15.5-2.3-23.3-1.1c-8.8,1.4-15.9,5.5-20.5,13.5c-3.7,6.5-4.4,13.5-3.9,20.8c0.8,11.5,5.9,20.2,17.1,24.4
			c11.2,4.2,22.6,3,33.8-0.2c0.5-0.2,1.2-1.1,1.2-1.8C746.3,295.7,746.3,285.6,746.3,275.1z M579.4,60.3c0,5,0.1,9.6-0.1,14.3
			c0,0.6-1,1.6-1.6,1.6c-3.3,0.2-6.7,0.6-9.9,0.2c-5.6-0.7-10.1-3.5-13.1-8.5c-3.8-6.3-4.2-13.1-2.1-19.9c0.9-3.1,2.9-6.3,5.2-8.6
			c6.2-6,13.9-6.4,21.9-4.9c2.8,0.5,5.6,1.4,8.5,2.1c0.3-3.3,0.6-6.5,0.9-9.6c-0.6-0.3-1.1-0.5-1.5-0.7c-7.9-2-15.9-2.7-24-1.4
			c-8.4,1.4-15.6,5.2-20.2,12.7c-3.8,6.1-4.7,12.8-4.6,19.8c0.2,12.9,6,22,17.6,26.3c11,4.1,22.3,2.7,33.3-0.4
			c0.6-0.2,1.1-1.5,1.1-2.3c0.1-6.8,0.1-13.7,0.1-20.5c0-3.2,0-6.4,0-9.7c-8.3,0-16,0-24,0c0,3.1,0,6.1,0,9.3
			C571.2,60.3,575.1,60.3,579.4,60.3z M536.2,309.7c-2.9-7.2-5.7-13.9-8.4-20.5c-1.5-3.6-2.6-7.5-6.4-9.2c2-1.1,4.3-1.9,6-3.3
			c4.9-4.1,6-9.5,4.5-15.6c-1.6-6.5-6.2-10-12.5-10.5c-9.2-0.7-18.4-0.6-27.7-0.8c-0.1,0-0.2,0.2-0.5,0.4c0,6.9,0,14,0,21.1
			c0,12.1,0.1,24.1,0.1,36.2c0,1.7,0.6,2.2,2.2,2.2c2.5,0,5-0.1,7.5,0c2.1,0.1,2.7-0.7,2.6-2.7c-0.1-7.4,0-14.8,0-22.2
			c8-0.8,9.6,0.2,12.5,7.8c2,5.1,4,10.2,6.1,15.3c0.3,0.7,1.1,1.6,1.7,1.6C527.8,309.7,531.8,309.7,536.2,309.7z M763.2,85.1
			c0-8.7,0-17.2,0-25.8c8.1,0,15.9,0,23.9,0c0,1,0,1.8,0,2.6c0,7,0,14,0,21c0,1-0.4,2.3,1.4,2.3c3.5,0,6.9,0,10.4,0
			c0-20.1,0-40,0-59.8c-4,0-7.8,0-11.9,0c0,8,0,15.9,0,23.9c-8.1,0-15.9,0-24,0c0-8,0-15.9,0-23.8c-4.1,0-7.9,0-11.7,0
			c0,20,0,39.7,0,59.6C755.3,85.1,759,85.1,763.2,85.1z M650.7,140.7c0,2.9,0,5.3,0,7.8c0,16.6,0.1,33.1,0.1,49.7
			c0,1.7,0.5,2.4,2.3,2.3c3.1-0.1,6.3,0,9.7,0c0-8.9,0-17.6,0-26.3c8.1,0,15.9,0,23.8,0c0.1,0.9,0.1,1.6,0.1,2.3
			c0,7.2,0,14.3,0.1,21.5c0,1.1-0.4,2.5,1.5,2.5c3.4,0,6.8,0,10.4,0c0-1.2,0-2.1,0-2.9c0-9.4,0-18.8,0-28.2c0-8.8-0.1-17.7,0-26.5
			c0-1.8-0.5-2.5-2.4-2.4c-2.4,0.2-4.8,0.1-7.2,0c-1.8-0.1-2.5,0.4-2.5,2.3c0.1,5.2,0.1,10.3,0.1,15.5c0,2,0,4.1,0,6.1
			c-8.3,0-16,0-24,0c0-8,0-15.8,0-23.7C658.6,140.7,654.8,140.7,650.7,140.7z M528.8,200.7c-0.3-0.9-0.4-1.7-0.7-2.3
			c-7.3-18.7-14.7-37.3-22-56c-0.5-1.3-1.2-1.8-2.6-1.7c-3.4,0.1-6.8-0.1-10.2,0.1c-0.7,0-1.8,0.8-2.1,1.5
			c-7.2,18.5-14.3,37-21.4,55.6c-0.3,0.8-0.5,1.6-0.9,2.9c4,0,7.6,0.1,11.2-0.1c0.6,0,1.5-1,1.7-1.7c1.3-3.3,2.6-6.6,3.7-10
			c0.5-1.5,1.3-2,2.9-2c6.7,0.1,13.3,0.1,20,0c1.6,0,2.4,0.6,2.9,2c1.2,3.4,2.4,6.7,3.8,10c0.3,0.7,1.2,1.7,1.9,1.7
			C520.9,200.8,524.7,200.7,528.8,200.7z M867,85.2c-0.2-0.8-0.3-1.3-0.5-1.7c-4.2-10.7-8.4-21.5-12.6-32.2
			c-3-7.7-6.2-15.4-9.2-23.1c-0.8-2-1.6-3.2-4.1-3c-2.6,0.2-5.3,0.2-8,0c-1.9-0.1-2.9,0.5-3.6,2.4c-6.6,17.2-13.3,34.4-19.9,51.5
			c-0.7,1.9-1.3,3.8-2,6.1c3.8,0,7.1-0.1,10.4,0c1.6,0.1,2.1-0.7,2.6-2c1.2-3.4,2.6-6.7,3.7-10c0.4-1.3,1-1.7,2.3-1.7
			c6.9,0,13.8,0,20.7,0c1.3,0,1.8,0.5,2.3,1.7c1.2,3.5,2.5,6.9,3.9,10.2c0.3,0.7,1.1,1.6,1.8,1.7C858.9,85.3,862.8,85.2,867,85.2z
			 M472.3,85.3c-0.5-1.4-0.8-2.4-1.2-3.4c-7.2-18.1-14.4-36.3-21.5-54.4c-0.7-1.7-1.6-2.1-3.1-2.1c-2.8,0.1-5.7,0.3-8.5,0.1
			c-2.4-0.2-3.3,0.8-4.1,2.9c-5.9,15.5-11.9,30.9-17.8,46.3c-1.3,3.4-2.6,6.9-4,10.6c3.7,0,7.1-0.1,10.4,0c1.5,0,2.2-0.5,2.7-1.9
			c1.2-3.4,2.6-6.7,3.8-10c0.5-1.2,1.1-1.8,2.5-1.7c6.7,0.1,13.5,0.1,20.2,0c1.6,0,2.3,0.4,2.9,1.9c1.1,3.4,2.5,6.7,3.9,10
			c0.3,0.7,1.3,1.6,2,1.6C464.4,85.3,468.2,85.3,472.3,85.3z M584.9,140.7c-4.3,0-8.1,0-12,0c-0.1,1.1-0.1,1.9-0.1,2.7
			c0,10.5,0.1,21,0,31.5c0,2.9-0.4,5.8-1.1,8.6c-1.3,5.4-4.4,7.8-9.8,8.4c-5.2,0.6-9.5-1.5-11.7-6.2c-1-2.3-1.7-4.9-1.8-7.4
			c-0.3-9.2-0.2-18.3-0.2-27.5c0-3.3,0-6.6,0-10c-4.1,0-7.9,0-11.7,0c-0.1,0.6-0.2,1-0.2,1.4c0,13.1-0.1,26.2,0.2,39.2
			c0.2,11.3,6.8,18.4,18,19.6c4.7,0.5,9.7,0.4,14.4-0.4c10.1-1.7,15.8-8.9,16-19c0.1-3.7,0.2-7.5,0.2-11.2
			C584.9,160.6,584.9,150.8,584.9,140.7z M479.6,25.6c0,5,0,9.8,0,14.6c0.1,9.2,0,18.5,0.5,27.7c0.4,7.6,4,13.6,11.5,16.4
			c7,2.6,14.2,2.7,21.4,1c9.9-2.3,14.9-8.6,15.1-18.9c0.2-7.5,0.1-15,0.1-22.5c0-6.1,0-12.3,0-18.4c-4.2,0-8,0-12.1,0
			c0,1,0,1.8,0,2.5c0,10.4,0,20.9,0,31.3c0,2.5-0.1,5-0.4,7.5c-0.7,5.5-4.6,9.3-9.7,9.8c-6.4,0.7-10.8-1.6-12.7-7.2
			c-1-3.1-1.5-6.5-1.6-9.8c-0.2-10.5-0.1-21-0.1-31.5c0-0.9,0-1.8,0-2.7C487.5,25.6,483.7,25.6,479.6,25.6z M758.6,249.7
			c0,1.2,0,2.1,0,3c0,18.1,0.1,36.3,0.1,54.4c0,1.8,0.6,2.5,2.5,2.4c10.6-0.1,21.1,0,31.7-0.1c0.5,0,1.5-0.6,1.5-1
			c0.1-2.8,0.1-5.6,0.1-8.7c-8,0-15.7,0-23.3,0c0-5.7,0-11,0-16.7c7,0,13.9,0,20.7,0c0-3.3,0-6.2,0-9.5c-7.2,0-14.1,0-20.9,0
			c0-5,0-9.6,0-14.5c7.8,0,15.4,0,23.1,0c0-3.2,0-6.2,0-9.3C782.2,249.7,770.5,249.7,758.6,249.7z M615.9,75.6c0-5.6,0-11,0-16.6
			c7.1,0,14.1,0,21.1,0c0-3.3,0-6.3,0-9.7c-7.1,0-14.1,0-21.2,0c0-4.9,0-9.5,0-14.4c7.7,0,15.2,0,22.9,0c0-3.4,0-6.4,0-9.5
			c-11.8,0-23.3,0-34.7,0c0,20,0,39.8,0,59.5c11.9,0,23.5,0,35.1,0c0-3.2,0-6.1,0-9.4C631.2,75.6,623.6,75.6,615.9,75.6z
			 M544.8,249.8c0,20.1,0,39.9,0,59.8c11.9,0,23.5,0,35.3,0c0-3.2,0-6.3,0-9.6c-7.8,0-15.5,0-23.2,0c0-5.7,0-11.1,0-16.7
			c7.1,0,13.9,0,20.9,0c0-3.2,0-6.2,0-9.5c-7.1,0-14,0-20.9,0c0-4.9,0-9.6,0-14.6c7.7,0,15.2,0,22.7,0c0-3.3,0-6.2,0-9.3
			C567.9,249.8,556.4,249.8,544.8,249.8z M287.9,170.6c-0.7,1.1-1.1,1.7-1.5,2.3c-6.1,10.9-12.2,21.8-18.2,32.7
			c-4,7.1-7.9,14.3-11.8,21.5c-0.7,1.2-1.3,3.3-0.8,4.3c4.2,7.5,8.8,14.9,13.4,22.6c0.6-1,1.1-1.7,1.4-2.4
			c4.8-8.7,9.6-17.5,14.5-26.2c5.4-9.8,10.8-19.5,16.2-29.3c0.4-0.7,0.6-1.9,0.3-2.5c-1.7-3.1-3.5-6-5.4-9.1c-0.3,0.4-0.6,0.7-0.7,1
			c-9.7,17.6-19.5,35.3-29.2,52.9c-1.7,3-2,3.1-5.2,0.7c2.8-5.1,5.5-10.2,8.3-15.3c7.8-14.1,15.6-28.1,23.3-42.1
			c0.3-0.6,0.8-1.5,0.5-2C291.5,176.7,289.8,173.9,287.9,170.6z M683.4,36.3c0.3-2.8,0.6-5.4,0.9-7.9c0.2-1.5-0.3-2.2-1.9-2.6
			c-5.7-1.5-11.5-1.9-17.3-1.1c-14.1,2-18.3,14.4-14.6,24.2c1.7,4.7,5.6,7.3,9.9,9.3c4,1.8,8.2,3.4,12,5.5c4.2,2.4,4,8.1,0,10.8
			c-4.2,2.8-8.7,2.5-13.2,1.4c-2.5-0.6-5-1.6-7.8-2.6c-0.3,3.3-0.7,6.4-0.8,9.6c0,0.4,0.8,1.2,1.3,1.4c7.5,1.9,15,2.6,22.6,0.9
			c11.5-2.6,15.2-12.5,12.9-21.8c-1.4-5.9-5.9-9-11.1-11.3c-3.4-1.5-6.9-2.8-10.3-4.4c-2.1-1-3.9-2.5-4-5.2
			c-0.1-4.6,2.2-7.5,6.8-8.3C673.8,33.2,678.4,34.7,683.4,36.3z M641,151.8c0.2-2.8,0.4-5.5,0.7-8.2c0.2-1.5-0.7-1.8-1.8-2.1
			c-6.7-2-13.5-2.4-20.2-1.1c-10.2,1.9-18,7.1-21.9,17.2c-2.6,6.8-2.8,13.8-1.7,20.9c1.4,8.9,6,15.6,14.3,19.5
			c10.3,4.8,20.9,4.4,31.7,1.7c-0.2-3.4-0.5-6.6-0.7-9.8c-16.4,4.9-24.5,0.8-29.2-5.5c-5.5-7.4-5.7-19.3-0.2-27
			C619.6,146.6,630.1,147.9,641,151.8z M741.4,36.1c0.2-2,0.4-4.3,0.8-6.6c0.3-2.1-0.4-3-2.5-3.6c-6-1.7-12-2-18-1.1
			c-10.1,1.5-18.3,6.2-22.6,15.9c-3.4,7.7-3.7,15.8-2.1,23.9c1.9,9.2,7.4,15.5,16,18.9c9.3,3.6,18.9,3.1,28.5,1.1
			c0.4-0.1,1-0.6,1-0.9c-0.1-3-0.3-6-0.5-8.8c-4.1,0.6-7.7,1.5-11.4,1.7c-7,0.5-13.2-1.5-17.6-7.3c-3.6-4.7-4.5-10.3-4.2-16.1
			c0.5-11.6,8.9-19.7,20.4-19.3C733.1,34.1,737.1,35.3,741.4,36.1z M874.9,25.3c0,20.1,0,39.8,0,59.7c4,0,7.8,0,11.9,0
			c0-8.7,0-17.2,0-26c6.9,0,13.4,0,20.2,0c0-2.4-0.1-4.5,0-6.7c0.2-2.2-0.5-3.1-2.9-3c-5.7,0.2-11.4,0.1-17.3,0.1c0-5,0-9.7,0-14.6
			c7,0,13.8,0,20.8,0c0-3.3,0-6.4,0-9.5C896.7,25.3,886,25.3,874.9,25.3z M928.4,85c4.4,0,8.2,0,12.2,0c0-16.8,0-33.4,0-50.3
			c5.8,0,11.3,0,17,0c0-1.2,0-2,0-2.8c0-6.6,0-6.7-6.6-6.7c-12.5,0-25,0.1-37.5,0c-1.8,0-2.3,0.6-2.2,2.3c0.1,1.7,0.1,3.3,0,5
			c-0.2,1.9,0.7,2.4,2.4,2.4c4.8-0.1,9.6,0,14.7,0C928.4,51.8,928.4,68.3,928.4,85z M432,140.7c0,19.9,0,39.6,0,59.6
			c11.9,0,23.5,0,35.2,0c0-3.1,0-6.2,0-9.6c-7.8,0-15.4,0-23.2,0c0-16.9,0-33.4,0-50C439.9,140.7,436.2,140.7,432,140.7z
			 M712.7,140.7c-0.1,0.6-0.2,0.9-0.2,1.3c0,18.8,0.1,37.6,0,56.4c0,1.6,0.5,2.2,2.2,2.2c7.7,0,15.5,0,23.2,0c3.2,0,6.4,0,9.6,0
			c0-3.6,0-6.6,0-9.9c-7.7,0-15.3,0-23.1,0c0-16.9,0-33.4,0-50C720.4,140.7,716.7,140.7,712.7,140.7z M252.1,226.1
			c10.8-19.4,21.2-38.3,31.7-57.2c1.1,0.3,2.1,0.6,3.6,1.1c-2.9-4.9-5.6-9.4-8.5-14.3c-0.8,1.4-1.5,2.3-2,3.4
			c-3.9,7-7.8,14.1-11.7,21.1c-6.2,11.1-12.4,22.2-18.5,33.4c-0.4,0.8-0.7,2.2-0.3,2.9C248,219.6,250,222.6,252.1,226.1z
			 M228.7,70.4c-2.2,4-4.2,7.4-6.1,10.9c-9,16.3-18.1,32.5-27.1,48.8c-0.3,0.6-0.6,1.6-0.3,2.1c1.6,3,3.4,6,5.5,9.6
			c11.1-19.9,21.8-39.2,32.6-58.5c1.2,0.4,2.2,0.8,3.9,1.4C234.2,79.7,231.6,75.3,228.7,70.4z M754.6,140.7c0,19.9,0,39.6,0,59.5
			c4.1,0,7.9,0,11.6,0c0-20.1,0-39.8,0-59.5C762,140.7,758.3,140.7,754.6,140.7z M213.1,43.8c-0.8,1.5-1.4,2.5-2,3.5
			c-9.6,16.8-18.8,33.8-28.9,50.4c-3.3,5.5-3.6,9.6,0.4,14.3c0.1,0.1,0.2,0.3,0.3,0.4c1.4,2.1,1.7,2.2,2.9,0.1
			c2.3-3.9,4.5-7.8,6.7-11.7c7.9-14,15.7-28,23.6-41.9c0.7-1.2,2-2,3-3c0.3,0.1,0.7,0.1,1,0.2C217.9,52.1,215.7,48.2,213.1,43.8z
			 M672.1,249.6c0,2.4,0,4.5,0,6.6c0.1,9.5,0.2,19,0.3,28.5c0,7.6,0.1,15.1,0,22.7c0,1.7,0.5,2.4,2.3,2.3c2.2-0.1,4.5-0.2,6.7,0
			c2.3,0.2,3-0.6,2.9-2.9c-0.2-12.5-0.2-25-0.3-37.5c0-6.5,0-13,0-19.7C680,249.6,676.2,249.6,672.1,249.6z M224.8,181.8
			c0.9-1.4,1.3-2.1,1.7-2.8c4.3-7.8,8.6-15.5,13-23.3c6.1-10.9,12.2-21.8,18.2-32.7c0.4-0.7,0.7-1.9,0.4-2.5c-1.6-3.1-3.4-6-5.4-9.5
			c-0.9,1.5-1.6,2.4-2.1,3.4c-5.2,9.5-10.4,18.9-15.6,28.4c-4.9,9-9.9,17.9-14.9,26.8c-0.4,0.8-0.9,2-0.6,2.7
			C221.1,175.4,222.8,178.3,224.8,181.8z M216.2,167.5c0.8-1.3,1.3-1.9,1.7-2.7c3.1-5.4,6.1-10.9,9.1-16.3
			c7.3-13.2,14.6-26.5,21.9-39.7c0.4-0.8,1-1.9,0.7-2.5c-1.5-3.1-3.3-6-5.2-9.3c-0.8,1.2-1.3,1.9-1.7,2.6
			c-7.2,12.9-14.4,25.8-21.6,38.7c-3.2,5.8-6.5,11.6-9.7,17.4c-0.4,0.7-0.8,1.9-0.5,2.5C212.5,161.3,214.2,164.2,216.2,167.5z
			 M271,142.2c-0.9,1.3-1.5,2.2-2.1,3.1c-4.9,8.4-9.8,16.8-14.7,25.2c-5.5,9.3-10.9,18.6-16.3,28c-0.5,0.9-1.1,2.2-0.7,2.9
			c1.7,3.3,3.7,6.3,5.8,9.8c1.2-2,2.1-3.5,2.9-5c9.5-17.1,19-34.1,28.5-51.2c0.5-0.8,1.5-1.4,2.8-2.4
			C275.4,149.5,273.3,146,271,142.2z M232.8,194.7c0.6-0.8,1-1.4,1.4-2c4-6.7,7.9-13.5,11.9-20.2c6.7-11.4,13.4-22.8,20.1-34.2
			c0.5-0.8,1.1-2.1,0.8-2.7c-1.7-3.3-3.7-6.4-5.8-9.9c-0.9,1.4-1.6,2.4-2.1,3.4c-5.5,9.9-11,19.9-16.6,29.9
			c-4.5,8.1-9.1,16.3-13.5,24.5c-0.6,1.1-1.1,2.8-0.6,3.8C229.5,189.7,231.2,192,232.8,194.7z M304.5,199c-0.6,0.9-1.1,1.5-1.5,2.1
			c-4.4,7.9-8.8,15.8-13.2,23.8c-5.6,10.1-11.1,20.3-16.7,30.4c-0.4,0.7-1.3,1.1-2.1,1.8c1.1,2.5,1.1,2.5,4,2.5c1.2,0,2.4-0.2,3.5,0
			c2.2,0.4,3.3-0.7,4.3-2.5c2.4-4.5,5-8.8,7.5-13.2c6.4-11.3,12.7-22.6,19.1-33.9c0.3-0.6,0.7-1.5,0.4-2
			C308.2,205,306.4,202.1,304.5,199z M310.5,391.9c3.2,0,6,0.1,8.7-0.1c0.9-0.1,2.2-0.8,2.7-1.6c1.7-2.7,3-5.5,4.5-8.3
			c3.9-6.8,7.8-13.6,11.6-20.5c2-3.5,3.6-7.2,5.6-10.7c2.9-5.1,6-10.2,9.4-15.9c-3.8,0-7-0.1-10.1,0.1c-0.5,0-1.1,0.7-1.3,1.2
			c-3.5,6.2-7,12.4-10.4,18.6c-3.8,6.8-7.6,13.5-11.3,20.3C316.8,380.4,313.8,385.8,310.5,391.9z M368.3,335.1
			c-3.5-0.1-6.4-0.3-9.2-0.3c-0.6,0-1.5,0.7-1.9,1.3c-3.7,6.5-7.3,13-10.8,19.5c-2.3,4.2-4.4,8.4-6.8,12.6
			c-4,7.3-8.2,14.5-12.2,21.8c-0.3,0.5,0.1,1.9,0.2,1.9c3,0,6,0,8.9-0.1c0.4,0,0.8-0.6,1-1c1.5-2.6,2.9-5.2,4.3-7.8
			c3.6-6.6,7.3-13.2,10.9-19.8c3.7-6.5,7.4-13.1,11-19.6C365.2,341,366.5,338.5,368.3,335.1z M341.9,391.9c3.5,0,6.3,0.1,9-0.1
			c0.9-0.1,2-0.9,2.4-1.7c3.1-5.4,6.1-10.9,9.2-16.4c4.8-8.5,9.6-17,14.3-25.6c2.4-4.3,4.6-8.6,7.1-13.3c-3.6,0-7-0.7-9.7,0.3
			c-1.8,0.7-2.8,3.8-4.1,5.9c-0.1,0.1-0.1,0.3-0.2,0.4c-3.8,6.8-7.6,13.7-11.5,20.5c-4.2,7.6-8.4,15.1-12.6,22.7
			C344.6,386.9,343.4,389.2,341.9,391.9z M300.6,392c2-0.2,4.6,0.7,6-2c1.7-3.2,3.4-6.4,5.2-9.6c4.2-7.5,8.5-15,12.6-22.5
			c3.9-7,7.7-14.1,11.5-21.1c0.6-1.1,0.4-1.9-1.1-2c-2.2,0-4.3-0.2-6.5,0c-0.9,0.1-2.3,0.6-2.7,1.3c-3.6,6.4-7,12.9-10.6,19.3
			c-5.8,10.5-11.8,21-17.6,31.5C294.2,393,295.6,391.9,300.6,392z M414,391.8c2.6-4.8,5.3-9.5,8-14.3c3.7-6.6,7.3-13.2,10.9-19.8
			c3.8-6.8,7.7-13.7,11.5-20.5c0.8-1.5,0.3-2.2-1.3-2.2c-1.8-0.1-3.7,0.2-5.5,0c-1.9-0.2-3,0.4-3.9,2.1c-3.6,6.8-7.4,13.5-11.2,20.2
			c-3.4,6.1-6.7,12.1-10.1,18.2c-2.9,5.3-5.8,10.6-8.9,16.4C407.3,391.8,410.5,391.8,414,391.8z M290.1,334.8c-3.3,0-5.8,0.1-8.4,0
			c-2-0.1-3.1,1-3.9,2.5c-5.1,9.1-10.1,18.3-15.1,27.5c-3.8,7-7.7,13.9-11.5,20.9c-1,1.9-1.9,3.9-3,6.3c2.6,0,4.7-0.2,6.7,0.1
			c2.6,0.4,4-0.9,5.1-2.9c3.6-6.7,7.4-13.3,11-20c3.4-6.2,6.8-12.3,10.2-18.5C283.9,345.5,286.8,340.6,290.1,334.8z M373.4,391.9
			c3.5,0,6.5,0,9.5,0c0.3,0,0.7-0.4,0.9-0.7c3.9-7.1,7.8-14.2,11.7-21.3c3.9-7.1,7.7-14.2,11.6-21.3c2-3.7,4.2-7.3,6.2-11
			c1.1-1.9,0.6-2.7-1.6-2.7c-1.8,0-3.7-0.2-5.5,0c-1,0.1-2.1,0.7-2.8,1.5c-1,1.1-1.7,2.5-2.4,3.8c-4.2,7.7-8.4,15.5-12.7,23.2
			c-4.6,8.3-9.2,16.6-13.8,24.9C374.1,389.3,373.9,390.4,373.4,391.9z M223.2,391.7c0.1,0.2,0.1,0.4,0.2,0.6
			c1.6-0.5,3.9-0.6,4.6-1.7c2.9-4.3,5.3-9,7.8-13.5c4.8-8.7,9.7-17.5,14.5-26.2c2.5-4.5,5-9,7.4-13.5c1-1.9,0.4-2.7-1.7-2.8
			c-1.6,0-3.2,0.1-4.7,0c-2-0.2-3.1,0.9-4,2.4c-3.1,5.7-6.1,11.5-9.3,17.2c-6.5,11.8-13.1,23.6-19.7,35.4c-0.7,1.2-0.5,1.9,1,2
			C220.5,391.8,221.9,391.7,223.2,391.7z M181.1,335.1c-3.4,0-6.4,0-9.5,0c-0.5,0-1,0.6-1.3,1.1c-2.4,4-4.8,8.1-7.1,12.1
			c-3.8,6.7-7.5,13.5-11.2,20.3c-2.7,4.8-5.4,9.6-8,14.4c-1.5,2.7-2.9,5.4-4.6,8.5c3.6,0,6.6,0.2,9.6-0.1c0.7-0.1,1.6-1.3,2-2.2
			c2.6-4.7,5-9.4,7.6-14.1c2.4-4.3,5-8.5,7.5-12.9c3.3-5.9,6.6-11.8,9.9-17.8C177.7,341.5,179.4,338.4,181.1,335.1z M228.1,334.8
			c-3.9,0-7.1-0.1-10.3,0.1c-0.5,0-1.1,0.9-1.4,1.5c-5.2,9.3-10.3,18.6-15.4,27.9c-4.2,7.6-8.3,15.2-12.4,22.8
			c-0.7,1.4-1.3,2.9-2,4.7c3.4,0,6.2,0,9.1,0c0.4,0,1-0.6,1.2-1c0.8-1.6,1.4-3.2,2.2-4.7c2-3.5,4.2-7,6.2-10.5
			c3.6-6.3,7-12.7,10.5-19.1C219.7,349.4,223.7,342.5,228.1,334.8z M243.2,334.8c-3.3,0-6-0.1-8.7,0.1c-0.8,0-2.2,0.8-2.2,1.2
			c0,2.1-1.8,3-2.6,4.5c-4.4,8-8.9,16-13.3,24c-3,5.3-6,10.6-8.9,15.9c-1.6,2.9-3,5.8-4.5,8.8c-0.8,1.5-0.1,2.4,1.5,2.5
			c1.9,0.1,3.8,0.3,5.7,0.1c0.8-0.1,1.8-0.7,2.2-1.3c5.1-8.9,10.1-17.8,15.1-26.7c4.5-8.1,9-16.2,13.4-24.3
			C241.8,338.2,242.3,336.8,243.2,334.8z M205.6,31.3c-0.9,1.4-1.6,2.5-2.2,3.5c-2.3,4-4.5,8.1-6.8,12.2
			c-8.1,14.4-16.3,28.8-24.4,43.2c-0.5,0.9-1,2.2-0.6,3c1.1,2.5,2.6,4.7,4.1,7.3c0.6-0.6,0.9-0.9,1.1-1.3c2.7-4.7,5.4-9.4,8-14.1
			c8-14.2,16.1-28.3,24.1-42.5c0.4-0.8,1.4-1.2,2.3-2C209.6,37.9,207.7,34.8,205.6,31.3z M192.1,127.5c3.7-6.7,6.9-12.5,10.2-18.4
			c7.4-13.3,14.8-26.6,22.3-39.8c0.4-0.8,1.3-1.2,2.2-2.1c-1.6-2.7-3.4-5.7-5.5-9.3c-1.2,2.2-2,3.7-2.8,5.2
			c-10.1,18-20.3,36.1-30.4,54.1c-0.4,0.7-0.9,1.7-0.6,2.2C188.8,122,190.3,124.5,192.1,127.5z M171.2,391.7c3.3,0,6.3,0.5,8.9-0.2
			c1.4-0.4,2.2-3,3.2-4.7c3.2-5.6,6.3-11.1,9.4-16.7c5.7-10.2,11.4-20.5,17.1-30.8c0.7-1.3,1.4-2.7,2.4-4.6c-2.4,0-4.3,0.2-6.2,0
			c-2.7-0.3-4.2,1-5.5,3.3c-5.4,9.7-10.9,19.3-16.4,28.9c-4,7-7.9,13.9-11.8,21C171.7,388.9,171.6,390.2,171.2,391.7z M155.7,390.6
			c0.2,0.3,0.3,0.6,0.5,0.9c2.5,0.1,5.1,0.3,7.6,0.3c0.5,0,1.3-0.7,1.6-1.3c4.3-7.3,8.5-14.5,12.6-21.8c4.7-8.2,9.3-16.5,14-24.7
			c1.6-2.8,3-5.6,4.9-9.2c-2.9,0-5,0.1-7.1,0c-2.1-0.1-3.6,0.6-4.6,2.5c-2.1,4.1-4.2,8.2-6.4,12.2c-2.8,5.1-5.9,10-8.8,15.1
			c-3.4,5.9-6.6,11.9-9.9,17.9C158.6,385.1,157.2,387.8,155.7,390.6z M305.5,335.9c-2.9-1.6-5.6-1.1-8.3-0.9c-2.1,0.1-3,1-3.8,2.8
			c-2.7,5.3-5.6,10.5-8.4,15.7c-1.9,3.5-3.8,7-5.8,10.5c-2.4,4.3-5,8.5-7.4,12.8c-2.5,4.4-4.9,8.9-7.2,13.4c-0.2,0.3,0.6,1.5,1,1.6
			c1.5,0.2,3.1,0.1,4.7,0.1c1.7,0,2.9-0.3,3.7-2.1c1-2.3,2.5-4.4,3.8-6.6c4.3-7.3,8.5-14.7,12.8-22c3-5.1,6-10.2,9-15.3
			C301.5,342.6,303.4,339.4,305.5,335.9z M388.9,391.9c2.5,0,4.2-0.2,5.9,0c3.1,0.5,4.3-1.2,5.5-3.6c2.5-4.8,5.3-9.5,7.9-14.2
			c2.8-5,5.7-10,8.5-15.1c3.2-5.7,6.3-11.4,9.4-17.2c1.2-2.2,2.3-4.4,3.6-6.9c-2.8,0-5,0.2-7.1-0.1c-2.1-0.2-3.2,0.7-4.1,2.3
			c-4,7.3-8,14.6-12,21.9c-5.3,9.6-10.7,19.2-16,28.9C389.8,389.1,389.5,390.4,388.9,391.9z M399.1,335c-3.1,0-5.7-0.1-8.3,0.1
			c-0.9,0.1-2.2,0.9-2.6,1.7c-3.6,6.3-7.1,12.7-10.5,19.1c-3.2,6-6.1,12.2-9.4,18.1c-2.4,4.4-5.3,8.4-7.8,12.7
			c-0.9,1.6-1.4,3.4-2.2,5.3c2.9,0,5.3,0.1,7.7-0.1c0.8-0.1,2-0.8,2.4-1.5c4.8-8.5,9.5-17,14.2-25.5c3.5-6.4,7-12.8,10.5-19.1
			C395,342.3,397,338.8,399.1,335z M274.4,334.8c-3.1,0-5.4,0.1-7.7,0c-1.9-0.1-3.1,0.9-3.9,2.2c-4.4,7.9-8.7,15.9-13.1,23.8
			c-4.9,8.8-9.8,17.7-14.6,26.5c-0.7,1.3-1.2,2.7-2,4.5c2.9,0,5.2,0.2,7.3-0.1c1.2-0.2,2.8-1.1,3.4-2.1c3.4-5.9,6.7-11.8,9.9-17.8
			c2.9-5.4,5.7-10.8,8.6-16.1C266.2,348.9,270.2,342.2,274.4,334.8z M237.4,84.9c-0.8,1.2-1.4,2-1.8,2.7c-2,3.6-3.9,7.2-5.8,10.7
			c-8.2,14.7-16.4,29.4-24.6,44.1c-1.9,3.4-0.5,7.8,3,10.1c0.3-0.4,0.6-0.8,0.8-1.2c10.2-18,20.3-36,30.5-54c0.6-1,1.9-1.6,2.8-2.3
			c0.4,0.1,0.7,0.1,1.1,0.2C241.4,91.9,239.5,88.6,237.4,84.9z M299.9,259.4c0.5-1.2,0.7-2,1.1-2.7c5.7-10.5,11.5-21,17.2-31.6
			c0.4-0.7,0.8-1.7,0.6-2.2c-1.8-3.4-3.9-6.7-6-10.3c-8.8,15.7-17.4,31-26.2,46.8C291.7,259.4,295.9,259.4,299.9,259.4z
			 M280.6,391.9c2.3,0,4-0.2,5.7,0c2.6,0.3,3.9-0.9,5-3c3-5.7,6.1-11.3,9.3-16.9c5.1-9.1,10.3-18.2,15.5-27.3
			c1.7-3.1,3.3-6.2,5.2-9.7c-2.7,0-4.9-0.1-7,0c-0.4,0-1,0.5-1.3,1c-2.7,4.5-5.4,9.1-8,13.7c-3.8,6.5-7.6,13-11.4,19.5
			c-3.3,5.6-6.7,11.2-9.9,16.9C282.5,387.7,281.7,389.5,280.6,391.9z M419.4,392.1c2.9,0,5.2,0.1,7.5-0.1c0.9-0.1,2.1-0.8,2.5-1.5
			c4.9-9.1,9.6-18.3,14.4-27.4c4.6-8.8,9.1-17.5,13.7-26.3c0.8-1.5,0.4-1.9-1.1-2c-3.4-0.1-6.7,0-7.8,4.2c-0.2,0.8-0.7,1.5-1.1,2.2
			c-8.3,14.8-16.6,29.6-24.9,44.4C421.4,387.6,420.5,389.7,419.4,392.1z M125.6,391.4c1.6,0.1,2.8,0.2,4,0.4c3,0.4,5.1-0.6,6.5-3.5
			c3.1-6.3,6.6-12.4,10-18.5c3.7-6.7,7.4-13.4,11.1-20c1.8-3.2,3.6-6.5,5.4-9.8c0.7-1.3,1.2-2.6,1.7-4c-1.2-0.1-2.5-0.5-3.7-0.4
			c-1,0.1-2.5,0.4-2.9,1.1c-5.3,8.8-10.5,17.7-15.7,26.5c-3.2,5.4-6.4,10.7-9.5,16.1C130.2,383.2,128,387.3,125.6,391.4z
			 M304.2,259.6c3,0,5.2-0.1,7.4,0c2.2,0.1,3.4-0.4,4.6-2.7c2.6-5.3,6-10.2,8.9-15.3c1-1.7,1.8-3,4.3-1c-2.8-4.7-5.1-8.6-7.7-13
			C315.9,238.3,310.2,248.6,304.2,259.6z M319.5,259.3c7.2,0,13.8,0,20.9,0c-3.6-6-7-11.7-10.5-17.7
			C326.4,247.7,323.1,253.3,319.5,259.3z M172.3,311c6.5,0.3,12.1,0.2,17.4-2.6c0.7-0.4,1.8-1.4,1.7-1.8c-0.2-0.8-1.1-1.8-1.9-1.9
			c-3.7-0.8-7.4-1.4-11.2-1.9c-0.5-0.1-1.2,0.3-1.5,0.7C175.3,305.7,174,308.1,172.3,311z M494.7,124.9c-3.3,0-6.4,0-9.6,0
			c0,3.4,0,6.5,0,9.8c3.4,0,6.5,0,9.6,0C494.7,131.3,494.7,128.1,494.7,124.9z M502.7,124.9c0,3.4,0,6.6,0,9.8c3.4,0,6.5,0,9.7,0
			c0-3.4,0-6.6,0-9.8C509.1,124.9,506,124.9,502.7,124.9z M832.9,19.6c0-3.5,0-6.7,0-9.8c-3.3,0-6.4,0-9.6,0c0,3.3,0,6.4,0,9.8
			C826.6,19.6,829.7,19.6,832.9,19.6z M840.7,19.4c3.6,0,6.7,0,9.7,0c0-3.3,0-6.5,0-9.8c-2.8,0-5.4-0.1-8.1,0.1
			c-0.6,0-1.6,0.8-1.6,1.3C840.6,13.7,840.7,16.5,840.7,19.4z"/>
		<path class="st0" d="M863.6,371c-0.1,1.1-0.1,1.8-0.1,2.2c2.7-1,5.3-2.3,8.1-2.8c3.1-0.6,5.6,0.9,6.8,3.2c3-1.1,5.8-2.8,8.8-3.2
			c5.7-0.6,9,3.5,7.8,9.2c-1.1,5.6-2.4,11.2-3.6,17c-2.2,0-4.4,0-6.9,0c0.9-4.8,1.8-9.5,2.8-14.2c0-0.2,0.2-0.3,0.2-0.5
			c0.2-2.1,1.3-4.4-1.4-5.7c-1.9-1-4.7,0-6.2,2.5c-1.1,1.9-1.7,4.1-2.2,6.3c-0.8,3.2-1.4,6.5-2,9.8c-0.3,1.6-1,2.3-2.6,2.1
			c-1.5-0.1-3,0-4.8,0c0.7-3.8,1.3-7.4,2-10.9c0.4-2,0.9-4,1.3-6.1c0.5-2.6-1.7-4.5-4.3-3.8c-3.5,1-4.7,4-5.5,7.1
			c-0.6,2.3-0.9,4.6-1.4,6.8c-0.5,2.2-1,4.4-1.5,6.7c-2.2,0-4.4,0-6.9,0c1-4.9,2-9.9,3-14.8c0.6-3,1.3-6,1.8-9
			c0.2-1.4,0.8-1.8,2.1-1.8C860.3,371,861.9,371,863.6,371z"/>
		<path class="st0" d="M1046.2,396.7c1.1-5.6,2.1-10.9,3.2-16.2c0.3-1.7,0.6-3.5-1.1-4.1c-1.4-0.5-3.3-0.4-4.6,0.3
			c-2.6,1.4-3.4,4.2-4,6.9c-0.8,3.6-1.6,7.3-2.2,11c-0.3,1.6-0.9,2.3-2.6,2.1c-1.5-0.1-3,0-4.9,0c1.8-8.7,3.5-17.1,5.2-25.6
			c2.2,0,4.3,0,6.5,0c-0.1,1-0.2,2-0.3,2.9c7.1-5.1,12.3-5.1,15.1-0.1c2.4-1.2,4.7-2.7,7.3-3.4c6-1.5,10.3,2.5,9.3,8.6
			c-0.9,5.2-2.1,10.4-3.1,15.6c-0.3,1.6-1.1,2.2-2.7,2c-1.5-0.1-3,0-4.8,0c0.8-4.1,1.6-7.9,2.4-11.7c0.4-2,0.7-3.9,0.8-5.9
			c0.1-2.5-1.5-3.8-4-3.2c-2.9,0.7-4.4,2.9-5.1,5.6c-1.1,4.1-2,8.2-2.7,12.4c-0.4,2.2-1.2,3.2-3.5,2.9
			C1049,396.5,1047.7,396.7,1046.2,396.7z"/>
		<path class="st0" d="M739.5,396.7c-2.4,0-4.5,0-7,0c0.7-3.3,1.3-6.4,1.9-9.5c0.5-2.3,0.8-4.6,1.3-6.8c0.3-1.6,0.4-3.6-1.4-4
			c-1.5-0.4-3.5-0.1-4.8,0.7c-2.5,1.6-3.2,4.5-3.8,7.3c-0.8,4.1-1.7,8.1-2.6,12.3c-2.3,0-4.5,0-7,0c0.9-4.4,1.7-8.6,2.5-12.8
			c0.2-1.1,0.5-2.3,0.7-3.4c0.3-1.6,0.5-3.6-1.3-4.1c-1.5-0.4-3.7,0-5,0.9c-2.7,1.8-3.1,5.1-3.8,8.1c-0.7,3.1-1.3,6.2-1.8,9.3
			c-0.3,1.7-1,2.2-2.7,2.1c-1.5-0.1-3.1,0-4.9,0c1.8-8.6,3.5-17,5.3-25.5c2.2,0,4.3,0,6.5,0c-0.1,0.9-0.2,1.7-0.2,2.1
			c2.5-0.9,5.2-2.3,7.9-2.8c3.1-0.6,6,0.5,7,3.2c2.8-1.1,5.3-2.6,8-3.1c5.9-1.1,9.7,2.8,8.6,8.8
			C741.9,385.1,740.7,390.8,739.5,396.7z"/>
		<path class="st0" d="M810.7,396.7c0.2-1,0.3-1.6,0.5-2.4c-0.4,0.1-0.6,0.1-0.8,0.2c-3.2,3.3-7.2,3.2-11.1,2c-3.3-1-5.1-3.7-5.5-7
			c-0.5-4.2,0.1-8.3,2.1-12.1c2.9-5.5,8.6-8.3,14.4-6.7c1.7,0.5,3.1,1.7,4.9,2.7c0.6-2.8,1.6-5.8,1.9-8.9c0.3-2.9,1.7-3.8,4.4-3.4
			c1,0.1,2,0,3.3,0c-0.7,3.9-1.4,7.6-2.1,11.3c-1.5,7.2-3.1,14.4-4.5,21.6c-0.4,2.1-1.2,3.1-3.4,2.7
			C813.4,396.6,812.2,396.7,810.7,396.7z M808.2,375.7c-0.1-0.2-0.3-0.4-0.4-0.6c-1.6,1.1-3.7,1.8-4.5,3.3c-1.3,2.3-2.1,5-2.5,7.6
			c-0.5,2.8,1,5.1,3.1,5.9c2.4,0.9,5.6,0.1,6.9-2.5c1.3-2.5,2.3-5.3,2.7-8.1C814,377.8,811.6,375.6,808.2,375.7z"/>
		<path class="st0" d="M542,393.5c-1.3,3.8-2.1,4.1-7.3,3c2.4-11.7,4.8-23.5,7.2-35.3c2.4,0,4.5,0,6.9,0c-0.7,3.9-1.5,7.8-2.1,11.1
			c2.5-0.6,5.1-1.6,7.7-1.8c4.2-0.3,6.8,1.8,8.3,5.8c2.6,7-0.5,16.2-6.7,19.6C551.5,398.5,545.8,398.5,542,393.5z M543.3,385.6
			c0.7,2.1,0.8,3.7,1.6,4.8c1.7,2.6,5.4,2.7,7.9,0.5c3-2.6,3.8-6.2,3.6-9.9c-0.1-2.1-0.7-4.3-3.3-5c-2.6-0.7-5.1-0.2-6.4,2
			C545.1,380.4,544.3,383.3,543.3,385.6z"/>
		<path class="st0" d="M1013.6,360.8c-0.8,4.2-1.5,8.1-2.2,11.5c2.8-0.7,5.7-1.9,8.7-2c5-0.3,7.7,2.8,6.9,7.8
			c-0.9,6.1-2.3,12.2-3.5,18.5c-2.3,0-4.5,0-7.1,0c0.8-4.1,1.6-8.1,2.3-12c0.3-1.5,0.6-2.9,0.8-4.4c0.5-3.1-1.3-4.9-4.4-4.3
			c-3.2,0.6-4.9,2.9-5.6,5.7c-1,3.8-1.7,7.6-2.5,11.4c-0.7,3.7-0.7,3.7-4.6,3.7c-1,0-2,0-3.2,0c0.5-2.5,0.9-4.7,1.3-6.8
			c1.8-8.9,3.6-17.9,5.4-26.8c0.3-1.5,0.9-2.4,2.6-2.2C1010.2,360.9,1011.7,360.8,1013.6,360.8z"/>
		<path class="st0" d="M940.8,376c-0.5,2.2-0.8,3.8-1.3,5.8c-4.2,0-8.5,0.1-12.8-0.1c-2-0.1-2.7,0.7-3,2.6
			c-0.7,4.1-1.7,8.1-2.5,12.2c-2.5,0-4.9,0-7.7,0c0.5-2.3,0.9-4.4,1.3-6.4c1.8-8.9,3.7-17.9,5.4-26.8c0.3-1.8,1-2.5,2.9-2.5
			c7.1,0.1,14.2,0,21.2,0c0.5,0,1,0.1,1.8,0.1c-0.4,1.9-0.7,3.7-1.2,5.3c-0.2,0.5-1.2,0.9-1.9,0.9c-4.6,0.1-9.2,0.1-13.7,0.1
			c-1.6,0-2.3,0.5-2.5,2c-0.3,2.1-0.7,4.2-1.2,6.7C930.7,376,935.6,376,940.8,376z"/>
		<path class="st0" d="M650.7,389c-1.2,3.5-3.2,6-6.3,7.3c-4.1,1.7-8.4,2.1-12.6,0.1c-4.8-2.3-6.6-6.8-5.6-13.1
			c1.5-9.3,9.9-14.7,18.8-12.1c5.7,1.7,9,8,7.1,13.6c-0.2,0.5-1.3,0.9-1.9,0.9c-5,0.1-10,0-15,0c-2.3,0-2.8,0.7-2.2,2.8
			c1.1,3.8,6.3,5.5,9,2.5C644.5,388,647.4,389.2,650.7,389z M645.1,381.2c0.3-3.3-0.8-5.1-3.5-5.5c-3.8-0.6-7,1.7-7.6,5.5
			C637.6,381.2,641.3,381.2,645.1,381.2z"/>
		<path class="st0" d="M849.8,385.6c-6.3,0-12.5,0-18.7,0c-0.6,2.7,0.2,4.6,2.2,5.9c1.9,1.2,5.3,1.2,6.5-0.5c2.5-3.4,5.7-2,9-2.3
			c-1.1,3.2-2.7,5.5-5.4,6.9c-4.1,2.2-8.6,2.2-12.8,0.9c-4.9-1.6-6.9-6.2-6.2-13c1-9.7,10.1-15.5,19.2-12.4
			C848.9,372.9,851.3,378.2,849.8,385.6z M843.3,381c-0.2-3.9-1.1-5.1-4-5.3c-4-0.3-6.5,1.5-7.3,5.3C835.8,381,839.6,381,843.3,381z
			"/>
		<path class="st0" d="M1085.4,378.6c-2,0-3.9,0-5.9,0c-0.2-3.1,1.9-6.1,5.3-7.3c4.4-1.6,8.8-1.6,13.2,0c2.9,1,4.2,3.1,3.9,6.2
			c-0.2,2.4-0.8,4.7-1.2,7.1c-0.7,3.9-1.4,7.8-2.1,11.9c-1.9,0-4,0-6.3,0c-0.1-0.6-0.2-1.2-0.3-1.9c-0.3,0.1-0.6,0.1-0.8,0.3
			c-2.4,1.9-5.2,2.5-8.2,2.3c-3.5-0.2-6.4-2.1-7.1-4.9c-0.9-3.5,0.5-7.2,3.9-8.5c3.1-1.2,6.5-1.6,9.8-2.3c1.1-0.2,2.2-0.2,3.2-0.5
			c1.3-0.4,2.5-1,2.4-2.7c0-1.8-1-2.8-2.6-3.2C1089.6,374.1,1087.4,375.2,1085.4,378.6z M1093.7,384.8c-2.8,0.4-5.4,0.7-8,1.3
			c-2.1,0.4-3.1,2-2.8,4c0.4,2.2,2.1,2.8,4.1,2.7C1090.8,392.7,1093.2,389.8,1093.7,384.8z"/>
		<path class="st0" d="M965.6,396.7c-2-0.9-4.9,1.4-6.5-1.3c-3,0.6-5.9,1.5-9,1.7c-3.3,0.2-6.2-1.9-6.9-4.4c-1-3.5,0.1-6.9,3.3-8.6
			c2.4-1.2,5.3-1.7,8-2.4c2-0.5,4.1-0.5,6.1-1.1c0.8-0.2,1.8-1.5,1.8-2.3c0-1-0.7-2.2-1.5-2.9c-1.7-1.3-5.8-1-6.8,0.8
			c-1.4,2.6-3.5,2.3-5.7,2.3c-0.7,0-1.3-0.1-1.9-0.1c0-3.3,2.1-6.1,5.4-7.3c4-1.4,8.2-1.5,12.3-0.3c4.2,1.3,5.6,4.3,4.6,9
			C967.7,385.4,966.7,390.9,965.6,396.7z M961.3,384.8c-1.8,0.2-3,0.3-4.2,0.5c-1.8,0.3-3.7,0.4-5.2,1.3c-0.9,0.5-1.7,2.2-1.6,3.4
			c0,0.9,1.2,2.1,2.2,2.6c2.2,1,5.3-0.1,6.6-2.2C959.9,388.7,960.5,386.9,961.3,384.8z"/>
		<path class="st0" d="M588.1,396.7c-5.2,0.6-5.9,0.4-6.5-1.5c-2.2,0.7-4.3,1.7-6.5,2.2c-4,0.9-8.5-1.4-9.4-4.7
			c-1.1-3.8,0.9-7.9,5.1-9.3c2.8-1,5.8-1.2,8.8-1.7c0.9-0.2,1.8-0.3,2.7-0.4c1.5-0.2,2.7-0.9,2.8-2.6c0.2-1.9-0.9-2.7-2.4-3.3
			c-2.2-0.8-5.3-0.3-6.3,1.5c-1,1.9-2.4,2-4.1,1.9c-1.1-0.1-2.1,0-3.5,0c0.5-3.2,1.8-5.4,4.5-6.7c4.4-2.2,9.1-2,13.6-0.8
			c4.1,1,5.5,4.2,4.5,8.9C590.3,385.6,589.3,391,588.1,396.7z M583.7,385c-3,0.5-5.7,0.8-8.3,1.3c-2.1,0.4-3.1,1.9-2.9,4
			c0.2,2.1,1.7,2.6,3.5,2.7c2.8,0.2,4.9-1,6-3.5C582.8,388.2,583.2,386.6,583.7,385z"/>
		<path class="st0" d="M599.7,371.3c2.4,0,4.6,0,7.1,0c-0.8,4-1.6,7.9-2.3,11.8c-0.4,1.9-0.7,3.8-0.9,5.6c-0.2,2.3,0.8,3.4,3.2,3.5
			c3.1,0.1,5.8-1.8,6.8-5.5c1.2-4.5,2.1-9,3.1-13.6c0.1-0.6,0.3-1.1,0.5-1.8c2.3,0,4.5,0,6.9,0c-1.6,8.1-3.2,16.1-4.9,24.1
			c-0.1,0.6-1,1.3-1.6,1.4c-1.7,0.2-3.4,0.1-5.4,0.1c0.2-1.1,0.4-2,0.5-2.5c-2.5,1-5,2.4-7.8,2.9c-1.9,0.4-4.4,0-5.9-1
			c-1.4-0.9-2.6-3.2-2.7-4.9c-0.2-2.7,0.6-5.4,1.1-8.1C598,379.4,598.9,375.4,599.7,371.3z"/>
		<path class="st0" d="M1104.3,396.7c1.2-5.7,2.2-11.1,3.3-16.4c0.5-2.4,1.1-4.7,1.5-7c0.3-1.7,0.9-2.5,2.7-2.3c1.3,0.2,2.6,0,4.2,0
			c-0.1,1.1-0.1,2-0.1,3.1c3.6-3.1,7.5-4.8,12.2-3.2c2.5,0.8,4,2.5,4,5.1c0,2.1-0.2,4.1-0.6,6.2c-0.9,4.8-2,9.6-3,14.5
			c-2.2,0-4.4,0-6.9,0c0.5-2.5,1-4.9,1.4-7.3c0.6-3.1,1.2-6.2,1.7-9.3c0.5-3-1.3-4.8-4.3-4.2c-3,0.6-4.9,2.6-5.6,5.4
			c-1,3.9-1.9,7.9-2.6,11.9c-0.7,3.6-0.6,3.6-4.1,3.6C1106.9,396.7,1105.8,396.7,1104.3,396.7z"/>
		<path class="st0" d="M665.6,371.1c-0.2,1.2-0.3,2-0.5,3.4c3.2-3.2,6.6-4.4,10.7-3.9c3.9,0.5,6.3,2.8,5.8,6.7
			c-0.9,6.1-2.3,12.2-3.6,18.3c-0.1,0.5-1.1,1.2-1.7,1.2c-1.6,0.2-3.3,0.1-5.4,0.1c0.8-4.1,1.7-7.8,2.4-11.6c0.4-2,0.7-3.9,0.8-5.9
			c0.1-2.6-1.1-3.6-3.7-3.4c-3.2,0.3-5.4,2-6.4,5.7c-1.1,4.2-2.1,8.5-2.8,12.8c-0.3,1.9-1.2,2.5-3,2.4c-1.3-0.1-2.6,0-4.4,0
			c0.8-4.1,1.5-7.9,2.2-11.6c0.8-4,1.8-7.9,2.5-11.9c0.3-1.7,0.9-2.3,2.5-2.2C662.6,371.2,664,371.1,665.6,371.1z"/>
		<path class="st0" d="M1152.1,396.6c0.7-3.8,1.4-7.3,2.1-10.9c0.4-2.2,0.9-4.4,1.3-6.6c0.3-1.9-1-3.2-3-3.5
			c-2.7-0.3-5.7,1.4-6.6,4.3c-1.3,4.2-2.1,8.5-3.1,12.8c-0.9,3.9-0.8,3.9-4.6,3.9c-0.9,0-1.8,0-3,0c0.8-4.1,1.5-8,2.2-11.9
			c0.7-3.6,1.7-7.1,2.2-10.7c0.4-2.5,1.3-3.5,3.8-3.1c1,0.2,2.1,0,3.4,0c-0.1,1.2-0.3,2.1-0.3,2.5c2.2-1,4.5-2.4,7-3
			c6.2-1.5,10.3,2.2,9.3,8.5c-0.8,5.3-2.2,10.6-3.2,15.8c-0.3,1.3-0.9,2-2.4,1.8C1155.5,396.5,1153.9,396.6,1152.1,396.6z"/>
		<path class="st0" d="M998.6,379.6c-2.4,0-4.5,0-6.8,0c-0.3-2.7-2-4.1-4.6-4.2c-2.7-0.1-4.6,1.2-5.9,3.5c-1.8,3.3-2.1,6.8-1.2,10.4
			c0.8,3.2,6.2,4.2,8.1,1.1c2.3-3.7,5.3-3.1,8.5-2.9c-0.6,4.2-4.2,8.3-8.9,9.2c-2.9,0.5-6,0.4-8.9-0.2c-3.3-0.7-5.2-3.2-6.1-6.6
			c-1.8-7.1,1.5-15.4,7.7-18.3c4.1-1.9,8.2-1.9,12.4-0.3C996.6,372.7,998.4,375.5,998.6,379.6z"/>
		<path class="st0" d="M777.8,371.1c-0.3,1.6-0.6,2.9-0.8,4.2c-0.3,0.1-0.4,0.3-0.6,0.3c-4.6,0.3-4.6,0.3-5.5,4.9
			c-0.4,2.1-0.9,4.2-1.3,6.3c-0.9,4.6-0.9,4.6,3.8,5.1c0.5,4-0.4,5.1-4.3,5.2c-0.9,0-1.8,0-2.7-0.2c-3.7-0.5-5.3-2.6-4.6-6.3
			c0.7-3.9,1.6-7.8,2.4-11.7c0.2-1,0.4-1.9,0.6-3.2c-1.5-0.1-2.9-0.1-4.5-0.2c0.1-0.7,0.3-1.3,0.3-1.9c0-2.1,0.9-3.1,3.1-2.7
			c1.7,0.3,2.3-0.5,2.5-2.2c1-6.2,1.2-6.3,7.5-5.7c0.1,0,0.1,0.1,0.4,0.3c-0.3,2.3-0.7,4.7-1.1,7.3C774.6,370.9,776,371,777.8,371.1
			z"/>
		<path class="st0" d="M750.8,371.2c2.4,0,4.6,0,7.1,0c-1.8,8.6-3.5,17-5.3,25.5c-2.4,0-4.6,0-7.1,0
			C747.2,388.1,749,379.8,750.8,371.2z"/>
		<path class="st0" d="M1170.4,385.8c0.3-3.8,0.4-7.7,0.9-11.5c0.4-3.7,1.3-7.3,1.8-11c0.2-1.8,1-2.4,2.7-2.3c1.6,0.1,3.1,0,5.1,0
			c-0.7,3.4-1.1,6.7-2,9.8c-1.2,4.3-3,8.4-4.2,12.7C1174,385.9,1172.9,386.4,1170.4,385.8z"/>
		<path class="st0" d="M1175.4,389.4c-0.5,2.3-1,4.6-1.5,7.1c-2.5,0-5,0-7.6,0c0-0.4,0.1-0.8,0.1-1.1
			C1167.7,388.3,1167.8,388.3,1175.4,389.4z"/>
		<path class="st0" d="M466.2,396.8c0.5-2.4,0.9-4.5,1.5-6.5c0.1-0.4,0.6-0.9,1-0.9c2.2-0.1,4.4,0,7,0c-0.5,2.4-0.9,4.4-1.5,6.4
			c-0.1,0.5-0.9,1-1.3,1C470.7,396.8,468.6,396.8,466.2,396.8z"/>
		<path class="st0" d="M514.7,389.3c-0.6,2.6-1.1,4.9-1.6,7.3c-2.5,0-4.9,0-7.7,0c0.4-2.2,0.8-4.3,1.4-6.4c0.1-0.4,1-0.9,1.5-0.9
			C510.3,389.3,512.3,389.3,514.7,389.3z"/>
		<path class="st0" d="M485.8,396.8c0.5-2.5,0.9-4.4,1.4-6.2c0.2-0.5,0.9-1.2,1.5-1.2c2.1-0.1,4.1-0.1,6.5-0.1
			c-0.5,2.4-0.9,4.5-1.5,6.5c-0.1,0.4-0.8,0.9-1.2,0.9C490.3,396.8,488.2,396.8,485.8,396.8z"/>
		<path class="st0" d="M759.6,361.4c-0.9,6.2,0.3,5.7-7.6,5.2C751.7,361.6,753.5,360.4,759.6,361.4z"/>
		<path class="st0" d="M253.2,48.7c-0.8,1.4-1.3,3.3-2.5,4.2c-1.8,1.4-3.9,0.4-5.6-0.7c-4.9-3.2-8.4-7.6-10.9-12.7
			c-1.6-3.2-2.7-6.8-3.8-10.2c-0.3-1.1-0.2-2.5,0.2-3.7c0.6-2.3,2.7-3.5,4.8-2.5c2,0.9,4,2.1,5.6,3.5c5.3,4.9,8.8,11,11.1,17.8
			c0.2,0.7,0.4,1.4,0.5,2.2c0.1,0.6,0,1.2,0,1.7C252.8,48.5,253,48.6,253.2,48.7z M250,48.4c-0.1-0.4-0.1-0.8-0.2-1.2
			c-1-6.3-4.4-11.4-8.4-16.2c-1.4-1.6-3.1-3-4.8-4.3c-0.7-0.5-1.8-0.5-2.8-0.8c-0.2,1-0.5,2-0.7,3c-0.1,0.4,0.2,0.8,0.3,1.2
			c1.2,4.8,3.2,9.3,6.5,13c2.2,2.5,4.7,4.9,7.4,6.9C249,51.3,250,50.4,250,48.4z"/>
		<path class="st0" d="M300.6,99c0-5.8,3-7.6,7.3-4.8c2.7,1.8,5.1,4.2,7.2,6.7c3.5,4.2,6.1,8.9,7.5,14.2c0.2,0.9,0.4,1.8,0.4,2.7
			c0,2,0.2,4.1-2,5.2c-2.2,1.2-4.3,0.3-6-1c-2-1.6-4-3.3-5.6-5.3c-3.9-4.6-6.9-9.7-8.4-15.6C300.7,100.3,300.6,99.3,300.6,99z
			 M320.8,118.6c-1.2-3.1-2.1-6.3-3.6-9.2c-2.5-4.9-5.6-9.4-10.3-12.5c-0.8-0.5-2-0.5-3-0.7c-0.2,1-0.8,2.1-0.5,2.9
			c1.2,3.6,2.2,7.4,4.3,10.5c2.6,3.8,6,7.2,9.4,10.4C318.6,121.6,320.3,120.7,320.8,118.6z"/>
		<path class="st0" d="M247.3,62.8c0.8-1.4,1.3-3.3,2.6-4.1c1.9-1.3,4.2-0.5,6,0.9c4.1,3.1,7.5,6.9,9.8,11.5
			c1.8,3.8,3.6,7.7,4.4,11.8c1,4.8-2.3,6.9-6.8,4.8c-1-0.5-1.9-1.1-2.7-1.8c-6.1-5.5-10.5-12.1-12.5-20.3c-0.2-0.8-0.2-1.6-0.3-2.5
			C247.7,63,247.5,62.9,247.3,62.8z M267.9,83.2c-1-2.8-1.9-5.6-3.2-8.3c-2.6-5.2-5.8-9.9-10.7-13.2c-0.7-0.5-1.9-0.7-2.7-0.4
			c-0.4,0.2-0.6,1.6-0.6,2.4c0.5,5.6,3.4,10.2,6.7,14.5c2,2.6,4.5,4.8,7.1,6.8C266.3,86.4,267.5,85.6,267.9,83.2z"/>
		<path class="st0" d="M302.4,83.5c-0.8,1.5-1.3,3.3-2.5,4.4c-1.8,1.6-3.9,0.5-5.5-0.6c-5.5-3.6-9.3-8.7-12.1-14.5
			c-1.2-2.6-2-5.4-2.7-8.2c-0.5-2.1-0.5-4.6,1.6-5.9c2.1-1.3,4.4-0.6,6.3,0.8c5.6,4.1,9.4,9.7,12.3,16
			C300.8,77.9,301.4,80.5,302.4,83.5z M299.1,82.7c-1-5.7-4-11-8-15.8c-1.6-1.9-3.6-3.6-5.6-5.2c-0.7-0.5-1.8-0.5-2.7-0.7
			c-0.2,0.9-0.4,1.9-0.5,2.8c-0.1,0.4,0.1,0.8,0.2,1.2c1.4,6.4,4.9,11.6,9.2,16.2c1.3,1.4,2.9,2.7,4.6,3.7
			C298.2,86.2,299.1,85.5,299.1,82.7z"/>
		<path class="st0" d="M284.3,47.6c0.1,5.1-3.3,7.4-6.9,4.9c-3.2-2.2-6-5-8.4-8c-3.6-4.5-6.2-9.6-7.2-15.4c-0.3-2.1-0.2-4,1.6-5.4
			c1.8-1.5,3.7-0.8,5.4,0.1c4.6,2.6,7.8,6.7,10.5,11.1C281.8,39.1,283.7,43.5,284.3,47.6z M264.2,28.2c1.2,3.1,2.1,6.2,3.6,9.2
			c2.4,5.1,5.9,9.4,10.6,12.6c0.7,0.4,2,0.7,2.5,0.4c0.5-0.4,0.8-1.7,0.6-2.4c-0.9-3.1-1.8-6.2-3.2-9.1c-2.5-4.9-5.7-9.4-10.6-12.3
			C265.6,25.2,264.7,25.7,264.2,28.2z"/>
		<path class="st0" d="M268.9,99.2c0-5.7,3.5-7.8,6.9-5.1c3.8,3,7.2,6.6,10.1,10.5c2.8,3.7,4.8,8.1,5.4,13c0.3,2.1,0.2,4.1-1.6,5.4
			c-1.9,1.3-4.1,0.7-5.6-0.4C275.6,116.4,270.6,108.1,268.9,99.2z M288.9,118.5c-2.1-9.1-6.6-16.5-14.1-22c-0.6-0.4-1.9-0.7-2.3-0.4
			c-0.5,0.5-0.8,1.6-0.7,2.4c0.4,5.7,3.4,10.4,6.7,14.7c1.9,2.5,4.5,4.6,6.9,6.7c0.6,0.5,1.8,0.5,2.5,0.3
			C288.4,120.3,288.6,119.2,288.9,118.5z"/>
		<path class="st0" d="M373.1,313.4c-4-0.9-8.1-1.6-12.1-2.7c-2.1-0.6-3.8-1.9-3.9-4.3c-0.1-2.4,1.5-3.8,3.5-4.7
			c9.2-3.9,18.5-4.1,27.9-0.5c1.9,0.7,3.8,2.3,3.3,4.4c-0.3,1.5-1.7,3.2-3.1,4.1c-3.5,2.3-8.5,3.1-15.4,3.1
			C373.2,313,373.2,313.2,373.1,313.4z M375.3,301c-4.3,1-8.7,2-13.1,3.2c-0.8,0.2-2,1.4-1.9,1.9c0.2,0.8,1.2,1.9,2,2.1
			c2.6,0.8,5.3,1.5,8,1.8c5.7,0.5,11.5,0.2,16.8-2.5c0.8-0.4,1.4-1.3,2.1-2c-0.7-0.6-1.3-1.7-2.1-1.9
			C383.2,302.7,379.4,301.9,375.3,301z"/>
		<path class="st0" d="M313,292.4c-4.1-1-8.5-2-12.8-3.3c-1.9-0.5-3.3-2.3-2.9-4.1c0.3-1.5,1.6-3.4,2.9-4c3.6-1.4,7.4-2.6,11.2-3.1
			c5.1-0.6,10.3-0.5,15.3,1.3c2.4,0.9,5,1.8,5.3,4.9c0.3,2.1-1.7,4.5-5.1,5.4C322.6,290.7,318.1,291.4,313,292.4z M313.5,289.7
			c4.4-1,8.8-2,13.2-3.1c0.9-0.3,1.6-1.5,2.4-2.3c-0.8-0.7-1.5-1.7-2.4-2c-8.3-2.9-16.6-2.6-24.8,0.9c-0.7,0.3-1.7,1.2-1.7,1.9
			c0,0.6,1,1.6,1.7,1.8C305.7,287.9,309.5,288.7,313.5,289.7z"/>
		<path class="st0" d="M415.1,313.6c-4.2-1-8.4-1.9-12.5-3.1c-1.9-0.5-3.5-1.9-3.5-4.1c-0.1-2.3,1.5-3.6,3.4-4.5
			c5.3-2.7,11.1-3.5,17-3c3.6,0.3,7.2,1.2,10.7,2.1c2.2,0.6,4,2,3.9,4.6c0,2.5-1.9,3.6-3.8,4.5c-4.7,2.3-9.8,2.9-15.1,2.7
			C415.2,313.1,415.2,313.4,415.1,313.6z M417.5,301c-4.4,1-8.8,2-13.2,3.2c-0.8,0.2-1.4,1.3-2.1,1.9c0.7,0.7,1.3,1.9,2.2,2.1
			c3,0.8,6.1,1.7,9.2,1.9c5.5,0.3,11,0,16-2.7c0.7-0.4,1.5-1.2,1.7-1.9c0.1-0.4-1-1.4-1.7-1.6C425.6,302.8,421.7,302,417.5,301z"/>
		<path class="st0" d="M401.2,292.4c-4.2-0.9-8.4-1.7-12.5-2.9c-1.9-0.5-3.9-2-3.5-4.3c0.3-1.6,1.7-3.7,3.1-4.3
			c3.3-1.4,6.9-2.5,10.5-2.9c5.7-0.8,11.5-0.4,16.9,1.7c0.9,0.4,1.8,0.9,2.6,1.5c2.3,1.8,2.3,4.2,0.1,6.2c-3.6,3.2-8.3,3.7-12.8,4.2
			c-1.4,0.2-2.8,0-4.2,0C401.3,291.9,401.3,292.2,401.2,292.4z M403.5,279.8c-4.4,1-8.6,1.8-12.8,2.9c-1.1,0.3-1.8,1.6-2.7,2.5
			c1,0.8,1.9,2.1,3,2.2c4.6,0.7,9.2,1.4,13.8,1.3c3.5-0.1,7.1-1.5,10.5-2.6c0.7-0.2,1.4-1.2,1.6-2c0.1-0.4-0.9-1.4-1.6-1.5
			C411.4,281.7,407.5,280.8,403.5,279.8z"/>
		<path class="st0" d="M359,292.4c-4.2-1-8.4-1.9-12.5-3c-1.9-0.5-3.4-1.9-3.5-4.1c-0.1-2.3,1.3-3.7,3.3-4.6
			c9.2-4,18.5-4.2,27.9-0.8c2,0.7,3.6,2,3.6,4.3c0.1,2.4-1.7,3.7-3.6,4.7c-3.8,1.9-8.6,2.8-15.1,2.8
			C359.1,291.9,359,292.2,359,292.4z M357.1,289.1c6.3-0.2,11.1-0.5,15.7-2.7c0.9-0.4,1.5-1.4,2.3-2.1c-0.8-0.7-1.5-1.7-2.4-2
			c-8.3-2.9-16.6-2.6-24.8,0.8c-0.8,0.3-1.3,1.3-2,2c0.7,0.7,1.3,1.7,2.1,1.9C351.4,287.9,354.9,288.6,357.1,289.1z"/>
		<path class="st0" d="M327,313.3c-3.8-0.8-7.6-1.4-11.4-2.4c-2.2-0.6-4.3-2-4.4-4.6c-0.1-2.4,1.8-3.9,3.8-4.7
			c9.3-3.6,18.7-4.4,28-0.1c1.4,0.6,3,2.5,3,3.8c0,1.5-1.5,3.3-2.8,4.2C339.9,311.9,333.9,312.9,327,313.3z M329.7,301
			c-4.3,1-8.7,1.9-12.9,3.1c-0.9,0.3-1.6,1.4-2.4,2.2c0.9,0.8,1.7,1.9,2.7,2.3c4.6,1.8,9.4,2.1,14.2,1.5c3.5-0.5,6.9-1.6,10.3-2.6
			c0.7-0.2,1.3-1.2,1.9-1.8c-0.6-0.6-1.2-1.6-1.9-1.8C337.7,302.7,333.9,301.9,329.7,301z"/>
		<path class="st0" d="M336.4,154.9c0.9-1.7,1.4-3.5,2.5-4.3c1.7-1.3,3.8-0.6,5.6,0.6c5.8,3.7,9.6,9.2,12.4,15.3
			c1.3,2.9,2.3,6.1,2.6,9.2c0.4,4.4-2.8,6.2-6.7,4.1c-6-3.4-9.7-8.7-12.6-14.7C338.6,161.9,337.7,158.5,336.4,154.9z M339.8,155.8
			c1.9,8.4,6.2,16.2,14.4,21.4c0.5,0.3,1.7,0.4,2,0.1c0.4-0.5,0.6-1.5,0.5-2.2c-1.1-7.7-5.2-13.7-10.6-19c-1.1-1.1-2.4-2-3.8-2.8
			C340.7,152.4,339.9,153,339.8,155.8z"/>
		<path class="st0" d="M322.5,189.8c0.8-1.4,1.4-3.3,2.6-4.1c2-1.3,4.2-0.3,6,1c4.2,3.1,7.5,7.1,10,11.6c1.6,3,2.8,6.2,4,9.3
			c0.4,1,0.4,2.1,0.5,3.2c0,4-2.9,6.1-6.3,4.1c-3.2-1.9-6.1-4.6-8.6-7.4c-3.7-4.3-6.3-9.4-7.5-15c-0.2-0.8-0.2-1.6-0.3-2.5
			C322.8,190,322.7,189.9,322.5,189.8z M342.9,210.2c-0.1-0.5-0.2-1.4-0.4-2.2c-1.9-6.4-5.5-11.9-10.2-16.6c-0.9-0.9-2-1.8-3.1-2.5
			c-0.7-0.4-1.9-0.9-2.5-0.6c-0.5,0.2-0.7,1.5-0.7,2.4c0,1.3,0.1,2.8,0.7,3.9c2.2,4.2,4.3,8.4,7,12.2c1.6,2.3,4.2,4,6.6,5.6
			C341.9,213.5,342.8,212.8,342.9,210.2z"/>
		<path class="st0" d="M328,175.2c0,4.8-3.1,6.8-6.7,4.7c-2.4-1.4-4.7-3.2-6.5-5.3c-4.6-5.3-8.3-11.3-9.3-18.4
			c-0.2-1-0.1-2.2,0.2-3.2c0.5-2.1,1.8-3.1,4.2-2.8c3.6,0.5,5.9,3.1,8.1,5.4c4.4,4.7,7.6,10.3,9.5,16.5
			C327.8,173.2,327.9,174.5,328,175.2z M325.1,175.7c-0.1-6.6-8-19.2-14.1-22.3c-1.9-1-2.8-0.5-2.8,1.7c0.2,4.8,2.5,8.9,5,12.9
			c2.3,3.7,5.1,7,8.9,9.2C324.1,178.3,325.1,177.7,325.1,175.7z"/>
		<path class="st0" d="M366.9,246.2c-0.1,4-2.9,5.7-6.5,4.1c-4.1-1.8-7-5.2-9.3-8.8c-2.4-3.7-4.2-7.9-6.1-11.9
			c-0.4-0.8-0.6-1.8-0.6-2.6c-0.2-2.2-0.5-4.6,1.8-6.1c2.4-1.5,4.7-0.3,6.4,1.2c7.4,6.2,12.7,13.8,14.2,23.5
			C366.9,245.8,366.9,246,366.9,246.2z M364.4,245.6c-0.9-2.5-1.6-5.2-2.8-7.7c-2.6-5.3-5.9-10.2-10.9-13.7c-0.8-0.5-2-0.5-3-0.8
			c-0.2,0.9-0.8,2-0.5,2.8c1.2,3.5,2.3,7.1,4,10.4c2.3,4.3,5.2,8.1,9.4,10.7c0.8,0.5,1.9,0.6,2.8,0.5
			C363.8,247.8,364,246.6,364.4,245.6z"/>
		<path class="st0" d="M377.7,210.7c-0.8,1.5-1.2,3.3-2.3,4.3c-1.6,1.4-3.7,0.8-5.4-0.3c-5.8-3.7-9.8-9-12.5-15.1
			c-1.3-3.1-2.3-6.4-2.6-9.7c-0.4-4,2.6-6,6.1-4c2.7,1.5,5.4,3.5,7.1,6c3.1,4.4,5.6,9.4,8.1,14.2c0.7,1.3,0.7,2.9,1,4.3
			C377.4,210.5,377.6,210.6,377.7,210.7z M374.5,210.6c-0.1-0.3-0.1-0.7-0.2-1c-1.9-8.4-6.3-15.3-13.1-20.5c-0.8-0.6-2-0.6-3-0.8
			c-0.2,1-0.7,2.1-0.5,3c1,6.6,4.5,11.9,8.8,16.8c1.5,1.7,3.4,3.1,5.4,4.3C373.5,213.4,374.6,212.5,374.5,210.6z"/>
		<path class="st0" d="M398.5,245.9c-0.1,4.1-2.8,6.3-6.1,4.5c-3-1.6-5.8-4-7.9-6.6c-4.3-5.1-7.8-10.9-8.4-17.8
			c-0.1-1.6,0.4-3.9,1.5-4.9c1-0.8,3.2-0.3,4.8-0.2c0.6,0,1.3,0.5,1.8,0.9c7.2,6.1,12.3,13.4,14.3,22.8
			C398.5,245.2,398.5,245.7,398.5,245.9z M395.6,245.6c0-0.3,0.1-0.7,0-1c-2.2-8.4-6.7-15.3-13.6-20.6c-0.7-0.5-2-0.7-2.7-0.4
			c-0.4,0.2-0.5,1.6-0.5,2.4c0,0.8,0.1,1.7,0.4,2.4c2,4.1,3.8,8.3,6.4,12.1c1.9,2.7,4.5,5.1,7.3,7
			C394.8,249,395.8,248.1,395.6,245.6z"/>
		<path class="st0" d="M62.5,280.5c-1.4,9.1-5,17.5-12.3,24c-1.5,1.4-3.4,2.3-5.5,1.4c-2.1-1-2.5-3-2.5-5.1
			c0.2-7.4,3.3-13.7,7.2-19.6c1.3-1.9,3-3.5,4.7-5.1c1.6-1.6,3.6-2.6,5.9-1.6C62.4,275.5,62.3,277.9,62.5,280.5z M59.8,279.6
			c-0.3-0.7-0.5-2.1-1.3-2.5c-0.5-0.3-2,0.5-2.7,1.2c-6.4,6-9.9,13.4-10.7,22.1c-0.1,0.9,0.6,1.8,0.9,2.7c0.9-0.3,2-0.4,2.6-1
			C55.2,296.2,58.4,288.6,59.8,279.6z"/>
		<path class="st0" d="M59,334c-1.3,8.3-4.9,16.5-12,22.9c-1.6,1.4-3.5,2.5-5.7,1.5c-2.3-1-2.7-3.5-2.5-5.6c0.9-9.6,5-17.7,12-24.2
			c1.6-1.5,3.7-2.5,5.9-1.4C59,328.4,59.1,330.7,59,334z M41.5,353.2c0.3,0.7,0.5,2,1.3,2.4c0.5,0.3,1.9-0.3,2.6-0.9
			c6.4-6,9.9-13.4,11-22.1c0.1-0.9-0.6-1.9-1-2.9c-0.9,0.3-2,0.5-2.6,1.1C46.1,336.6,42.9,344.2,41.5,353.2z"/>
		<path class="st0" d="M56.3,317.8c0.7-7.9,3.8-14.9,8.7-21c1.2-1.5,2.6-2.8,4.1-3.9c3.5-2.6,6.9-1,7.2,3.3c0.3,4.7-1.1,9-3.1,13.2
			c-2.2,4.6-4.7,9-8.6,12.3c-1.7,1.4-3.6,2.7-5.9,1.7C56.4,322.3,56.2,320.1,56.3,317.8z M58.9,317.8c0.3,0.8,0.7,1.9,1.1,2.9
			c1-0.4,2.2-0.7,3-1.4c1.4-1.2,2.8-2.7,3.8-4.2c3.7-5.4,6.5-11.2,6.7-17.9c0-0.9-0.6-1.8-0.9-2.7c-0.8,0.3-1.8,0.4-2.4,0.9
			C63.7,301.4,60.4,308.9,58.9,317.8z"/>
		<path class="st0" d="M97.2,262.9c-0.9,9-4.9,16.6-11.1,23.1c-0.6,0.6-1.3,1.1-2,1.5c-3.8,2.2-7,0.5-6.9-3.9
			c0.2-10.4,4.8-18.8,12.4-25.7c1.6-1.4,3.6-2,5.6-0.9C97.4,258.4,97.2,260.7,97.2,262.9z M79.8,282.6c0.3,0.9,0.7,1.9,1.1,2.9
			c1.1-0.5,2.4-0.8,3.2-1.6c2.2-2.6,4.5-5.2,6.1-8.1c2.4-4.2,4.2-8.7,4.3-13.6c0-0.9-0.6-1.8-1-2.7c-0.8,0.3-1.8,0.4-2.4,1
			C84.5,266.3,81.1,273.7,79.8,282.6z"/>
		<path class="st0" d="M45,315.4c-0.4,6.1-2.8,11.9-6.4,17.2c-1.6,2.4-3.6,4.6-5.7,6.6c-1.6,1.6-3.6,2.6-5.9,1.5
			c-2.3-1.1-2.5-3.6-2.3-5.6c1.1-9.4,4.9-17.5,12-24c1.6-1.5,3.5-2.6,5.7-1.6C44.7,310.5,45.1,312.8,45,315.4z M42.4,315
			c-0.3-0.7-0.6-1.9-1.4-2.8c-0.2-0.2-1.9,0.4-2.5,1c-6.3,6-10,13.4-10.8,22.1c-0.1,0.9,0.7,1.9,1,2.9c0.9-0.4,1.9-0.5,2.6-1.1
			C37.7,331.2,40.9,323.9,42.4,315z"/>
		<path class="st0" d="M63.2,263.3c1.3-8,4.8-16.5,12.4-22.8c1.2-1,3.7-1.5,5.2-1c2,0.6,2.7,2.8,2.5,5c-0.8,9.6-4.8,17.7-11.6,24.4
			c-1.6,1.6-3.6,2.9-6,1.9C63.9,270.1,63.2,268.1,63.2,263.3z M65.8,264.8c0.3,0.8,0.7,2,1.1,3.2c1.1-0.5,2.4-0.8,3.2-1.6
			c6-5.9,9.5-13.2,10.4-21.5c0.1-0.9-0.6-1.9-0.9-2.9c-0.9,0.3-2,0.5-2.6,1.1C70.5,248.7,67.3,256,65.8,264.8z"/>
		<path class="st0" d="M98.6,204.5c1.1-9.3,4.9-17.3,11.6-23.9c0.5-0.5,1.2-0.9,1.9-1.2c3.4-1.8,6.4-0.5,6.4,3.2
			c0,3.6-0.4,7.4-1.7,10.7c-1.9,4.6-4.8,8.9-7.6,13.1c-0.9,1.4-2.6,2.6-4.2,3.4c-3.4,1.8-5.8,0.4-6.3-3.5
			C98.5,205.6,98.6,205,98.6,204.5z M101.4,204.4c0.2,0.7,0.5,1.8,0.9,3c1.1-0.5,2.5-0.9,3.4-1.6c4-3.4,6.4-8,8.2-12.9
			c1.1-3,1.6-6.2,2-9.4c0.2-2.1-1.2-2.8-2.8-1.4c-1.9,1.7-3.8,3.5-5.2,5.6C104.4,192.5,101.9,197.8,101.4,204.4z"/>
		<path class="st0" d="M132.8,200.9c-0.7,7.8-3.2,13.8-7,19.3c-1.5,2.2-3.4,4.3-5.4,6.1c-1.4,1.3-3.3,2.4-5.5,1.4
			c-2.2-1-2.5-3.1-2.4-5.1c0.3-8.5,4-15.6,9.2-22.1c0.8-1,1.7-1.8,2.6-2.6c1.7-1.4,4-2.7,5.9-1.3
			C131.7,197.7,132.3,199.9,132.8,200.9z M115.3,221.8c0.3,0.8,0.6,1.9,1,3.1c1.1-0.4,2.5-0.6,3.2-1.4c2.2-2.5,4.5-5,5.9-7.9
			c2-4.1,3.2-8.5,4.5-12.9c0.3-1.1-0.5-2.5-0.8-3.7c-1,0.4-2.2,0.6-3,1.3C119.8,206,116.6,213.2,115.3,221.8z"/>
		<path class="st0" d="M136.1,150.5c-1.4,8.4-5,17-12.6,23.4c-1.2,1-3.5,1.4-5.1,1c-2-0.5-2.6-2.7-2.5-4.7c0.7-9.9,4.6-18.2,12-24.9
			c1.5-1.4,3.4-2.5,5.6-1.5C135.4,144.6,136.2,146.3,136.1,150.5z M118.7,169.5c0.2,0.6,0.6,1.7,0.9,2.7c1.1-0.4,2.2-0.9,3.3-1.3
			c0.1,0,0.1-0.1,0.2-0.1c5.7-5.9,9.1-12.9,10.1-21.1c0.1-1-0.5-2.1-0.8-3.2c-1,0.4-2.3,0.5-3.1,1.2
			C123.3,153.4,119.7,160.5,118.7,169.5z"/>
		<path class="st0" d="M157.2,115.1c-0.6,5.5-2.8,11.2-6.2,16.4c-1.7,2.5-3.7,4.9-5.9,7c-1.6,1.6-4,2.7-5.8,1.2
			c-1.3-1.1-2.4-3.6-2.2-5.3c1-9.4,4.8-17.5,11.7-24.1c1.5-1.4,3.4-2.8,5.6-1.8C156.8,109.5,157.3,111.9,157.2,115.1z M139.6,134.6
			c0.3,0.7,0.4,2,1.1,2.5c0.4,0.3,1.9-0.2,2.6-0.8c6.6-6.1,10-13.7,11.1-22.5c0.1-0.8-0.3-2.2-0.8-2.4c-0.8-0.2-2,0.1-2.7,0.7
			C144.3,118,140.9,125.6,139.6,134.6z"/>
		<path class="st0" d="M171.4,130.9c-1.2,10.6-5.4,18.5-12.2,25c-1.5,1.5-3.7,2.6-5.9,1.4c-2.2-1.2-2.3-3.5-2.3-5.7
			c0-1.3,0.2-2.7,0.5-3.9c1.8-7.2,5.3-13.6,10.4-19c0.3-0.3,0.6-0.6,0.9-0.8c2-1.4,4.2-2.9,6.3-1.3
			C170.4,127.6,170.9,129.9,171.4,130.9z M153.4,151.9c0.4,0.8,0.6,2.1,1.5,2.7c0.4,0.3,2.1-0.4,2.7-1c6.2-6,9.8-13.3,10.9-21.9
			c0.1-0.9-0.4-2.4-1.1-2.8c-0.6-0.3-2.1,0.3-2.8,0.9C158.3,135.7,155.1,143.1,153.4,151.9z"/>
		<path class="st0" d="M129.9,186.6c1.1-9.4,5.2-17.3,11.9-24c1.7-1.7,4.1-2.3,6.2-1.2c2,1,2.2,3.2,2,5.3
			c-0.8,9.4-4.9,17.3-11.5,23.9c-1.7,1.7-3.9,3-6.3,1.9C130,191.5,129.8,189,129.9,186.6z M132.6,187.2c0.2,0.7,0.6,1.6,0.9,2.6
			c1-0.4,2.1-0.7,3.1-1.1c0.3-0.1,0.5-0.4,0.7-0.7c5.7-5.9,9-12.9,10-21c0.1-1-0.5-2.1-0.8-3.2c-1,0.4-2.3,0.4-3,1.1
			C137.3,171,133.7,178.3,132.6,187.2z"/>
		<path class="st0" d="M207.3,293.3c-3.9-0.8-7.8-1.6-11.6-2.5c-0.6-0.1-1.4-0.4-1.8-0.9c-1.1-1.3-2.9-2.8-2.8-4
			c0.1-1.5,1.7-3.3,3.1-4.1c2.5-1.3,5.3-2.2,8-2.6c6.4-0.9,12.8-1.1,19,1.2c0.2,0.1,0.5,0.1,0.7,0.2c2,1,4.1,1.9,4.2,4.5
			c0.1,2.6-1.8,4.1-3.8,4.7c-3.9,1.2-7.9,1.9-11.9,2.7c-1,0.2-2,0-3,0C207.4,292.9,207.3,293.1,207.3,293.3z M209.5,280.9
			c-4.2,0.8-8.2,1.5-12.1,2.6c-1.3,0.4-2.3,1.9-3.4,2.9c1.2,0.8,2.3,1.9,3.6,2.3c7.2,2.2,14.4,1.8,21.5-0.3c0.6-0.2,1.3-0.4,1.8-0.8
			c0.8-0.6,1.5-1.4,2.3-2.1c-0.8-0.7-1.5-1.7-2.4-1.9C217.1,282.4,213.3,281.7,209.5,280.9z"/>
		<path class="st0" d="M263.6,314.3c-3.4-0.5-6.9-0.9-10.3-1.7c-1.7-0.4-3.4-1.4-4.7-2.6c-1.7-1.4-1.6-3.8,0-5.2
			c1.3-1.1,2.8-2.1,4.4-2.7c8.1-2.9,16.3-2.9,24.4-0.3c0.6,0.2,1.1,0.4,1.6,0.7c1.6,0.9,3.5,2.1,3,4.1c-0.4,1.6-1.6,3.3-3,4.2
			C274.4,313.6,269.1,314,263.6,314.3z M264.4,311.8c4.6-0.6,8.9-1.1,12.9-3.3c0.8-0.4,1.4-1.3,2.1-1.9c-0.7-0.6-1.3-1.5-2.1-1.9
			c-4.7-2.2-9.7-2.4-14.7-1.9c-3.4,0.4-6.8,1.4-10.1,2.4c-0.8,0.3-1.7,1.4-1.9,2.3c-0.1,0.4,1.2,1.6,2,1.8
			C256.5,310.3,260.5,311,264.4,311.8z"/>
		<path class="st0" d="M222,314.3c-4.2-0.7-8.3-1.2-12.4-2.1c-2.2-0.5-3.8-2.1-4.2-4.4c-0.4-2.3,1.1-3.5,2.8-4.5
			c4.2-2.4,8.8-3.1,13.4-3.2c3.6-0.1,7.3,0.5,10.9,0.9c1.4,0.2,2.8,0.9,4.2,1.4c1.9,0.8,3.9,2.2,3.5,4.3c-0.3,1.6-1.8,3.6-3.3,4.2
			c-3.9,1.4-8,2.1-12,3c-0.9,0.2-1.8,0-2.7,0C222.1,314,222,314.1,222,314.3z M237.8,306.2c-1.3-0.7-2.2-1.6-3.4-1.9
			c-3-0.7-6-1.1-9-1.7c-1.2-0.2-2.4-0.6-3.5-0.5c-1.9,0.2-3.9,0.6-5.7,1.2c-2.2,0.6-4.3,1.3-6.3,2.1c-0.6,0.3-1.4,1.2-1.4,1.8
			c0,0.5,0.9,1.2,1.5,1.6c1.9,1.4,3.9,2,6.3,1.9c4.8-0.3,9.7-0.1,14.6-0.6C233.4,309.9,235.9,309,237.8,306.2z"/>
		<path class="st0" d="M252.4,278.4c3.7,0.7,7.4,1.4,11.1,2.2c0.7,0.1,1.4,0.5,2,0.9c3.5,2.1,3.6,5.6,0.1,7.7
			c-2.1,1.2-4.5,2.2-6.9,2.7c-7.2,1.4-14.3,1.6-21.3-1.1c-0.6-0.2-1.2-0.6-1.8-0.9c-3.2-2.1-3.4-5.7,0-7.3c3.8-1.7,8-2.6,12-3.6
			c1.4-0.4,3-0.1,4.5-0.1C252.3,278.8,252.3,278.6,252.4,278.4z M254.9,281.4c-6.4,0.2-11.5,0.3-16.2,2.5c-0.9,0.4-1.6,1.5-2.3,2.3
			c0.8,0.7,1.5,1.7,2.4,2c2.6,0.8,5.3,1.5,8,1.8c5.7,0.5,11.3-0.1,16.6-2.5c0.8-0.4,1.3-1.4,1.9-2.1c-0.7-0.6-1.3-1.6-2.2-1.8
			C260,282.6,256.8,281.9,254.9,281.4z"/>
		<path class="st0" d="M378.1,58.3c4,0.4,8,0.5,11.9,1.3c3.8,0.8,5.5,3.4,5.6,7.2c0.1,4.3-1.1,6.8-5,7.8c-4,1-8.1,1-12.5,1.5
			C378.1,70,378.1,64.5,378.1,58.3z"/>
		<path class="st0" d="M377.9,49.8c0-1.3,0-2.1,0-3c0-3.8,0-7.6,0-11.9c3.6,0.2,7.1,0.1,10.4,0.7c4,0.7,5.5,3.1,5.4,7.1
			c-0.1,3.4-2.1,5.8-6.1,6.4C384.6,49.5,381.5,49.5,377.9,49.8z"/>
		<path class="st0" d="M503.3,274.9c0-5.2,0-10.3,0-16.1c4.2,0.5,8.3,0.7,12.3,1.6c3,0.7,4.2,3.3,4.2,6.6c0,3.2-1.4,5.4-4.3,6.6
			C511.5,275.4,507.4,275,503.3,274.9z"/>
		<path class="st0" d="M489.9,177c2.8-8,5.5-15.9,8.2-23.8c0.2,0,0.4-0.1,0.6-0.1c2.8,7.9,5.5,15.8,8.3,23.9
			C501.2,177,495.7,177,489.9,177z"/>
		<path class="st0" d="M836.5,37.2c3,8.7,5.8,16.6,8.7,24.7c-5.8,0-11.4,0-17.2,0C830.8,53.7,833.6,45.8,836.5,37.2z"/>
		<path class="st0" d="M450.6,62c-5.9,0-11.5,0-17.4,0c2.8-8.1,5.6-16,8.6-24.5C444.8,45.9,447.7,53.8,450.6,62z"/>
	</g>
</g>
</svg>
