<?xml version="1.0" encoding="utf-8"?>
<!-- Generator: Adobe Illustrator 26.3.1, SVG Export Plug-In . SVG Version: 6.00 Build 0)  -->
<svg version="1.1" id="layer" xmlns="http://www.w3.org/2000/svg" xmlns:xlink="http://www.w3.org/1999/xlink" x="0px" y="0px"
	 viewBox="0 0 652 148" style="enable-background:new 0 0 652 148;" xml:space="preserve">
<style type="text/css">
	.st0{fill-rule:evenodd;clip-rule:evenodd;fill:#0000FF;}
</style>
<g>
	<path class="st0" d="M438.4,100.5c0,0,5.3,4.7,15.8,4.7c8.5,0,12.6-5,12.6-11.1c0-5.9-5.2-9.3-9.9-11.9l-6.6-3.6
		c-10.6-5.8-15.2-13-15.2-22c0-16.1,10.7-26.1,26.1-26.1c12.5,0,19.8,4.3,19.8,4.3l-3.2,14.1c-4.1-3.6-9-4.8-14.5-4.8
		c-7.3,0-11.6,4.7-11.6,10.6c0,4.8,2.6,7.5,6.8,9.7l8.2,4.3c12.9,6.8,17.3,13.9,17.3,23.9c0,16.4-11.6,26.5-29.2,26.5
		c-13.1,0-19.8-3.9-19.8-3.9L438.4,100.5z M135.8,89.4l-7.7-27c-1.1-3.8-2.3-9.7-2.3-9.7s-1.2,5.9-2.3,9.7l-7.6,27H135.8z
		 M161.9,117.8h-18.7l-4.5-16h-25.9l-4.4,16H92.9l22.5-74.9c0.6-2.1,1-3.3,1-4.5c0-3.4-2.4-6.4-2.4-6.4h20.6L161.9,117.8z
		 M381.2,103.4l-3.4,14.3h-42.5V32h44.9l-3.4,14.1H352v21.4h23.9l-3.3,13.8H352v22.1H381.2z M173.6,32h16.8v85.8h-16.8V32z
		 M291.1,81.3v36.5h-17V32H319l-3.2,14.1H291v21.4h23.7l-3.2,13.8H291.1z M230.2,81.3v36.5h-16.7V32h44.9l-3.2,14.1h-25.1v21.4H254
		l-3.2,13.8H230.2z M547.3,103.4l-3.4,14.3h-42.5V32h44.9L543,46.1h-25v21.4h24l-3.3,13.8h-20.6v22.1H547.3z M399.9,32h16.8v85.8
		h-16.8V32z M42,117.8H25.2V31.2c13.6,0,21.7-0.7,28.1-0.7c17.4,0,30.2,7.6,30.2,26.3c0,11.3-6.8,20.1-16.7,22.8
		c0,0,2.5,3.1,4.1,6.6l14.7,31.7h-19L50.4,82.7c-4.1-8.9-6.8-10.8-6.8-10.8c1.7,0.1,3.3,0.1,4.6,0.1c12.2,0,18-5.6,18-14.7
		c0-9-6.4-13.1-15.9-13.1c-5,0-8.4,0.4-8.4,0.4v73.2H42z M625.2,117.8h-6.8l-27.6-41.4c-5.2-7.8-10.5-16.5-10.5-16.5
		s0.2,8.7,0.2,16.5v41.4h-14.1V46.1c0-3.7-0.4-5.7-1.4-8.3c-1.6-3.4-4-5.8-4-5.8h19.6l19.9,29.1c5.3,7.7,11,16.8,11,16.8
		s-0.4-9-0.4-16.8V32h14L625.2,117.8"/>
</g>
</svg>
