<?xml version="1.0" encoding="utf-8"?>
<!-- Generator: Adobe Illustrator 26.3.1, SVG Export Plug-In . SVG Version: 6.00 Build 0)  -->
<svg version="1.1" id="Ebene_1" xmlns="http://www.w3.org/2000/svg" xmlns:xlink="http://www.w3.org/1999/xlink" x="0px" y="0px"
	 viewBox="0 0 283.8 56.8" style="enable-background:new 0 0 283.8 56.8;" xml:space="preserve">
<style type="text/css">
	.st0{fill:#0000FF;}
</style>
<g>
	<path class="st0" d="M256.6,43.1c-0.5,3.5-1.1,7-1.5,10.6c-0.2,1.8-1,2.5-2.9,2.5c-5.5-0.1-5.5,0-4.5-5.5
		c1.5-8.3,2.8-16.6,4.3-24.9c0.2-1,1.1-1.8,1.6-2.7c0.8,0.7,1.9,1.3,2.4,2.2c2.8,5,5.5,10.1,8.2,15.1c0.4,0.7,0.8,1.4,1.5,2.5
		c2-3.7,3.8-7,5.5-10.2c1.5-2.7,2.8-5.5,4.4-8.1c0.4-0.7,1.4-1.4,2.1-1.4c0.6,0.1,1.4,1.2,1.5,1.9c1.5,8.5,2.9,17.1,4.3,25.6
		c0.4,2.2-0.5,3.7-2.4,4.7c-3,1.6-4.5,0.8-5-2.5c-0.5-3.2-1-6.5-1.5-9.7c-0.2,0-0.5-0.1-0.7-0.1c-1.9,3.7-3.8,7.3-5.7,11
		c-0.4,0.7-1,1.7-1.7,1.9c-1.3,0.4-2.5,0.1-3.2-1.4c-1.5-3.2-3.3-6.4-4.9-9.5c-0.4-0.7-0.8-1.4-1.2-2.1C257,43,256.8,43,256.6,43.1z
		"/>
	<path class="st0" d="M45.8,56.3c-9.2-0.2-15.7-5.7-16.6-14.2c-0.9-9.2,4.6-17.1,13.3-18.9c8.4-1.8,17.3,3.6,19.7,11.9
		c2.4,8.3-1.8,17.5-9.8,20.5C50.5,56.4,48.1,56.1,45.8,56.3z M46.1,48.9c4.8,0,8.9-4.1,8.9-9c0-5.1-4-9-9.1-8.9
		c-4.9,0.1-8.8,4.1-8.8,9C37.2,44.9,41.2,48.9,46.1,48.9z"/>
	<path class="st0" d="M222.9,56.3c-9.4-0.2-15.8-5.6-16.7-14.4c-0.9-9.1,4.9-17.1,13.6-18.8c8.5-1.6,16.9,3.5,19.5,11.9
		c2.5,8.3-2,17.8-10,20.7C227.3,56.4,225,56.1,222.9,56.3z M222.9,31c-4.9,0-8.8,4-8.8,9c0,4.9,4.1,8.9,8.9,8.9c4.8,0,8.9-4.1,9-8.9
		C232,34.9,227.9,30.9,222.9,31z"/>
	<path class="st0" d="M79.9,39.7c0,4.4-0.1,8.8,0,13.2c0.1,2.4-0.5,3.6-3.2,3.2c-1.4-0.2-2.8,0-4.4,0c-0.1-1.1-0.3-1.9-0.3-2.7
		c0-9.2,0-18.3,0-27.5c0-1,0.6-1.9,1-2.9c0.9,0.4,2.1,0.6,2.8,1.3c4.7,4.4,9.4,9,14.1,13.5c0.6,0.6,1.3,1.2,2.6,2.3
		c0-3.6,0-6.5,0-9.5c0-0.8,0-1.7,0-2.5c0-4.8,1.4-5.8,6.1-4.8c1.8,0.4,1.9,1.6,1.9,3c0,9,0,18,0,27c0,0.9-0.6,2.6-0.9,2.6
		c-1.1,0-2.6-0.2-3.3-1c-4.7-4.5-9.2-9.2-13.8-13.8c-0.6-0.6-1.3-1.2-1.9-1.8C80.3,39.5,80.1,39.6,79.9,39.7z"/>
	<path class="st0" d="M198.2,56c-2.8,0-5.2,0.1-7.6-0.1c-0.5,0-1.2-0.8-1.5-1.4c-1.6-3-3-6.1-4.7-9.1c-0.4-0.8-1.6-1.1-2.4-1.7
		c-0.4,0.8-1.1,1.6-1.1,2.4c-0.1,3.2-0.1,6.4-0.1,9.8c-2.8,0-5.1,0-7.5,0c-0.1-1.1-0.3-2.1-0.3-3.1c0-8.7,0-17.5,0-26.2
		c0-3.1,0.3-3.4,3.5-3.4c3.9,0,7.8-0.1,11.7,0.1c5.1,0.3,8.6,3.1,9.9,7.7c1.2,4.2-0.5,8.3-4.7,11.1c-1.4,0.9-1.4,1.8-0.7,3.1
		c1.4,2.5,2.8,5.1,4.2,7.7C197.4,53.7,197.6,54.7,198.2,56z M184.8,37c1,0,2.2,0.3,2.9-0.1c1.1-0.6,2.2-1.6,2.6-2.7
		c0.6-1.6-0.3-3.1-2-3.4c-2.1-0.3-4.3-0.3-6.4-0.2c-0.4,0-0.9,0.7-1.1,1.1C179.8,35.6,181,37.1,184.8,37z"/>
	<path class="st0" d="M120.9,56.8c-2.8-0.8-5.7-1.4-8.3-2.6c-2.3-1.1-2.1-2.1-0.3-5.2c1.1-1.9,2.2-2,4-0.9c1.4,0.9,3.2,1.5,4.9,1.6
		c0.9,0.1,2.4-0.7,2.7-1.5c0.3-0.8-0.2-2.2-0.9-3c-0.8-0.9-2-1.4-3.1-2.1c-1.8-1.1-3.7-1.9-5.4-3.2c-3.2-2.4-4.7-5.6-3.7-9.6
		c1-4.1,3.9-6.4,7.8-7.1c4.3-0.8,8.3,0.2,11.9,2.6c1.5,1,1.9,2.1,0.7,3.5c-1.2,1.4-1.6,4-4.5,2.8c-1.7-0.8-3.5-1.6-5.3-2
		c-0.8-0.2-2.3,0.6-2.6,1.3c-0.3,0.7,0.3,2.2,1,2.7c1.7,1.2,3.6,2.1,5.4,3.1c2.9,1.6,5.7,3.2,6.9,6.5c2.3,6.4-2.1,12.5-8.8,12.5
		c-0.8,0-1.7,0-2.5,0C121.1,56.3,121,56.6,120.9,56.8z"/>
	<path class="st0" d="M7.7,43.2c0-3.3,0-6.7,0-10c0-1.7-0.7-2.5-2.4-2.3c-0.1,0-0.2,0-0.2,0c-4.8-0.1-5.9-1.4-4.7-6.2
		c0.2-0.6,1.2-1.4,1.9-1.4c6.2-0.1,12.3-0.2,18.5,0c0.8,0,1.8,1.3,2.3,2.2c0.4,0.6,0.1,1.6,0.1,2.5c0.1,2-0.9,2.8-2.9,2.9
		c-4.8,0.1-4.8,0.2-4.8,5.1c0,5.9,0,11.8,0,17.7c0,1.8-0.5,2.5-2.4,2.5c-6-0.2-5.4,0.9-5.4-5.2C7.7,48.3,7.7,45.7,7.7,43.2z"/>
	<path class="st0" d="M148.2,43.2c0-3.2-0.1-6.3,0.1-9.5c0.2-2.4-0.8-3.2-3-2.9c-0.1,0-0.2,0-0.2,0c-4.1,0-5.7-2.2-4.2-6
		c0.3-0.7,1.6-1.5,2.5-1.5c5.9-0.1,11.8-0.1,17.7-0.1c1.9,0,2.8,0.9,2.6,2.8c0,0.6,0,1.2,0,1.7c0.2,2.3-0.8,3.2-3.1,3.1
		c-4.6-0.1-4.4-0.4-4.4,4.5c0,5.9-0.1,11.8,0,17.7c0,2.2-0.5,3.2-2.9,3c-5.5-0.3-4.9,0.8-5-4.9C148.2,48.6,148.2,45.9,148.2,43.2z"
		/>
	<path class="st0" d="M266.1,0c2.5,0,4.8,2.5,4.8,5.1c0,2.6-2.2,4.8-4.7,4.9c-2.6,0.1-4.9-2.2-4.9-4.9C261.3,2.4,263.6,0,266.1,0z"
		/>
	<path class="st0" d="M50.5,5c0,2.3-1.8,4.3-4.2,4.4c-2.4,0.1-4.6-1.9-4.6-4.3c-0.1-2.2,1.9-4.3,4.2-4.4C48.3,0.6,50.4,2.5,50.5,5z"
		/>
	<path class="st0" d="M227.6,4.9c0,2.4-1.7,4.3-4.1,4.4c-2.5,0.1-4.5-1.8-4.5-4.3c0-2.4,1.8-4.2,4.2-4.3
		C225.7,0.7,227.6,2.5,227.6,4.9z"/>
	<path class="st0" d="M90.2,5c0,1.8-1.8,3.7-3.6,3.8C84.7,8.9,82.8,7,82.8,5c0-2,1.7-3.7,3.7-3.6C88.4,1.3,90.2,3.1,90.2,5z"/>
	<path class="st0" d="M185.6,8.2c-1.8-0.3-2.8-1.4-2.9-3.3c0-1.8,1.8-3.2,3.6-3c1.7,0.2,3.2,1.8,2.9,3.4
		C188.8,7.1,187.8,8.2,185.6,8.2z"/>
	<path class="st0" d="M14.5,5.1c-0.3,1.8-1.3,3.2-3,2.8c-1.1-0.3-2.6-1.7-2.8-2.8c-0.3-1.7,1-3,2.8-3C13.3,2,14.3,3.2,14.5,5.1z"/>
	<path class="st0" d="M155.4,5.1c-0.4,1.7-1.4,3.2-3.2,2.7c-1.1-0.3-2.5-1.7-2.7-2.8c-0.3-1.7,1-3,2.9-3
		C154.3,2.1,155.2,3.3,155.4,5.1z"/>
	<path class="st0" d="M119.2,5c0.2-1.8,1.2-3,3-2.9c1.8,0,2.9,1.3,2.9,3.1C125,6.8,124,8,122.2,8C120.3,8,119.4,6.9,119.2,5z"/>
</g>
</svg>
