<?xml version="1.0" encoding="utf-8"?>
<!-- Generator: Adobe Illustrator 26.3.1, SVG Export Plug-In . SVG Version: 6.00 Build 0)  -->
<svg version="1.1" id="Ebene_1" xmlns="http://www.w3.org/2000/svg" xmlns:xlink="http://www.w3.org/1999/xlink" x="0px" y="0px"
	 viewBox="0 0 67.15 47.92" style="enable-background:new 0 0 67.15 47.92;" xml:space="preserve">
<style type="text/css">
	.st0{clip-path:url(#SVGID_00000107562329299382768600000013497992044391585690_);fill:#0000FF;}
</style>
<g>
	<defs>
		<rect id="SVGID_1_" width="67.15" height="47.92"/>
	</defs>
	<clipPath id="SVGID_00000008111289809615571650000010791401492263551166_">
		<use xlink:href="#SVGID_1_"  style="overflow:visible;"/>
	</clipPath>
	<path style="clip-path:url(#SVGID_00000008111289809615571650000010791401492263551166_);fill:#0000FF;" d="M34.87,0h1.16
		c0.19,0.02,0.38,0.03,0.58,0.05c0.22,0.02,0.43,0.02,0.65,0.05c0.42,0.06,0.83,0.12,1.25,0.2c0.54,0.11,1.08,0.23,1.61,0.38
		c0.64,0.19,1.27,0.4,1.89,0.63c0.43,0.15,0.84,0.34,1.26,0.51c0.08,0.03,0.1,0.08,0.1,0.16c0,0.57,0,1.14,0,1.71
		c0,0.03,0,0.05-0.01,0.09c-0.31-0.15-0.6-0.3-0.9-0.44c-0.3-0.14-0.6-0.28-0.9-0.41c-0.08-0.04-0.14-0.03-0.21,0.04
		c-0.23,0.25-0.46,0.5-0.69,0.74c-0.38,0.4-0.76,0.79-1.14,1.19c-0.37,0.39-0.75,0.78-1.12,1.17c-0.37,0.39-0.75,0.78-1.12,1.17
		c-0.41,0.42-0.81,0.85-1.22,1.27c-0.16,0.16-0.31,0.33-0.47,0.49c-0.38,0.4-0.76,0.8-1.15,1.2c-0.34,0.35-0.67,0.69-1.01,1.04
		c-0.01,0.01-0.02,0.03-0.03,0.04c0.07,0.06,0.14,0.12,0.21,0.18c0.4,0.38,0.79,0.76,1.19,1.14c0.43,0.41,0.86,0.83,1.29,1.24
		c0.41,0.39,0.81,0.78,1.22,1.17c0.42,0.4,0.84,0.8,1.25,1.2c0.41,0.39,0.82,0.78,1.22,1.18c0.47,0.45,0.94,0.91,1.41,1.36
		c0.32,0.31,0.64,0.63,0.97,0.94c0.02,0.02,0.05,0.03,0.07,0.05c0.05,0.05,0.09,0.04,0.15,0.01c0.28-0.15,0.57-0.29,0.85-0.43
		c0.03-0.02,0.07-0.03,0.12-0.05c0,0.6,0,1.17,0,1.75c0,0.03-0.04,0.07-0.07,0.09c-0.48,0.23-0.96,0.47-1.45,0.67
		c-0.53,0.21-1.07,0.4-1.62,0.57c-0.45,0.14-0.92,0.27-1.38,0.36c-0.47,0.1-0.94,0.17-1.42,0.23c-0.37,0.05-0.74,0.07-1.12,0.1
		c-0.04,0-0.09,0.02-0.13,0.02H35c-0.03-0.01-0.05-0.02-0.08-0.02c-0.32-0.03-0.64-0.04-0.96-0.08c-0.44-0.06-0.88-0.14-1.32-0.22
		c-0.93-0.18-1.82-0.51-2.68-0.91c-0.54-0.26-1.06-0.57-1.56-0.91c-0.45-0.32-0.89-0.66-1.28-1.04c-0.25-0.24-0.49-0.49-0.72-0.74
		c-0.19-0.21-0.39-0.43-0.55-0.66c-0.27-0.39-0.52-0.78-0.77-1.18c-0.33-0.53-0.57-1.1-0.78-1.68c-0.26-0.71-0.47-1.44-0.56-2.2
		c-0.05-0.4-0.08-0.8-0.13-1.2c0-0.04-0.02-0.08-0.02-0.11v-1.11c0.02-0.15,0.03-0.31,0.05-0.46c0.03-0.31,0.05-0.63,0.11-0.94
		c0.11-0.52,0.23-1.04,0.37-1.54c0.24-0.84,0.61-1.63,1.06-2.39c0.44-0.75,0.97-1.43,1.57-2.06c0.28-0.29,0.59-0.55,0.89-0.82
		c0.44-0.39,0.92-0.71,1.42-1.02c0.73-0.46,1.51-0.82,2.32-1.1c0.71-0.25,1.43-0.44,2.18-0.53c0.41-0.05,0.83-0.09,1.24-0.13
		C34.83,0.02,34.85,0.01,34.87,0 M29.94,3.15c-0.62,0.4-1.19,0.85-1.69,1.37c-0.22,0.23-0.42,0.48-0.63,0.73
		c-0.47,0.57-0.84,1.2-1.16,1.87c-0.31,0.65-0.53,1.33-0.7,2.03c-0.15,0.62-0.23,1.25-0.26,1.89c-0.02,0.42,0,0.85,0.02,1.27
		c0.02,0.33,0.04,0.66,0.1,0.99c0.09,0.49,0.19,0.99,0.33,1.47c0.2,0.75,0.53,1.45,0.93,2.12c0.28,0.47,0.59,0.92,0.96,1.32
		c0.24,0.26,0.49,0.51,0.75,0.75c0.26,0.23,0.53,0.45,0.81,0.66c0.16,0.13,0.35,0.23,0.53,0.36V3.15z M31.46,11.31v0.15v9.12
		c0,0.02-0.01,0.05,0,0.06c0.02,0.04,0.05,0.1,0.08,0.12c0.35,0.12,0.7,0.25,1.06,0.33c0.5,0.11,1,0.21,1.51,0.28
		c0.39,0.06,0.78,0.08,1.18,0.1c0.26,0.01,0.53,0,0.79-0.02c0.48-0.03,0.95-0.07,1.43-0.13c0.36-0.05,0.72-0.1,1.07-0.2
		c0.64-0.17,1.28-0.37,1.92-0.56c0.15-0.05,0.3-0.12,0.47-0.18c-0.05-0.04-0.08-0.06-0.1-0.09c-0.39-0.37-0.78-0.75-1.17-1.12
		c-0.4-0.38-0.79-0.76-1.19-1.14c-0.38-0.37-0.77-0.74-1.15-1.1c-0.39-0.37-0.78-0.75-1.17-1.12c-0.38-0.37-0.77-0.74-1.15-1.1
		c-0.39-0.37-0.77-0.74-1.16-1.11c-0.4-0.38-0.8-0.76-1.19-1.14c-0.33-0.31-0.65-0.63-0.98-0.95
		C31.62,11.44,31.55,11.39,31.46,11.31 M31.46,11.27c0.03-0.02,0.04-0.03,0.05-0.04c0.42-0.44,0.85-0.88,1.27-1.32
		c0.23-0.24,0.45-0.47,0.68-0.71c0.22-0.23,0.44-0.45,0.66-0.68c0.22-0.23,0.44-0.45,0.65-0.68c0.44-0.46,0.88-0.91,1.32-1.37
		c0.22-0.23,0.44-0.45,0.65-0.68c0.22-0.23,0.44-0.45,0.65-0.68c0.44-0.46,0.88-0.91,1.32-1.37c0.4-0.41,0.79-0.81,1.19-1.22
		c0.04-0.04,0.08-0.1,0.13-0.16c-0.16-0.05-0.31-0.08-0.45-0.12c-0.81-0.26-1.65-0.42-2.49-0.52c-0.46-0.06-0.92-0.09-1.38-0.1
		c-0.42-0.01-0.85,0.02-1.28,0.05c-0.34,0.03-0.67,0.07-1.01,0.12c-0.63,0.1-1.25,0.28-1.85,0.51c-0.11,0.04-0.12,0.09-0.12,0.19
		c0,2.88,0,5.75,0,8.63V11.27z"/>
	<path style="clip-path:url(#SVGID_00000008111289809615571650000010791401492263551166_);fill:#0000FF;" d="M0,43.65l0.11-0.09
		c0.01-0.09,0.06-0.19,0.16-0.3c0.1-0.12,0.25-0.25,0.43-0.41c0.12-0.08,0.24-0.17,0.37-0.25c0.13-0.08,0.25-0.16,0.37-0.26
		c0.49-0.42,0.97-0.83,1.43-1.22c0.27-0.23,0.53-0.43,0.8-0.6c0.26-0.17,0.52-0.3,0.75-0.4c0.16-0.21,0.47-0.43,0.92-0.64
		c0.45-0.22,0.81-0.33,1.1-0.33c0.11,0,0.2,0.03,0.26,0.09c0.07,0.06,0.11,0.14,0.12,0.23v0.64c0,0.23-0.06,0.43-0.19,0.6
		c-0.13,0.18-0.32,0.34-0.58,0.49c-0.17,0.08-0.34,0.16-0.52,0.26c-0.17,0.09-0.34,0.18-0.52,0.26c-0.06,0.08-0.23,0.22-0.5,0.44
		c-0.27,0.22-0.63,0.5-1.09,0.86c-0.21,0.16-0.39,0.31-0.53,0.44c-0.14,0.13-0.24,0.23-0.29,0.31c-0.08,0.15-0.14,0.31-0.18,0.49
		c-0.04,0.18-0.07,0.39-0.07,0.62c0,0.18,0.03,0.33,0.08,0.46c0.05,0.13,0.14,0.23,0.25,0.31c0.08,0.05,0.19,0.11,0.32,0.16
		c0.14,0.06,0.31,0.11,0.51,0.16c0.12-0.05,0.27-0.09,0.46-0.13c0.19-0.04,0.4-0.1,0.64-0.17c0.27-0.15,0.54-0.32,0.81-0.49
		c0.28-0.17,0.55-0.35,0.82-0.53c0.04-0.02,0.09-0.05,0.15-0.08c0.06-0.03,0.12-0.07,0.18-0.12c0.08-0.1,0.18-0.22,0.32-0.35
		c0.14-0.13,0.3-0.28,0.5-0.46c0.32,0.68,0.47,1.03,0.47,1.07C7.59,44.96,7.3,45.2,7,45.45c-0.3,0.25-0.64,0.45-1.02,0.6
		c-0.12,0.1-0.23,0.19-0.32,0.28c-0.39,0.39-0.85,0.69-1.36,0.88c-0.52,0.2-1.11,0.3-1.78,0.3c-0.15,0-0.28-0.01-0.4-0.03
		c-0.12-0.02-0.22-0.06-0.29-0.09c-0.24-0.16-0.43-0.29-0.6-0.41c-0.17-0.12-0.32-0.24-0.43-0.36c-0.12-0.11-0.2-0.22-0.26-0.32
		c-0.07-0.11-0.12-0.24-0.15-0.4c-0.03-0.16-0.04-0.35-0.04-0.57c0-0.06,0.02-0.16,0.06-0.3c0.04-0.14,0.06-0.24,0.06-0.29
		c-0.06-0.17-0.12-0.35-0.2-0.53S0.1,43.84,0,43.65"/>
	<path style="clip-path:url(#SVGID_00000008111289809615571650000010791401492263551166_);fill:#0000FF;" d="M7.39,43.65
		c0.03-0.02,0.06-0.06,0.09-0.1c0.03-0.04,0.07-0.11,0.11-0.2c0.05-0.08,0.11-0.16,0.2-0.25s0.19-0.19,0.31-0.3
		c0.22-0.18,0.42-0.41,0.59-0.68c0.18-0.27,0.35-0.58,0.52-0.93c0.23-0.49,0.43-0.91,0.62-1.25c0.19-0.34,0.36-0.61,0.51-0.79
		c0.05-0.18,0.14-0.46,0.28-0.85c0.14-0.39,0.33-0.9,0.56-1.52c0.23-0.59,0.42-1.08,0.57-1.45c0.16-0.37,0.27-0.63,0.35-0.77
		c0.03-0.06,0.07-0.12,0.12-0.21c0.05-0.09,0.09-0.19,0.12-0.32c0.11-0.37,0.24-0.71,0.39-1.03c0.15-0.32,0.3-0.62,0.46-0.9
		c0.04-0.07,0.09-0.12,0.15-0.16c0.06-0.04,0.12-0.06,0.18-0.06c0.31,0,0.55,0.12,0.7,0.36c0.15,0.24,0.23,0.6,0.23,1.07
		c0,0.52-0.17,1.25-0.5,2.17c-0.34,0.92-0.85,2.05-1.55,3.37c-0.14,0.3-0.29,0.66-0.46,1.09c-0.16,0.43-0.33,0.92-0.49,1.48
		c-0.13,0.43-0.26,0.87-0.39,1.31c-0.12,0.44-0.25,0.88-0.39,1.31c-0.12,0.41-0.22,0.74-0.28,0.98c-0.06,0.24-0.09,0.4-0.09,0.48
		c0,0.06,0.01,0.09,0.03,0.12c0.02,0.02,0.05,0.03,0.09,0.03c0.08,0,0.15-0.02,0.2-0.07c0.06-0.05,0.1-0.11,0.14-0.2
		c0.16-0.23,0.31-0.48,0.46-0.77c0.15-0.28,0.31-0.6,0.46-0.94l0.03-0.34c0.05-0.52,0.17-0.88,0.35-1.08
		c0.18-0.2,0.52-0.36,1.01-0.48c0.06-0.02,0.22-0.23,0.47-0.63c0.25-0.4,0.59-0.99,1.01-1.77c0.23-0.41,0.43-0.72,0.59-0.93
		c0.16-0.21,0.27-0.31,0.35-0.31c0.18,0,0.31,0.06,0.39,0.18c0.08,0.12,0.12,0.29,0.12,0.53c0,0.6-0.34,1.36-1.01,2.27
		c-0.67,0.91-1.01,1.51-1.01,1.8c0,0.2,0.18,0.51,0.54,0.93c0.36,0.42,0.66,0.63,0.89,0.63c0.08,0,0.16-0.02,0.26-0.08
		c0.1-0.05,0.21-0.13,0.34-0.24c0.1-0.08,0.2-0.16,0.3-0.25c0.1-0.09,0.2-0.17,0.32-0.25l0.47,1.07c-0.2,0.18-0.4,0.36-0.58,0.54
		c-0.18,0.18-0.38,0.35-0.58,0.53c-0.23,0.22-0.45,0.38-0.68,0.49c-0.23,0.1-0.45,0.16-0.68,0.16c-0.23,0-0.63-0.24-1.19-0.72
		c-0.56-0.48-0.86-0.72-0.9-0.72c-0.29,0.26-0.54,0.53-0.76,0.8c-0.14,0.17-0.28,0.34-0.42,0.5c-0.14,0.16-0.28,0.33-0.42,0.5
		c-0.04,0.06-0.1,0.12-0.19,0.2c-0.09,0.08-0.18,0.17-0.29,0.27c-0.11,0.16-0.23,0.31-0.37,0.45c-0.14,0.14-0.31,0.22-0.51,0.22
		c-0.31,0-0.55-0.09-0.7-0.27c-0.16-0.18-0.23-0.45-0.23-0.82c0-0.38,0.03-0.77,0.1-1.2c0.07-0.42,0.17-0.86,0.31-1.32
		c0.05-0.22,0.1-0.41,0.13-0.58c0.03-0.17,0.05-0.31,0.05-0.44l-0.08-0.12c-0.1,0.12-0.23,0.27-0.39,0.44
		C8.6,43.8,8.41,44.01,8.2,44.26c-0.03,0.02-0.06,0.06-0.1,0.12c-0.03,0.06-0.11,0.17-0.24,0.35c-0.04-0.1-0.09-0.22-0.15-0.36
		c-0.06-0.14-0.12-0.3-0.18-0.49c-0.02-0.05-0.04-0.09-0.06-0.13C7.45,43.71,7.42,43.68,7.39,43.65"/>
	<path style="clip-path:url(#SVGID_00000008111289809615571650000010791401492263551166_);fill:#0000FF;" d="M18.17,41.63
		c0.22,0.06,0.4,0.11,0.55,0.18c0.26-0.05,0.53-0.1,0.81-0.15h2.18c0.21,0,0.36,0.05,0.46,0.16c0.09,0.11,0.14,0.27,0.14,0.49
		c0,0.31-0.06,0.55-0.19,0.7c-0.13,0.16-0.31,0.23-0.56,0.23c-0.08,0-0.2-0.01-0.36-0.03c-0.16-0.02-0.28-0.03-0.36-0.03h-0.67
		c-0.28,0.06-0.56,0.1-0.84,0.15c-0.68-0.11-1.06-0.16-1.14-0.16c-0.1,0-0.24,0.01-0.4,0.04c-0.17,0.03-0.3,0.04-0.4,0.04
		c-0.14,0-0.25-0.03-0.34-0.09c-0.09-0.06-0.13-0.14-0.13-0.25c0-0.05,0.04-0.12,0.12-0.21c0.08-0.09,0.19-0.2,0.34-0.33
		c0.03-0.06,0.07-0.14,0.12-0.24c0.05-0.1,0.11-0.21,0.18-0.35c0.05-0.01,0.12-0.03,0.2-0.05C17.95,41.7,18.05,41.67,18.17,41.63"/>
	<path style="clip-path:url(#SVGID_00000008111289809615571650000010791401492263551166_);fill:#0000FF;" d="M25.5,29.84
		c0.17,0,0.32,0.03,0.44,0.08c0.12,0.05,0.22,0.12,0.3,0.19c0.07,0.07,0.14,0.16,0.21,0.28c0.07,0.11,0.15,0.25,0.25,0.42
		c0.12,0.23,0.22,0.4,0.27,0.52c0.05,0.12,0.08,0.2,0.08,0.24c-0.06,0.45-0.11,0.89-0.15,1.3c-0.03,0.44-0.08,0.89-0.15,1.35
		c-0.03,0.11-0.06,0.23-0.08,0.36c0.03,0.19,0.06,0.4,0.08,0.62c0.02,0.22,0.03,0.44,0.04,0.66c0.02,0.17,0.02,0.36,0.02,0.58
		c0,0.21-0.01,0.46-0.02,0.73c-0.01,0.34-0.01,0.62-0.02,0.84c-0.01,0.22-0.01,0.36-0.01,0.44c0,0.05,0,0.12,0.01,0.19
		c0.01,0.07,0.02,0.15,0.05,0.23c0.02,0.11,0.04,0.25,0.08,0.41V40c0.01,0.3,0.1,0.99,0.28,2.06c0.18,1.08,0.29,1.65,0.35,1.73
		c0.05-0.03,0.1-0.05,0.14-0.07l0.91-1.64c0.05-0.13,0.11-0.3,0.18-0.51c0.07-0.21,0.16-0.45,0.26-0.72c0.35-0.69,0.69-1.58,1-2.69
		c0.32-1.1,0.61-2.41,0.89-3.93c0.09-0.44,0.22-0.78,0.37-1.04c0.15-0.26,0.32-0.41,0.51-0.47l1.04-0.38
		c0.18,0.07,0.31,0.17,0.39,0.29c0.08,0.12,0.12,0.28,0.12,0.47c0,0.24-0.04,0.63-0.13,1.18c-0.09,0.54-0.22,1.22-0.4,2.04
		c-0.01,0.18-0.03,0.4-0.07,0.67c-0.04,0.26-0.08,0.58-0.13,0.94c-0.06,0.28-0.11,0.5-0.15,0.67s-0.05,0.27-0.05,0.31
		c0,0.2,0,0.43,0.01,0.7c0.01,0.26,0.01,0.56,0.02,0.88c0.02,0.4,0.02,0.73,0.02,0.99v0.56c0.01,0.52,0.03,0.92,0.05,1.19
		c0.03,0.27,0.06,0.41,0.11,0.41c0.08,0,0.2-0.17,0.37-0.5s0.37-0.84,0.61-1.52c0.19-0.52,0.37-1,0.53-1.47
		c0.16-0.46,0.3-0.89,0.43-1.3c0.08-0.09,0.14-0.21,0.19-0.36c0.05-0.16,0.08-0.35,0.09-0.6c0.12-0.34,0.25-0.69,0.36-1.06
		c0.12-0.37,0.24-0.75,0.38-1.15c0.08-0.24,0.16-0.53,0.25-0.88c0.09-0.35,0.2-0.77,0.32-1.25l-0.15-0.49
		c0.02-0.09,0.06-0.21,0.11-0.35c0.05-0.14,0.09-0.31,0.13-0.5c0.21-0.33,0.4-0.59,0.57-0.76c0.17-0.17,0.3-0.26,0.4-0.26
		c0.08,0,0.13,0.04,0.16,0.12c0.03,0.08,0.05,0.21,0.05,0.39c0,0.48-0.01,0.84-0.03,1.11c-0.02,0.26-0.05,0.43-0.08,0.51
		c-0.06,0.11-0.1,0.21-0.14,0.31c-0.04,0.1-0.07,0.18-0.09,0.24l0.15,0.57c-0.05,0.11-0.1,0.31-0.16,0.59
		c-0.06,0.29-0.13,0.66-0.21,1.12c-0.08,0.44-0.15,0.78-0.21,1.04c-0.06,0.26-0.12,0.43-0.18,0.52c-0.02,0.15-0.07,0.33-0.15,0.54
		c-0.08,0.21-0.17,0.46-0.28,0.75c-0.05,0.1-0.1,0.26-0.15,0.47c-0.05,0.21-0.12,0.47-0.2,0.77c-0.05,0.18-0.12,0.39-0.21,0.64
		c-0.09,0.25-0.18,0.54-0.29,0.9c-0.08,0.1-0.15,0.24-0.23,0.41c-0.07,0.17-0.14,0.39-0.2,0.64c-0.04,0.12-0.11,0.31-0.22,0.54
		c-0.1,0.24-0.24,0.55-0.39,0.92c-0.16,0.39-0.3,0.69-0.42,0.9c-0.12,0.21-0.2,0.33-0.25,0.35L33.2,45.7
		c-0.06,0.08-0.14,0.13-0.23,0.16c-0.09,0.03-0.22,0.04-0.36,0.03c-0.14,0.09-0.26,0.15-0.37,0.2s-0.19,0.07-0.25,0.07
		c-0.3,0-0.53-0.12-0.71-0.35c-0.18-0.23-0.31-0.59-0.39-1.08c-0.02-0.34-0.05-0.67-0.08-1.01c-0.03-0.34-0.06-0.68-0.09-1.04
		c-0.02-0.17-0.05-0.4-0.09-0.68s-0.11-0.63-0.2-1.02c-0.16,0.31-0.33,0.63-0.51,0.97c-0.18,0.33-0.36,0.68-0.55,1.05
		c0.01,0.07-0.05,0.24-0.16,0.51c-0.12,0.27-0.28,0.65-0.49,1.14c-0.22,0.51-0.45,1.02-0.7,1.53c-0.18,0.31-0.37,0.53-0.58,0.69
		c-0.21,0.15-0.44,0.23-0.7,0.23c-0.12,0-0.25-0.1-0.36-0.29s-0.23-0.49-0.35-0.89c-0.07-0.24-0.14-0.49-0.2-0.73
		c-0.07-0.25-0.13-0.5-0.2-0.75c0.04-0.11,0.07-0.2,0.08-0.27c-0.06-0.11-0.11-0.26-0.17-0.44c-0.06-0.19-0.12-0.42-0.19-0.68
		c-0.02-0.16-0.06-0.37-0.09-0.63c-0.04-0.26-0.08-0.56-0.13-0.91c-0.01-0.11-0.02-0.22-0.02-0.33c-0.01-0.11-0.01-0.22-0.02-0.33
		c-0.01-0.09-0.03-0.18-0.06-0.28c-0.03-0.1-0.09-0.22-0.16-0.35c-0.02-0.05-0.03-0.16-0.04-0.34c-0.01-0.18-0.03-0.44-0.04-0.77
		c-0.01-0.26-0.03-0.49-0.07-0.66c-0.04-0.18-0.1-0.29-0.18-0.35l-0.32-0.23c-0.05-0.11-0.08-0.28-0.11-0.51s-0.04-0.51-0.04-0.85
		c0-0.88,0.05-1.8,0.16-2.76s0.26-1.97,0.47-3.03c0.06-0.27,0.15-0.48,0.29-0.62C25.11,29.91,25.28,29.84,25.5,29.84"/>
	<path style="clip-path:url(#SVGID_00000008111289809615571650000010791401492263551166_);fill:#0000FF;" d="M37,43.65
		c0.1-0.16,0.22-0.33,0.37-0.5c0.15-0.17,0.34-0.34,0.57-0.52c0.02-0.16,0.05-0.31,0.07-0.46c0.02-0.15,0.04-0.31,0.05-0.46
		c0.02-0.11,0.06-0.24,0.11-0.39c0.05-0.15,0.11-0.31,0.17-0.48c0.07-0.17,0.17-0.39,0.29-0.64s0.28-0.55,0.47-0.87
		c0.16-0.18,0.33-0.38,0.51-0.59c0.18-0.22,0.36-0.43,0.54-0.65c0.09-0.07,0.18-0.14,0.28-0.2c0.1-0.06,0.2-0.13,0.31-0.21
		c0.09-0.03,0.2-0.06,0.32-0.08c0.12-0.02,0.25-0.04,0.39-0.04c0.19,0,0.35,0.02,0.47,0.06c0.12,0.04,0.22,0.1,0.3,0.2
		c0.05,0.06,0.11,0.16,0.16,0.28c0.05,0.13,0.1,0.28,0.15,0.46c0.02,0.16,0.05,0.33,0.08,0.51c0-0.05-0.01-0.03-0.04,0.06
		c-0.03,0.09-0.07,0.22-0.12,0.41l-0.1,0.38c-0.11,0.37-0.35,0.81-0.74,1.3c-0.38,0.49-0.9,1.05-1.54,1.69
		c-0.06,0.05-0.1,0.12-0.14,0.2c-0.04,0.08-0.06,0.17-0.06,0.26c0,0.16,0.03,0.31,0.09,0.43c0.06,0.12,0.14,0.22,0.25,0.28
		c0.06,0.05,0.16,0.09,0.3,0.14c0.14,0.05,0.3,0.09,0.49,0.13c0.3-0.02,0.58-0.08,0.83-0.15c0.25-0.08,0.47-0.17,0.67-0.28
		c0.04-0.02,0.1-0.06,0.19-0.1s0.17-0.1,0.26-0.17c0.1,0.23,0.19,0.43,0.27,0.61c0.08,0.18,0.14,0.33,0.19,0.47
		c-0.44,0.44-0.85,0.77-1.21,0.99c-0.36,0.22-0.7,0.34-1,0.34c-0.12,0.08-0.27,0.13-0.43,0.17s-0.35,0.05-0.57,0.05
		c-0.29,0-0.54-0.04-0.77-0.13c-0.22-0.09-0.41-0.21-0.56-0.38c-0.08-0.08-0.16-0.19-0.24-0.35s-0.16-0.33-0.25-0.55
		c-0.07-0.17-0.14-0.3-0.2-0.38c-0.06-0.08-0.13-0.12-0.21-0.12c-0.06,0-0.13,0.03-0.21,0.09c-0.08,0.06-0.17,0.15-0.26,0.26
		c-0.03-0.12-0.09-0.26-0.17-0.43C37.23,44.12,37.13,43.91,37,43.65 M40.76,39.84c-0.17,0-0.4,0.22-0.69,0.67
		c-0.29,0.45-0.43,0.78-0.43,0.99c0,0.05,0.01,0.08,0.03,0.1c0.02,0.02,0.06,0.03,0.12,0.03c0.08,0,0.15-0.04,0.21-0.13
		c0.05-0.09,0.1-0.17,0.15-0.25c0.09-0.08,0.17-0.16,0.25-0.25c0.08-0.09,0.16-0.18,0.24-0.26c0.09-0.11,0.16-0.22,0.21-0.33
		c0.05-0.11,0.07-0.22,0.07-0.33c0-0.07-0.01-0.13-0.04-0.17C40.85,39.86,40.81,39.84,40.76,39.84"/>
	<path style="clip-path:url(#SVGID_00000008111289809615571650000010791401492263551166_);fill:#0000FF;" d="M42.89,43.65l0.07-0.08
		L43,43.45c0.21-0.29,0.58-0.66,1.11-1.13c0.53-0.47,0.9-0.84,1.1-1.13c0.08-0.12,0.17-0.22,0.27-0.27c0.1-0.05,0.2-0.08,0.31-0.08
		c0.27,0,0.5,0.07,0.69,0.21c0.19,0.14,0.31,0.34,0.38,0.61c0.05,0.24,0.1,0.49,0.15,0.73c0.05,0.25,0.09,0.49,0.12,0.74
		c0.06,0.16,0.12,0.39,0.2,0.71c0.08,0.32,0.14,0.5,0.17,0.54c0.04,0.08,0.1,0.14,0.17,0.17c0.08,0.04,0.17,0.05,0.29,0.05
		c0.14,0,0.28-0.03,0.43-0.08c0.15-0.05,0.3-0.14,0.46-0.26c0.12-0.1,0.24-0.2,0.37-0.31c0.13-0.11,0.25-0.21,0.38-0.31l0.48,1.08
		c-0.12,0.12-0.29,0.27-0.5,0.43c-0.21,0.16-0.45,0.35-0.74,0.56c-0.32,0.23-0.59,0.41-0.82,0.52c-0.23,0.11-0.4,0.17-0.52,0.17
		c-0.71,0-1.17-0.08-1.38-0.25c-0.21-0.16-0.44-0.62-0.7-1.37c-0.03-0.06-0.08-0.14-0.14-0.22c-0.06-0.09-0.13-0.19-0.21-0.31
		c-0.09-0.18-0.17-0.31-0.25-0.4c-0.07-0.09-0.13-0.13-0.17-0.13c-0.12,0-0.29,0.08-0.5,0.25c-0.21,0.17-0.47,0.42-0.77,0.76
		c-0.04-0.1-0.09-0.22-0.15-0.36c-0.06-0.14-0.12-0.3-0.18-0.49c-0.02-0.05-0.04-0.09-0.06-0.13
		C42.95,43.71,42.92,43.67,42.89,43.65 M47.79,34.41c0.19,0,0.34,0.04,0.43,0.12s0.13,0.19,0.13,0.34c-0.05,0.22-0.09,0.4-0.12,0.55
		c-0.08,0.28-0.15,0.51-0.2,0.69c-0.06,0.18-0.1,0.31-0.13,0.39c-0.07,0.17-0.17,0.32-0.29,0.45c-0.12,0.13-0.27,0.24-0.44,0.35
		c-0.18,0.12-0.33,0.21-0.45,0.26c-0.12,0.05-0.2,0.07-0.25,0.06c-0.13-0.01-0.26-0.03-0.38-0.04c-0.12-0.01-0.24-0.02-0.36-0.02
		c-0.1-0.06-0.18-0.16-0.24-0.32c-0.06-0.16-0.09-0.37-0.09-0.63c0-0.24,0.14-0.53,0.43-0.88c0.28-0.35,0.54-0.54,0.76-0.57
		c0.13-0.16,0.29-0.35,0.47-0.56c0.08-0.05,0.18-0.1,0.3-0.13S47.62,34.41,47.79,34.41"/>
	<path style="clip-path:url(#SVGID_00000008111289809615571650000010791401492263551166_);fill:#0000FF;" d="M49.59,43.65
		c0.03-0.06,0.07-0.12,0.12-0.18c0.05-0.07,0.11-0.15,0.18-0.24c0.08-0.06,0.18-0.15,0.3-0.27c0.12-0.12,0.27-0.25,0.42-0.41
		c0.14-0.16,0.31-0.35,0.51-0.58c0.2-0.23,0.45-0.51,0.74-0.84c0.12-0.13,0.28-0.3,0.47-0.51s0.41-0.46,0.67-0.74
		c0.22-0.26,0.45-0.45,0.7-0.58c0.25-0.12,0.52-0.19,0.8-0.19c0.28,0,0.49,0.09,0.62,0.26c0.13,0.17,0.2,0.43,0.2,0.77
		c0,0.18-0.07,0.52-0.2,1.03c-0.13,0.51-0.34,1.18-0.62,2.01c-0.07,0.16-0.14,0.3-0.2,0.45c-0.05,0.1-0.08,0.19-0.09,0.27
		c-0.01,0.08-0.02,0.14-0.02,0.18c0,0.05,0.03,0.1,0.08,0.17c0.04-0.02,0.08-0.05,0.11-0.09c0.03-0.04,0.08-0.08,0.12-0.14
		c0.06-0.12,0.16-0.24,0.29-0.37c0.13-0.13,0.28-0.27,0.46-0.43c0.07-0.13,0.16-0.26,0.27-0.39c0.11-0.13,0.24-0.25,0.38-0.36
		c0.03-0.03,0.07-0.08,0.12-0.15c0.05-0.07,0.11-0.15,0.18-0.22c0.1-0.1,0.22-0.21,0.36-0.32c0.14-0.11,0.3-0.22,0.49-0.34
		c0.21-0.11,0.4-0.19,0.57-0.26c0.17-0.06,0.31-0.09,0.44-0.09c0.24,0,0.46,0.06,0.64,0.18c0.19,0.12,0.35,0.3,0.48,0.55
		c0.16,0.49,0.3,0.94,0.44,1.35c0.08,0.24,0.18,0.42,0.29,0.54c0.11,0.12,0.22,0.17,0.36,0.17c0.1,0,0.19-0.02,0.27-0.06
		c0.08-0.04,0.16-0.1,0.23-0.17l0.47,1.07c-0.13,0.11-0.27,0.22-0.41,0.34c-0.14,0.12-0.28,0.23-0.41,0.34
		c-0.18,0.16-0.35,0.28-0.5,0.35c-0.16,0.07-0.31,0.1-0.47,0.1c-0.18,0-0.35-0.04-0.51-0.12c-0.16-0.08-0.31-0.2-0.42-0.35
		c-0.06-0.06-0.14-0.18-0.23-0.35c-0.09-0.17-0.2-0.38-0.33-0.63c-0.1-0.1-0.22-0.24-0.34-0.4c-0.13-0.17-0.28-0.37-0.45-0.59
		l-0.1-0.03c-0.15,0.05-0.3,0.12-0.44,0.21c-0.14,0.09-0.3,0.22-0.46,0.36c-0.35,0.31-0.61,0.51-0.76,0.59
		c-0.16,0.08-0.26,0.17-0.32,0.27c-0.11,0.19-0.3,0.43-0.56,0.73c-0.27,0.3-0.6,0.65-1,1.06c-0.1,0.1-0.2,0.2-0.3,0.3
		c-0.1,0.1-0.2,0.19-0.31,0.29c-0.1,0.09-0.22,0.15-0.34,0.18c-0.13,0.03-0.27,0.05-0.43,0.05c-0.31,0-0.48-0.11-0.51-0.32
		c-0.03-0.22-0.05-0.43-0.08-0.65c0.12-0.33,0.25-0.74,0.4-1.23c0.15-0.49,0.32-1.07,0.52-1.72c0-0.04,0.01-0.09,0.04-0.16
		c0.03-0.07,0.06-0.15,0.1-0.26c0.04-0.1,0.07-0.19,0.08-0.26c0.02-0.07,0.02-0.14,0.02-0.19s-0.02-0.1-0.06-0.13
		c-0.04-0.03-0.1-0.05-0.19-0.05c-0.08,0-0.18,0.05-0.31,0.14c-0.13,0.09-0.28,0.24-0.46,0.45c-0.22,0.23-0.4,0.42-0.53,0.55
		c-0.13,0.13-0.22,0.21-0.27,0.23c-0.08,0.06-0.17,0.13-0.28,0.23c-0.11,0.1-0.22,0.22-0.36,0.34c-0.01,0.03-0.04,0.08-0.07,0.14
		c-0.03,0.06-0.08,0.13-0.15,0.21c-0.03-0.12-0.09-0.26-0.17-0.43C49.82,44.12,49.72,43.91,49.59,43.65"/>
	<path style="clip-path:url(#SVGID_00000008111289809615571650000010791401492263551166_);fill:#0000FF;" d="M60.78,43.65
		c0.1-0.16,0.22-0.33,0.37-0.5c0.15-0.17,0.34-0.34,0.57-0.52c0.02-0.16,0.05-0.31,0.07-0.46c0.02-0.15,0.04-0.31,0.05-0.46
		c0.02-0.11,0.06-0.24,0.11-0.39c0.05-0.15,0.11-0.31,0.17-0.48c0.07-0.17,0.17-0.39,0.29-0.64c0.12-0.26,0.28-0.55,0.47-0.87
		c0.16-0.18,0.33-0.38,0.51-0.59c0.18-0.22,0.36-0.43,0.54-0.65c0.09-0.07,0.18-0.14,0.28-0.2c0.1-0.06,0.2-0.13,0.31-0.21
		c0.09-0.03,0.2-0.06,0.32-0.08c0.12-0.02,0.25-0.04,0.39-0.04c0.19,0,0.35,0.02,0.47,0.06c0.12,0.04,0.22,0.1,0.3,0.2
		c0.06,0.06,0.11,0.16,0.16,0.28c0.05,0.13,0.1,0.28,0.15,0.46c0.02,0.16,0.05,0.33,0.08,0.51c0-0.05-0.01-0.03-0.04,0.06
		c-0.03,0.09-0.07,0.22-0.12,0.41l-0.11,0.38c-0.11,0.37-0.35,0.81-0.74,1.3c-0.38,0.49-0.9,1.05-1.54,1.69
		c-0.06,0.05-0.1,0.12-0.14,0.2c-0.04,0.08-0.06,0.17-0.06,0.26c0,0.16,0.03,0.31,0.09,0.43c0.06,0.12,0.14,0.22,0.25,0.28
		c0.06,0.05,0.16,0.09,0.3,0.14c0.14,0.05,0.3,0.09,0.49,0.13c0.3-0.02,0.58-0.08,0.83-0.15c0.25-0.08,0.47-0.17,0.67-0.28
		c0.04-0.02,0.1-0.06,0.19-0.1c0.08-0.04,0.17-0.1,0.26-0.17c0.1,0.23,0.19,0.43,0.27,0.61c0.08,0.18,0.14,0.33,0.19,0.47
		c-0.44,0.44-0.85,0.77-1.21,0.99c-0.36,0.22-0.7,0.34-1,0.34c-0.12,0.08-0.27,0.13-0.43,0.17c-0.16,0.03-0.35,0.05-0.57,0.05
		c-0.29,0-0.54-0.04-0.77-0.13c-0.22-0.09-0.41-0.21-0.56-0.38c-0.08-0.08-0.16-0.19-0.24-0.35c-0.08-0.15-0.16-0.33-0.25-0.55
		c-0.07-0.17-0.14-0.3-0.2-0.38c-0.06-0.08-0.13-0.12-0.21-0.12c-0.06,0-0.13,0.03-0.21,0.09c-0.08,0.06-0.16,0.15-0.26,0.26
		c-0.03-0.12-0.09-0.26-0.17-0.43C61.01,44.12,60.91,43.91,60.78,43.65 M64.54,39.84c-0.17,0-0.4,0.22-0.69,0.67
		c-0.29,0.45-0.43,0.78-0.43,0.99c0,0.05,0.01,0.08,0.03,0.1c0.02,0.02,0.06,0.03,0.12,0.03c0.08,0,0.15-0.04,0.21-0.13
		c0.05-0.09,0.1-0.17,0.15-0.25c0.09-0.08,0.17-0.16,0.25-0.25c0.08-0.09,0.16-0.18,0.24-0.26c0.09-0.11,0.16-0.22,0.21-0.33
		c0.05-0.11,0.07-0.22,0.07-0.33c0-0.07-0.01-0.13-0.04-0.17C64.64,39.86,64.59,39.84,64.54,39.84"/>
</g>
</svg>
