<?xml version="1.0" encoding="utf-8"?>
<!-- Generator: Adobe Illustrator 26.3.1, SVG Export Plug-In . SVG Version: 6.00 Build 0)  -->
<svg version="1.1" id="Ebene_1" xmlns="http://www.w3.org/2000/svg" xmlns:xlink="http://www.w3.org/1999/xlink" x="0px" y="0px"
	 viewBox="0 0 54.86 46.98" style="enable-background:new 0 0 54.86 46.98;" xml:space="preserve">
<style type="text/css">
	.st0{clip-path:url(#SVGID_00000054226283518701645310000015691404153290857398_);fill:#0000FF;}
</style>
<g>
	<defs>
		<rect id="SVGID_1_" width="54.86" height="46.98"/>
	</defs>
	<clipPath id="SVGID_00000092449068842460390380000015208543240940320414_">
		<use xlink:href="#SVGID_1_"  style="overflow:visible;"/>
	</clipPath>
	<path style="clip-path:url(#SVGID_00000092449068842460390380000015208543240940320414_);fill:#0000FF;" d="M54.86,46.98V2.5H40.87
		c0.64,0.67,1.49,1.57,1.59,1.7C42.62,4.39,43,5.03,43,5.03l0.19,0.71c0,0-0.43-0.1-0.42,0.16c0.01,0.26,0.61,1.03,0.61,1.03
		l-0.11,0.39c0,0-0.74,0.33-0.5,1.41c0,0,0.11,0.96-0.09,1.12c0,0-1.11,0.17-1.11,1.08c0,0.91,0.1,0.7,0.1,0.7s0.03,0.29-0.38,0.49
		c-0.4,0.2-0.76,0.07-0.76,0.07s-0.74,0.9-0.73,1.28c0.02,0.39,0.12,0.65-0.89,0.86s-1.15,0.4-1.24,0.87
		c-0.08,0.47-0.24,0.75-0.56,0.91c-0.33,0.17-0.62-0.15-1.06-0.03c-0.43,0.12-1,0.47-1.22,0.91c-0.22,0.43-0.76,0.86-1.09,0.9
		c-0.33,0.04-0.98-0.5-1.87,0.24l-0.24,0.62l-0.97,0.42c0,0-0.69-0.56-1.25-0.43c-0.56,0.13-1.53,0.76-1.53,0.76
		s-0.02,0.18-0.49,0.1c-0.47-0.08-0.99-0.26-1.41-0.23c-0.42,0.03-1.09,0.41-1.09,0.41s-0.55,0.16-0.75-0.02
		c-0.2-0.18-0.41-0.62-1.05-0.6c-0.64,0.03-0.97,0.42-0.97,0.42s-0.72,0.06-0.96-0.68c-0.24-0.74-1.02-0.39-1.47-0.31
		c-0.41,0.08-0.72,0.59-1.05-0.47c-0.35-1.13-0.71-0.82-1.09-0.8s-0.71-0.03-0.7-0.91c0.01-0.88-0.42-0.75-0.53-0.58l-0.11,0.17
		c0,0-0.47-0.43-0.49-1.16c0,0-0.46-4.14,1.99-6.95c2.09-2.41,4.77-4.24,7.31-5.42H0v44.48H54.86z M16.49,35.48h1.36
		c0.36,0,0.65,0.05,0.87,0.14c0.52,0.21,0.72,0.64,0.72,1.1c0,0.55-0.36,0.93-0.81,1.07v0.01c0.13,0.08,0.32,0.3,0.54,0.7l0.67,1.2
		h-1.12l-0.51-0.96c-0.22-0.41-0.36-0.56-0.45-0.58h-0.28v1.54h-0.98V35.48z M11.73,35.48h3.55l-0.25,0.83h-1.08v3.4h-0.98v-3.4
		h-1.24V35.48z M8,35.48h2.54l-0.25,0.83H8.98v0.85h1.33v0.83H8.98v0.89h1.55v0.83H8V35.48z M2.41,37.68c0-1.28,0.95-2.24,2.42-2.24
		c0.5,0,0.9,0.08,1.27,0.2v0.9c-0.35-0.17-0.74-0.29-1.2-0.29c-0.96,0-1.45,0.56-1.45,1.38c0,0.79,0.46,1.33,1.3,1.33
		c0.24,0,0.46-0.03,0.6-0.09v-1.25h0.98v1.8c-0.45,0.22-1.05,0.35-1.63,0.35C3.23,39.77,2.41,38.88,2.41,37.68 M19.91,31.73h-1.93
		v-6.33l-5.84,6.33h-1.26v-6.4l-5.9,6.4H2.54l9.03-9.77l1.25-0.01l0,6.39l5.89-6.38l1.2,0V31.73z M42.65,39.71l1.66-4.24h0.81
		l1.75,4.24h-1.05l-0.4-1h-1.37l-0.39,1H42.65z M36.86,35.48h2.54l-0.25,0.83h-1.31v0.85h1.33v0.83h-1.33v0.89h1.54v0.83h-2.53
		V35.48z M26.37,35.48h0.98l1.64,2.13c0.14,0.17,0.26,0.34,0.38,0.51h0.01c-0.01-0.22-0.01-0.53-0.01-0.69v-1.96h0.98v4.22h-0.91
		l-1.7-2.22c-0.13-0.17-0.26-0.34-0.4-0.53h-0.01c0.02,0.14,0.02,0.42,0.02,0.6v2.15h-0.98V35.48z M22.58,35.47h0.81l1.75,4.24
		h-1.05l-0.4-1h-1.37l-0.39,1h-1.01L22.58,35.47z M23.63,35.24c-0.26,0-0.47-0.21-0.47-0.47c0-0.26,0.21-0.47,0.47-0.47
		c0.26,0,0.47,0.21,0.47,0.47C24.1,35.03,23.88,35.24,23.63,35.24 M22.35,35.24c-0.26,0-0.47-0.21-0.47-0.47
		c0-0.26,0.21-0.47,0.47-0.47c0.26,0,0.47,0.21,0.47,0.47C22.82,35.03,22.61,35.24,22.35,35.24 M34.5,28.46
		c-1.7,2.48-4.12,3.49-7.29,3.47c-5.76-0.02-5.96-4.31-5.96-5.1c0-0.35,0.03-1.12,0.4-1.96c0.83-1.91,2.68-3.06,4.69-3.06
		c0.33,0,1.03,0.02,1.8,0.33c1.61,0.64,2.88,2.14,3.15,3.85c0.07,0.53,0.03,1.04-0.01,1.57l-8.13,0c0.12,0.67,0.6,2.51,3.58,2.59
		c3.99,0.11,5.37-1.57,5.84-2.21c0-0.03,0-5.97,0-5.97h1.92L34.5,28.46z M33.86,37.5l1.74,2.2h-1.17l-1.37-1.8h-0.02v1.8h-0.98
		v-4.22h0.98v1.71h0.02l1.34-1.71h1.12L33.86,37.5z M51.63,21.73c0,0.01-0.03,1.85-0.03,1.85s-2.61-0.35-2.64,2.71
		c0,0.61,0,2.23,0,2.23c-1.7,2.48-4.12,3.49-7.29,3.48c-5.76-0.02-5.96-4.31-5.96-5.1c0-0.35,0.04-1.12,0.4-1.96
		c0.83-1.9,2.68-3.06,4.69-3.06c0.33,0,1.02,0.02,1.79,0.33c1.61,0.64,2.88,2.14,3.15,3.85c0.07,0.53,0.03,1.04-0.01,1.57l-8.13,0
		c0.12,0.67,0.6,2.51,3.58,2.59c3.99,0.11,5.37-1.57,5.84-2.21c0-0.03,0-5.97,0-5.97h1.92l0,0.83
		C48.96,22.87,49.69,21.79,51.63,21.73 M51.63,39.42c-0.46,0.22-1.05,0.35-1.64,0.35c-1.47,0-2.29-0.9-2.29-2.09
		c0-1.28,0.95-2.24,2.42-2.24c0.5,0,0.9,0.08,1.28,0.2v0.9c-0.35-0.17-0.74-0.29-1.2-0.29c-0.96,0-1.45,0.56-1.45,1.38
		c0,0.79,0.46,1.33,1.3,1.33c0.24,0,0.45-0.03,0.6-0.09v-1.25h0.98V39.42z M38.08,25.07c-0.17,0.26-0.26,0.55-0.35,0.82h6.08
		c-0.11-0.39-0.2-0.73-0.79-1.3c-0.33-0.29-1.03-0.9-2.24-0.9c-0.42,0-0.75,0.07-0.9,0.13C38.86,24.1,38.3,24.74,38.08,25.07
		 M23.62,25c-0.16,0.25-0.26,0.55-0.35,0.82h6.08c-0.11-0.39-0.2-0.73-0.79-1.3c-0.33-0.29-1.03-0.9-2.23-0.9
		c-0.42,0-0.75,0.07-0.9,0.13C24.4,24.03,23.84,24.68,23.62,25 M22.8,37.34l-0.21,0.58h0.8l-0.2-0.58c-0.1-0.29-0.15-0.47-0.18-0.6
		H23C22.97,36.88,22.91,37.06,22.8,37.34 M44.53,37.34l-0.21,0.58h0.8l-0.2-0.58c-0.1-0.29-0.15-0.47-0.18-0.6h-0.01
		C44.69,36.88,44.64,37.06,44.53,37.34 M18.13,36.34c-0.08-0.04-0.18-0.06-0.34-0.06h-0.32v1.1h0.31c0.18,0,0.29-0.03,0.39-0.08
		c0.15-0.09,0.26-0.25,0.26-0.47C18.42,36.61,18.32,36.43,18.13,36.34"/>
	<path style="clip-path:url(#SVGID_00000092449068842460390380000015208543240940320414_);fill:#0000FF;" d="M39.94,2.16
		c0.13,0.18,0.22,0.36,0.32,0.54C40.07,2.31,39.89,2.1,39.94,2.16 M40.25,2.7c0.42,0.89,0.84,2.8-1.35,5.16
		c-1.43,1.55-4.01,3.38-8.38,5.05c-5.43,2.07-8.95,2.15-11,1.62c-3.78-0.98-3.02-4.46-3.02-4.46c-2.01,5.99,6.12,7.31,14.53,4.04
		C36.26,12.08,43.02,7.59,40.25,2.7 M40.69,4.36c-0.01-0.06,0-0.12-0.02-0.18C40.67,4.19,40.68,4.26,40.69,4.36
		c0.59,2.94-2.68,5.51-3.58,6.07c-0.91,0.57,0.22-0.78,0.22-0.78C40.64,7.23,40.73,4.97,40.69,4.36"/>
	<path style="clip-path:url(#SVGID_00000092449068842460390380000015208543240940320414_);fill:#0000FF;" d="M16.62,9.81
		c0,0,2.12-4.69,9.96-7.7c7.62-2.93,12.37-1.42,13.37-0.46c0.03,0.03,0.05,0.05,0.08,0.08c0.81,0.95-2.37-4.31-13.59,0
		C17.78,5.05,16.62,9.81,16.62,9.81"/>
	<path style="clip-path:url(#SVGID_00000092449068842460390380000015208543240940320414_);fill:#0000FF;" d="M43.48,5.94
		c0,0-0.48-1.25-0.79-1.61c-0.31-0.36-2.11-2.54-2.75-2.73c0,0,0.86,0.89,1.12,1.55c0,0,1.23,0.81,1.73,1.66l0.35,0.69
		c0,0-0.76-0.97-1.49-1.39c-0.73-0.42-0.06,0.07,0.04,0.33c0.1,0.27,0.52,1.02,0.52,1.02s-0.5-0.29-0.7-0.34
		c-0.2-0.06-0.14,0.1,0.1,0.26c0.24,0.17,1.24,0.96,1.49,1.26c0.24,0.3,0.17,0.67,0.17,0.67S42.23,5.85,41.4,6.3
		c0,0-0.22,0.44,0.17,1.02l-0.54-0.27c0,0-0.18-0.02,0.05,0.24c0.23,0.26,1.38,1.21,1.58,1.74c0,0-0.02,0.62-0.14,0.66
		c-0.11,0.04-1.2-1.41-1.8-1.4c-0.6,0.01-0.09,1.12-0.01,1.35c0.09,0.23,0.41,0.84,0.41,0.84s-0.93-0.95-1.35-1.01
		c0,0,0.22,0.13,0.55,0.53c0.33,0.4,0.31,0.36,1.14,1.61c0.11,0.17-0.06,0.41-0.2,0.51c-0.14,0.1-1.04-0.9-1.57-1.26
		c-0.53-0.36-1-0.44-0.97,0.42c0.03,0.86,0.19,1.06,0.19,1.06s-0.91-1.23-1.08-1.11c-0.14,0.09,0.49,0.59,1.39,1.81
		c0,0,0.42,0.53,0.38,0.86c-0.05,0.32-0.32,0.3-0.47,0.27c-0.14-0.03-1.7-2.39-2.4-1.82c-0.49,0.4-0.26,1.15-0.07,1.57
		c0.09,0.17,0.15,0.32,0.15,0.32s-0.07-0.14-0.15-0.32c-0.17-0.35-0.47-0.87-0.8-0.92c0.02,0.03,0.12,0.17,0.58,0.94
		c0.77,1.32,0.89,1.75,0.89,1.75s-0.02,0.18-0.32,0.3c-0.3,0.12-1.05-1.82-2.22-1.93c-1.18-0.11-0.47,2.4-0.47,2.4s-0.9-2-1.04-2.04
		c-0.14-0.03-0.19,0.07-0.07,0.38c0.12,0.31,1.03,2.69,1.03,2.69s-0.1,0.3-0.63,0.29c0,0-1.18-2.85-2.17-2.13
		c0,0-0.66,0.43,0.06,2.76c0,0,0.12,0.3-0.48,0.45l-0.2,0.03c0,0-1.07-2.77-1.32-2.98c0,0,0.16,0.77,0.34,1.44
		c0,0-0.99-1.1-1.6-0.87c-0.61,0.24-0.69,1.27-0.37,3.02c0,0-0.14,0.1-0.49,0.1c0,0-0.43-1.23-0.7-2.6
		c-0.1-0.52-0.08-0.67-0.08-0.67s-0.05,1.11,0.06,1.63c0,0-0.51-1.11-1.15-0.95c-0.64,0.16-0.71,1.45-0.58,2.57
		c0,0-0.11,0.17-0.36,0.18c-0.26,0.01-0.48-1.6-0.62-2.85l-0.04-0.33c0,0-0.12,1.05-0.07,1.51c0.05,0.46-0.2-1.1-1.07-0.98
		c-0.87,0.12-0.71,2.23-0.71,2.23s-0.42,0.38-0.59-0.07c-0.18-0.45-0.24-2.09-0.18-2.5l-0.26,0.58c0,0-0.5-0.72-0.9-0.87
		c-0.41-0.15-0.54,0.29-0.61,2.02c0,0-0.44,0.43-0.7-0.12c0,0,0-1.7,0.04-2.15c0.04-0.45,0.01-0.88-0.11-0.52
		c-0.13,0.35-0.12,0.7-0.12,0.7s-0.37-0.86-0.67-0.83c-0.3,0.03-0.61,0.67-0.66,1.56c0,0-0.32,0.08-0.3-0.32
		c0.02-0.4,0.12-1.83,0.12-1.83l-0.18,0.2c0,0-0.05-0.81-0.3-1.02c-0.25-0.21-0.45,1.44-0.45,1.78c0,0-0.31-0.36-0.27-1.16
		c0.04-0.8,0.17-2.5,0.17-2.5s-0.12-0.38-0.13-0.71c-0.1,0.73-0.36,2.67-0.23,3.29c0,0-0.08,0.38,0.1,0.61c0,0,0.09,0.57,0.38,0.86
		c0,0,0.06-0.2,0.28-0.28c0,0,0.33,0.4,0.37,0.86c0.05,0.46,0.14,0.44,0.32,0.62c0.11,0.1,0.34,0.02,0.48-0.12
		c0.23-0.21,0.58,0.05,0.78,0.46c0.2,0.4,0.17,0.67,0.36,0.82c0.19,0.14,0.72,0.29,0.72,0.29s0.47-0.36,0.73-0.37
		s0.72,0.07,0.79,0.48c0.07,0.41,0.23,0.48,0.57,0.57c0.34,0.09,0.53,0.14,0.72-0.06c0.18-0.2,0.61-0.45,0.95-0.36
		c0.34,0.09,0.78,0.44,0.84,0.59c0.06,0.15,0.2,0.18,0.47,0.21c0.27,0.03,0.42,0.06,0.52-0.11c0.11-0.17,0.38-0.49,0.85-0.5
		c0.48-0.01,0.64-0.03,1.05,0.34c0,0,0.01,0.13,0.34,0.09c0.33-0.04,0.73-0.15,0.73-0.15s0.05-0.1,0.33-0.39
		c0,0,0.28-0.28,0.68-0.39c0.39-0.11,0.86-0.03,1.06,0.16c0.2,0.18,0.16,0.2,0.52,0.1c0.36-0.09,0.81-0.27,0.97-0.42
		c0.16-0.15,0.24-0.62,0.66-0.78c0.42-0.16,0.79-0.09,1.18,0.02c0.39,0.11,0.48-0.01,0.76-0.16c0.29-0.16,0.41-0.29,0.62-0.54
		c0.21-0.26,0.15-0.63,0.58-0.88c0.43-0.25,1.17-0.23,1.37-0.18c0.19,0.06,0.16,0.07,0.54-0.17c0.39-0.23,0.35-0.22,0.35-0.44
		c0-0.22,0.07-0.72,0.55-0.95c0.48-0.23,0.76-0.16,1.03-0.26c0.26-0.1,0.53-0.21,0.59-0.49c0.07-0.29,0.05-0.89,0.31-1.12
		c0.26-0.23,0.57-0.44,0.84-0.41c0.27,0.03,0.29-0.03,0.52-0.33c0.23-0.31,0.37-0.4,0.28-0.63c-0.09-0.23-0.36-0.82,0.04-1.15
		c0.4-0.33,0.54-0.3,0.83-0.23c0,0,0.29-0.15,0.31-0.55l0.02-0.4c0,0-0.4-0.59-0.23-1.17c0.17-0.58,0.65-0.34,0.65-0.34
		s0.14-0.53,0.08-0.69c0,0-0.41-0.5-0.46-0.87C43.03,5.68,43.48,5.94,43.48,5.94 M18.62,17.72c0,0-0.68-0.74-0.92-0.69
		c0,0,0.17-1.02,0.43-0.91C18.39,16.23,18.59,17.2,18.62,17.72 M20.84,18.52c0,0-0.41-0.15-0.79-0.13c0,0-0.01-0.69,0.18-0.89
		c0.18-0.2,0.42-0.03,0.57,0.57L20.84,18.52z M23.99,19.22c0.07,0.28-0.55-0.4-1.25-0.09c0,0-0.17-0.89,0.39-1.02
		C23.69,17.99,23.92,18.94,23.99,19.22 M27.03,19.44c0,0-0.83-0.46-1.56-0.1c0,0-0.22-1.35,0.33-1.52
		C26.35,17.66,27.05,19.26,27.03,19.44 M29.71,18.59c0,0-1.11,0.17-1.49,0.53c0,0-0.26-1.25,0.32-1.56
		C29.11,17.25,29.71,18.59,29.71,18.59 M33.06,17.13l-0.41-0.15c0,0,0.37,0.51,0.35,0.69c0,0-0.6,0.01-1.12,0.48
		c0,0-0.14-0.6-0.13-0.91c0,0-0.17-0.55,0.29-0.72C32.35,16.4,33.06,17.13,33.06,17.13 M36.43,15.92c0,0-1.15,0.18-1.46,0.61
		c0,0-0.42-1.1-0.04-1.47C35.31,14.7,36.06,15.41,36.43,15.92 M38.54,14.28c-0.69,0.13-1.05,1.01-1.05,1.01
		c-0.39-1.02-0.44-1.61-0.14-1.73C37.66,13.45,38.54,14.28,38.54,14.28 M40.53,12.21c-0.52,0.11-0.84,1.11-0.84,1.11
		c-0.13-0.12-0.57-1.26-0.18-1.5C39.9,11.58,40.53,12.21,40.53,12.21 M42.06,9.84c0,0-0.56,0.47-0.59,0.84c0,0-0.52-0.89-0.25-1.21
		C41.49,9.14,42.06,9.84,42.06,9.84 M42.82,7.5c-0.32,0.3-0.2,0.95-0.2,0.95C42.44,8.21,41.79,7.2,42,7.07
		C42.21,6.95,42.82,7.5,42.82,7.5 M15.96,11.58c0.02-0.18,0.04-0.3,0.04-0.3C15.97,11.36,15.96,11.46,15.96,11.58 M35.87,13
		C35.88,13,35.88,13,35.87,13C35.87,12.99,35.87,13,35.87,13"/>
</g>
</svg>
